%TF.GenerationSoftware,KiCad,Pcbnew,7.0.2-0*%
%TF.CreationDate,2023-06-28T16:36:39-04:00*%
%TF.ProjectId,Escanaba Euclidean Panel,45736361-6e61-4626-9120-4575636c6964,rev?*%
%TF.SameCoordinates,Original*%
%TF.FileFunction,Legend,Top*%
%TF.FilePolarity,Positive*%
%FSLAX46Y46*%
G04 Gerber Fmt 4.6, Leading zero omitted, Abs format (unit mm)*
G04 Created by KiCad (PCBNEW 7.0.2-0) date 2023-06-28 16:36:39*
%MOMM*%
%LPD*%
G01*
G04 APERTURE LIST*
%ADD10C,0.723920*%
%ADD11C,0.150000*%
%ADD12C,0.127000*%
%ADD13C,0.200000*%
%ADD14C,0.825500*%
G04 APERTURE END LIST*
D10*
X90706458Y-149159074D02*
G75*
G03*
X90706458Y-149159074I-361960J0D01*
G01*
D11*
X90985265Y-146383379D02*
G75*
G03*
X90985265Y-146383379I-648920J0D01*
G01*
D12*
X96607958Y-154979949D02*
X96611809Y-154980212D01*
X96615630Y-154980691D01*
X96619370Y-154981384D01*
X96622977Y-154982285D01*
X96626403Y-154983393D01*
X96629596Y-154984702D01*
X96632506Y-154986208D01*
X96633839Y-154987034D01*
X96635083Y-154987908D01*
X96636231Y-154988830D01*
X96637276Y-154989799D01*
X96662959Y-155010868D01*
X96688457Y-155032340D01*
X96739141Y-155076121D01*
X96789825Y-155120398D01*
X96841005Y-155164428D01*
X97023568Y-155320533D01*
X97317255Y-155574531D01*
X97499817Y-155733276D01*
X97685026Y-155892028D01*
X97708719Y-155911001D01*
X97732196Y-155930189D01*
X97778622Y-155969091D01*
X97824552Y-156008488D01*
X97870234Y-156048133D01*
X98055442Y-156206886D01*
X98238005Y-156365638D01*
X98248546Y-156374322D01*
X98259332Y-156382525D01*
X98270358Y-156390263D01*
X98281620Y-156397552D01*
X98293115Y-156404407D01*
X98304839Y-156410843D01*
X98316787Y-156416876D01*
X98328956Y-156422522D01*
X98341342Y-156427796D01*
X98353942Y-156432713D01*
X98366750Y-156437289D01*
X98379764Y-156441539D01*
X98392980Y-156445480D01*
X98406393Y-156449126D01*
X98420000Y-156452493D01*
X98433797Y-156455596D01*
X98446695Y-156458256D01*
X98459594Y-156461250D01*
X98485390Y-156468082D01*
X98511187Y-156475782D01*
X98536984Y-156484040D01*
X98588578Y-156500989D01*
X98614375Y-156509060D01*
X98640171Y-156516448D01*
X98660888Y-156522175D01*
X98681388Y-156527530D01*
X98721861Y-156537619D01*
X98761839Y-156547707D01*
X98781719Y-156553060D01*
X98801567Y-156558784D01*
X98932536Y-156598145D01*
X98998021Y-156617206D01*
X99063506Y-156635520D01*
X99117497Y-156649033D01*
X99171985Y-156662303D01*
X99226472Y-156676071D01*
X99253561Y-156683373D01*
X99280464Y-156691078D01*
X99306260Y-156698254D01*
X99332057Y-156705835D01*
X99383651Y-156721835D01*
X99486839Y-156754577D01*
X99645588Y-156796913D01*
X99712602Y-156815226D01*
X99778872Y-156834284D01*
X99910171Y-156873641D01*
X99912682Y-156874602D01*
X99915251Y-156875500D01*
X99917874Y-156876337D01*
X99920548Y-156877112D01*
X99923268Y-156877824D01*
X99926030Y-156878475D01*
X99928832Y-156879064D01*
X99931668Y-156879591D01*
X99934535Y-156880056D01*
X99937430Y-156880459D01*
X99940348Y-156880801D01*
X99943285Y-156881080D01*
X99949202Y-156881452D01*
X99955150Y-156881576D01*
X99962354Y-156882744D01*
X99969097Y-156884254D01*
X99975396Y-156886091D01*
X99981272Y-156888239D01*
X99986743Y-156890683D01*
X99991828Y-156893409D01*
X99996545Y-156896401D01*
X100000914Y-156899645D01*
X100004954Y-156903125D01*
X100008683Y-156906826D01*
X100012121Y-156910734D01*
X100015286Y-156914833D01*
X100018197Y-156919109D01*
X100020873Y-156923545D01*
X100025595Y-156932843D01*
X100029605Y-156942605D01*
X100033052Y-156952712D01*
X100036089Y-156963044D01*
X100038866Y-156973480D01*
X100044246Y-156994186D01*
X100047150Y-157004216D01*
X100050400Y-157013870D01*
X100067763Y-157063480D01*
X100084135Y-157113090D01*
X100099514Y-157162700D01*
X100113901Y-157212310D01*
X100172109Y-157416030D01*
X100182486Y-157448236D01*
X100193606Y-157481184D01*
X100217088Y-157548324D01*
X100221273Y-157561343D01*
X100225769Y-157574577D01*
X100234947Y-157601572D01*
X100239257Y-157615271D01*
X100243132Y-157629064D01*
X100244850Y-157635985D01*
X100246388Y-157642919D01*
X100247725Y-157649861D01*
X100248838Y-157656806D01*
X100249032Y-157658069D01*
X100249123Y-157659375D01*
X100249113Y-157660721D01*
X100249008Y-157662103D01*
X100248812Y-157663518D01*
X100248530Y-157664963D01*
X100248165Y-157666433D01*
X100247721Y-157667927D01*
X100246619Y-157670969D01*
X100245256Y-157674061D01*
X100243669Y-157677176D01*
X100241892Y-157680288D01*
X100239960Y-157683368D01*
X100237908Y-157686391D01*
X100235770Y-157689328D01*
X100233583Y-157692154D01*
X100231379Y-157694839D01*
X100229195Y-157697359D01*
X100227065Y-157699684D01*
X100225025Y-157701789D01*
X100222921Y-157703244D01*
X100220601Y-157704625D01*
X100218095Y-157705921D01*
X100215434Y-157707120D01*
X100212648Y-157708210D01*
X100209770Y-157709181D01*
X100206830Y-157710019D01*
X100203858Y-157710715D01*
X100200887Y-157711255D01*
X100197947Y-157711629D01*
X100195068Y-157711824D01*
X100192283Y-157711830D01*
X100189622Y-157711635D01*
X100187115Y-157711226D01*
X100185930Y-157710939D01*
X100184795Y-157710593D01*
X100183714Y-157710189D01*
X100182692Y-157709724D01*
X100112784Y-157681488D01*
X100042132Y-157652508D01*
X99899588Y-157593307D01*
X99822858Y-157561561D01*
X99804338Y-157561561D01*
X99804309Y-157562612D01*
X99804229Y-157563771D01*
X99803966Y-157566354D01*
X99803640Y-157569185D01*
X99803346Y-157572140D01*
X99803239Y-157573626D01*
X99803175Y-157575096D01*
X99803166Y-157576535D01*
X99803222Y-157577928D01*
X99803355Y-157579259D01*
X99803578Y-157580512D01*
X99803727Y-157581105D01*
X99803902Y-157581673D01*
X99804105Y-157582213D01*
X99804338Y-157582725D01*
X99875113Y-157735846D01*
X99911494Y-157811542D01*
X99930366Y-157849283D01*
X99949858Y-157886993D01*
X99967237Y-157920171D01*
X99973955Y-157933725D01*
X99979252Y-157945569D01*
X99981341Y-157950924D01*
X99983044Y-157955940D01*
X99984351Y-157960648D01*
X99985251Y-157965076D01*
X99985735Y-157969254D01*
X99985792Y-157973211D01*
X99985412Y-157976978D01*
X99984584Y-157980584D01*
X99983300Y-157984057D01*
X99981548Y-157987429D01*
X99979318Y-157990727D01*
X99976600Y-157993983D01*
X99973385Y-157997225D01*
X99969661Y-158000483D01*
X99965419Y-158003787D01*
X99960648Y-158007165D01*
X99949480Y-158014266D01*
X99936076Y-158022022D01*
X99902233Y-158040443D01*
X99584732Y-158204490D01*
X99558647Y-158216517D01*
X99545619Y-158222764D01*
X99532809Y-158229290D01*
X99526533Y-158232687D01*
X99520370Y-158236189D01*
X99514339Y-158239807D01*
X99508459Y-158243553D01*
X99502749Y-158247438D01*
X99497230Y-158251474D01*
X99491919Y-158255674D01*
X99486838Y-158260047D01*
X99479486Y-158267550D01*
X99472301Y-158275165D01*
X99458353Y-158290685D01*
X99444840Y-158306514D01*
X99431606Y-158322560D01*
X99405354Y-158354928D01*
X99392027Y-158371065D01*
X99378358Y-158387046D01*
X99377870Y-158387310D01*
X99377396Y-158387604D01*
X99376937Y-158387926D01*
X99376493Y-158388274D01*
X99375643Y-158389044D01*
X99374844Y-158389904D01*
X99374091Y-158390840D01*
X99373381Y-158391842D01*
X99372710Y-158392899D01*
X99372074Y-158393998D01*
X99371469Y-158395127D01*
X99370890Y-158396276D01*
X99369800Y-158398585D01*
X99368772Y-158400832D01*
X99367774Y-158402923D01*
X99332097Y-158440663D01*
X99296668Y-158478653D01*
X99279124Y-158497820D01*
X99261735Y-158517143D01*
X99244532Y-158536653D01*
X99227546Y-158556381D01*
X98960317Y-158863296D01*
X98849193Y-159000877D01*
X98848231Y-159001899D01*
X98847327Y-159002979D01*
X98846478Y-159004113D01*
X98845679Y-159005298D01*
X98844926Y-159006530D01*
X98844216Y-159007805D01*
X98843545Y-159009118D01*
X98842909Y-159010466D01*
X98842303Y-159011845D01*
X98841725Y-159013252D01*
X98840635Y-159016130D01*
X98839606Y-159019070D01*
X98838609Y-159022041D01*
X98862421Y-159022041D01*
X99044983Y-158984992D01*
X99216963Y-158947952D01*
X99296338Y-158932075D01*
X99362691Y-158918223D01*
X99430284Y-158904621D01*
X99498372Y-158891516D01*
X99566213Y-158879157D01*
X99743484Y-158850051D01*
X99918108Y-158813011D01*
X99938071Y-158809156D01*
X99958251Y-158805488D01*
X99999137Y-158798461D01*
X100040520Y-158791435D01*
X100082150Y-158783912D01*
X100103983Y-158779714D01*
X100125847Y-158775144D01*
X100169792Y-158765385D01*
X100214234Y-158755628D01*
X100236718Y-158751059D01*
X100259420Y-158746864D01*
X100431400Y-158717765D01*
X100453109Y-158713676D01*
X100474601Y-158709369D01*
X100517059Y-158700231D01*
X100559020Y-158690598D01*
X100600733Y-158680717D01*
X100644059Y-158672781D01*
X100665101Y-158668811D01*
X100685399Y-158664840D01*
X100949983Y-158614570D01*
X101124607Y-158585471D01*
X101126592Y-158585411D01*
X101128576Y-158585239D01*
X101130560Y-158584966D01*
X101132545Y-158584604D01*
X101134529Y-158584164D01*
X101136514Y-158583659D01*
X101140482Y-158582497D01*
X101148420Y-158579894D01*
X101152389Y-158578638D01*
X101154373Y-158578062D01*
X101156357Y-158577537D01*
X101159318Y-158576599D01*
X101162248Y-158575769D01*
X101165145Y-158575049D01*
X101168010Y-158574440D01*
X101170843Y-158573940D01*
X101173641Y-158573552D01*
X101176406Y-158573275D01*
X101179136Y-158573111D01*
X101181832Y-158573058D01*
X101184492Y-158573119D01*
X101187116Y-158573293D01*
X101189704Y-158573581D01*
X101192255Y-158573983D01*
X101194769Y-158574500D01*
X101197245Y-158575132D01*
X101199683Y-158575880D01*
X101202082Y-158576745D01*
X101204442Y-158577726D01*
X101206762Y-158578825D01*
X101209042Y-158580041D01*
X101211281Y-158581375D01*
X101213479Y-158582829D01*
X101215635Y-158584401D01*
X101217749Y-158586093D01*
X101219821Y-158587905D01*
X101221849Y-158589838D01*
X101223834Y-158591892D01*
X101225775Y-158594068D01*
X101227671Y-158596365D01*
X101229522Y-158598786D01*
X101231327Y-158601329D01*
X101233087Y-158603996D01*
X101235741Y-158609283D01*
X101237370Y-158611988D01*
X101238788Y-158614646D01*
X101240002Y-158617258D01*
X101241017Y-158619823D01*
X101241841Y-158622342D01*
X101242479Y-158624815D01*
X101242938Y-158627241D01*
X101243224Y-158629620D01*
X101243343Y-158631953D01*
X101243302Y-158634240D01*
X101243107Y-158636480D01*
X101242764Y-158638674D01*
X101242280Y-158640821D01*
X101241660Y-158642922D01*
X101240912Y-158644976D01*
X101240041Y-158646983D01*
X101239053Y-158648945D01*
X101237956Y-158650859D01*
X101236755Y-158652728D01*
X101235457Y-158654549D01*
X101234068Y-158656325D01*
X101232593Y-158658053D01*
X101231041Y-158659736D01*
X101229416Y-158661371D01*
X101225975Y-158664503D01*
X101222321Y-158667449D01*
X101218504Y-158670209D01*
X101214574Y-158672782D01*
X101155084Y-158706556D01*
X101095842Y-158740580D01*
X101037097Y-158775100D01*
X100979095Y-158810363D01*
X100751553Y-158947944D01*
X100561053Y-159059066D01*
X100503093Y-159093257D01*
X100444636Y-159128190D01*
X100386180Y-159163619D01*
X100328220Y-159199294D01*
X100229332Y-159254862D01*
X100180508Y-159282644D01*
X100132428Y-159310424D01*
X100026594Y-159376571D01*
X99748782Y-159540611D01*
X99576802Y-159641158D01*
X99514831Y-159678861D01*
X99452117Y-159716564D01*
X99325447Y-159791969D01*
X99245411Y-159842243D01*
X99224937Y-159854345D01*
X99214587Y-159860114D01*
X99204153Y-159865641D01*
X99193625Y-159870890D01*
X99182996Y-159875821D01*
X99172259Y-159880395D01*
X99161406Y-159884574D01*
X99158639Y-159885475D01*
X99155799Y-159886197D01*
X99152889Y-159886748D01*
X99149913Y-159887134D01*
X99143779Y-159887443D01*
X99137428Y-159887182D01*
X99130891Y-159886409D01*
X99124199Y-159885182D01*
X99117383Y-159883560D01*
X99110473Y-159881601D01*
X99103502Y-159879362D01*
X99096500Y-159876903D01*
X99082527Y-159871554D01*
X99055572Y-159860763D01*
X98989674Y-159836497D01*
X98923281Y-159811486D01*
X98856887Y-159785978D01*
X98790989Y-159760223D01*
X98737824Y-159739923D01*
X98685156Y-159718877D01*
X98579322Y-159675552D01*
X98448354Y-159624289D01*
X98382869Y-159599277D01*
X98317384Y-159575012D01*
X98314455Y-159573957D01*
X98311621Y-159572783D01*
X98308886Y-159571493D01*
X98306253Y-159570090D01*
X98303725Y-159568579D01*
X98301304Y-159566963D01*
X98298993Y-159565247D01*
X98296796Y-159563433D01*
X98294716Y-159561527D01*
X98292754Y-159559531D01*
X98290915Y-159557451D01*
X98289200Y-159555289D01*
X98287613Y-159553049D01*
X98286158Y-159550736D01*
X98284836Y-159548353D01*
X98283650Y-159545904D01*
X98282604Y-159543394D01*
X98281701Y-159540825D01*
X98280942Y-159538202D01*
X98280332Y-159535529D01*
X98279874Y-159532809D01*
X98279569Y-159530046D01*
X98279421Y-159527245D01*
X98279433Y-159524409D01*
X98279608Y-159521542D01*
X98279949Y-159518648D01*
X98280458Y-159515730D01*
X98281139Y-159512794D01*
X98281994Y-159509841D01*
X98283026Y-159506877D01*
X98284239Y-159503906D01*
X98285634Y-159500930D01*
X98360711Y-159347469D01*
X98397628Y-159270988D01*
X98433802Y-159194007D01*
X98534344Y-158974410D01*
X98537407Y-158967989D01*
X98540617Y-158961619D01*
X98547325Y-158948983D01*
X98554156Y-158936410D01*
X98560801Y-158923806D01*
X98563957Y-158917463D01*
X98566951Y-158911077D01*
X98569743Y-158904637D01*
X98572294Y-158898132D01*
X98574567Y-158891548D01*
X98576521Y-158884875D01*
X98578119Y-158878102D01*
X98579322Y-158871215D01*
X98580133Y-158864736D01*
X98580599Y-158858199D01*
X98580747Y-158851607D01*
X98580604Y-158844965D01*
X98580198Y-158838277D01*
X98579555Y-158831545D01*
X98578703Y-158824775D01*
X98577669Y-158817971D01*
X98575162Y-158804272D01*
X98572253Y-158790480D01*
X98566094Y-158762740D01*
X98565012Y-158756290D01*
X98563768Y-158749836D01*
X98560885Y-158736901D01*
X98557629Y-158723905D01*
X98554187Y-158710816D01*
X98550745Y-158697603D01*
X98547490Y-158684234D01*
X98544606Y-158670679D01*
X98543362Y-158663822D01*
X98542281Y-158656906D01*
X98530044Y-158556362D01*
X98523306Y-158505841D01*
X98515823Y-158455818D01*
X98507431Y-158408610D01*
X98498294Y-158361895D01*
X98478781Y-158267967D01*
X98468198Y-158196533D01*
X98467160Y-158192778D01*
X98466035Y-158189438D01*
X98464829Y-158186497D01*
X98463547Y-158183934D01*
X98462195Y-158181731D01*
X98460780Y-158179871D01*
X98459306Y-158178334D01*
X98457780Y-158177103D01*
X98456207Y-158176158D01*
X98454594Y-158175482D01*
X98452946Y-158175056D01*
X98451269Y-158174861D01*
X98449568Y-158174880D01*
X98447850Y-158175093D01*
X98446121Y-158175483D01*
X98444385Y-158176030D01*
X98442650Y-158176718D01*
X98440921Y-158177526D01*
X98439203Y-158178437D01*
X98437502Y-158179432D01*
X98434177Y-158181602D01*
X98430991Y-158183888D01*
X98425224Y-158188218D01*
X98422735Y-158189968D01*
X98420573Y-158191245D01*
X98319783Y-158257188D01*
X98219489Y-158323872D01*
X98018406Y-158458473D01*
X98005394Y-158467283D01*
X97992196Y-158475877D01*
X97978874Y-158484286D01*
X97965489Y-158492539D01*
X97912572Y-158524619D01*
X97910047Y-158526218D01*
X97907440Y-158527544D01*
X97904760Y-158528606D01*
X97902020Y-158529411D01*
X97899229Y-158529966D01*
X97896399Y-158530278D01*
X97893540Y-158530355D01*
X97890662Y-158530203D01*
X97887776Y-158529831D01*
X97884893Y-158529245D01*
X97882024Y-158528452D01*
X97879179Y-158527460D01*
X97876369Y-158526277D01*
X97873605Y-158524909D01*
X97870896Y-158523363D01*
X97868255Y-158521648D01*
X97865691Y-158519769D01*
X97863215Y-158517736D01*
X97860838Y-158515553D01*
X97858571Y-158513230D01*
X97856423Y-158510773D01*
X97854407Y-158508190D01*
X97852532Y-158505487D01*
X97850809Y-158502673D01*
X97849249Y-158499753D01*
X97847862Y-158496736D01*
X97846659Y-158493630D01*
X97845652Y-158490440D01*
X97844849Y-158487174D01*
X97844263Y-158483840D01*
X97843903Y-158480446D01*
X97843781Y-158476997D01*
X97843781Y-158207130D01*
X97849403Y-157918735D01*
X97857010Y-157630340D01*
X97864617Y-157483494D01*
X97867800Y-157410074D01*
X97870239Y-157336654D01*
X97870208Y-157335639D01*
X97870117Y-157334581D01*
X97869968Y-157333484D01*
X97869763Y-157332353D01*
X97869192Y-157330001D01*
X97868420Y-157327556D01*
X97867461Y-157325049D01*
X97866332Y-157322512D01*
X97865048Y-157319974D01*
X97863624Y-157317468D01*
X97862077Y-157315024D01*
X97860420Y-157312672D01*
X97858671Y-157310445D01*
X97856844Y-157308373D01*
X97854955Y-157306487D01*
X97853993Y-157305623D01*
X97853020Y-157304817D01*
X97852040Y-157304073D01*
X97851054Y-157303396D01*
X97850064Y-157302788D01*
X97849072Y-157302253D01*
X97713804Y-157231149D01*
X97645550Y-157196216D01*
X97576552Y-157162025D01*
X97518136Y-157134286D01*
X97458481Y-157106795D01*
X97398329Y-157079800D01*
X97338426Y-157053550D01*
X97335887Y-157052648D01*
X97333248Y-157051929D01*
X97330531Y-157051388D01*
X97327759Y-157051022D01*
X97324957Y-157050827D01*
X97322147Y-157050799D01*
X97319353Y-157050933D01*
X97316597Y-157051227D01*
X97313903Y-157051676D01*
X97311295Y-157052276D01*
X97308795Y-157053024D01*
X97306427Y-157053915D01*
X97304214Y-157054946D01*
X97302180Y-157056112D01*
X97301236Y-157056745D01*
X97300346Y-157057411D01*
X97299513Y-157058108D01*
X97298738Y-157058837D01*
X97079133Y-157304893D01*
X96965694Y-157430575D01*
X96909842Y-157493166D01*
X96854238Y-157556251D01*
X96832301Y-157581821D01*
X96810210Y-157607019D01*
X96765933Y-157656795D01*
X96722153Y-157706570D01*
X96700682Y-157731769D01*
X96679613Y-157757339D01*
X96669175Y-157770357D01*
X96658116Y-157783592D01*
X96647058Y-157797012D01*
X96641722Y-157803782D01*
X96636619Y-157810587D01*
X96631826Y-157817423D01*
X96627420Y-157824286D01*
X96623480Y-157831173D01*
X96620082Y-157838079D01*
X96618611Y-157841538D01*
X96617305Y-157845000D01*
X96616173Y-157848466D01*
X96615225Y-157851934D01*
X96614470Y-157855404D01*
X96613920Y-157858875D01*
X96613582Y-157862348D01*
X96613468Y-157865821D01*
X96613292Y-157905509D01*
X96614543Y-157945197D01*
X96616909Y-157984886D01*
X96620082Y-158024574D01*
X96627606Y-158103950D01*
X96631337Y-158143638D01*
X96634634Y-158183326D01*
X96635745Y-158200080D01*
X96637073Y-158216647D01*
X96640257Y-158249469D01*
X96643936Y-158282291D01*
X96647864Y-158315612D01*
X96674322Y-158633117D01*
X96678249Y-158666439D01*
X96681929Y-158699264D01*
X96685112Y-158732088D01*
X96686439Y-158748656D01*
X96687550Y-158765411D01*
X96714009Y-159082916D01*
X96727237Y-159138473D01*
X96728091Y-159143846D01*
X96728674Y-159149053D01*
X96728993Y-159154099D01*
X96729056Y-159158989D01*
X96728872Y-159163729D01*
X96728447Y-159168321D01*
X96727789Y-159172772D01*
X96726907Y-159177087D01*
X96725807Y-159181270D01*
X96724499Y-159185325D01*
X96722988Y-159189259D01*
X96721284Y-159193075D01*
X96719394Y-159196779D01*
X96717326Y-159200376D01*
X96715087Y-159203869D01*
X96712685Y-159207265D01*
X96710129Y-159210568D01*
X96707425Y-159213783D01*
X96701606Y-159219967D01*
X96695291Y-159225856D01*
X96688542Y-159231490D01*
X96681421Y-159236906D01*
X96673990Y-159242145D01*
X96666311Y-159247244D01*
X96658446Y-159252242D01*
X96653049Y-159255746D01*
X96647769Y-159259308D01*
X96642598Y-159262924D01*
X96637527Y-159266590D01*
X96627657Y-159274059D01*
X96618097Y-159281682D01*
X96608785Y-159289429D01*
X96599659Y-159297269D01*
X96581717Y-159313102D01*
X96393863Y-159471855D01*
X96329908Y-159523448D01*
X96265209Y-159575038D01*
X96134571Y-159678222D01*
X96052550Y-159749664D01*
X96049822Y-159752059D01*
X96047095Y-159754284D01*
X96044373Y-159756338D01*
X96041656Y-159758221D01*
X96038947Y-159759934D01*
X96036248Y-159761477D01*
X96033561Y-159762849D01*
X96030887Y-159764050D01*
X96028228Y-159765081D01*
X96025588Y-159765942D01*
X96022966Y-159766631D01*
X96020366Y-159767151D01*
X96017789Y-159767499D01*
X96015237Y-159767677D01*
X96012712Y-159767685D01*
X96010216Y-159767522D01*
X96007752Y-159767189D01*
X96005320Y-159766685D01*
X96002923Y-159766010D01*
X96000563Y-159765165D01*
X95998242Y-159764149D01*
X95995961Y-159762963D01*
X95993724Y-159761607D01*
X95991530Y-159760079D01*
X95989383Y-159758381D01*
X95987285Y-159756513D01*
X95985237Y-159754474D01*
X95983241Y-159752265D01*
X95981300Y-159749885D01*
X95979415Y-159747334D01*
X95977588Y-159744613D01*
X95975821Y-159741721D01*
X95953662Y-159701537D01*
X95931503Y-159660361D01*
X95920734Y-159639401D01*
X95910336Y-159618193D01*
X95900435Y-159596737D01*
X95891154Y-159575034D01*
X95874633Y-159535112D01*
X95858701Y-159494788D01*
X95827984Y-159413305D01*
X95797764Y-159331327D01*
X95766799Y-159249595D01*
X95700653Y-159090843D01*
X95677255Y-159031266D01*
X95654352Y-158971444D01*
X95608050Y-158850067D01*
X95585477Y-158792521D01*
X95562409Y-158734977D01*
X95551154Y-158706205D01*
X95540333Y-158677433D01*
X95530132Y-158648661D01*
X95520737Y-158619888D01*
X95520062Y-158617881D01*
X95519520Y-158615830D01*
X95519106Y-158613737D01*
X95518815Y-158611604D01*
X95518639Y-158609435D01*
X95518574Y-158607232D01*
X95518753Y-158602731D01*
X95519303Y-158598122D01*
X95520179Y-158593423D01*
X95521334Y-158588655D01*
X95522721Y-158583836D01*
X95524295Y-158578986D01*
X95526008Y-158574125D01*
X95529667Y-158564444D01*
X95533325Y-158554951D01*
X95536612Y-158545799D01*
X95637153Y-158257408D01*
X95661421Y-158186382D01*
X95686432Y-158115853D01*
X95737695Y-157974304D01*
X95806486Y-157765273D01*
X95877924Y-157556251D01*
X95952007Y-157341941D01*
X95987726Y-157236437D01*
X96023445Y-157132919D01*
X96059494Y-157021796D01*
X96078139Y-156966232D01*
X96097528Y-156910667D01*
X96111460Y-156870980D01*
X96125640Y-156831294D01*
X96140316Y-156791609D01*
X96155736Y-156751922D01*
X96156879Y-156749415D01*
X96158305Y-156746873D01*
X96159986Y-156744323D01*
X96161896Y-156741793D01*
X96164008Y-156739309D01*
X96166294Y-156736899D01*
X96168727Y-156734589D01*
X96171281Y-156732408D01*
X96173927Y-156730381D01*
X96176639Y-156728537D01*
X96179391Y-156726902D01*
X96182153Y-156725503D01*
X96184901Y-156724368D01*
X96186260Y-156723908D01*
X96187605Y-156723524D01*
X96188933Y-156723219D01*
X96190240Y-156722997D01*
X96191523Y-156722862D01*
X96192778Y-156722816D01*
X96209531Y-156719964D01*
X96226099Y-156717361D01*
X96242542Y-156715006D01*
X96258924Y-156712899D01*
X96275305Y-156711039D01*
X96291749Y-156709427D01*
X96308316Y-156708063D01*
X96325070Y-156706947D01*
X96481174Y-156694706D01*
X96559474Y-156687966D01*
X96637278Y-156680480D01*
X96891278Y-156654022D01*
X97166444Y-156627563D01*
X97409861Y-156601104D01*
X97543475Y-156588868D01*
X97610034Y-156582128D01*
X97677089Y-156574645D01*
X97677585Y-156574623D01*
X97678081Y-156574556D01*
X97678577Y-156574447D01*
X97679074Y-156574299D01*
X97679570Y-156574114D01*
X97680066Y-156573895D01*
X97680562Y-156573644D01*
X97681058Y-156573363D01*
X97682050Y-156572723D01*
X97683043Y-156571993D01*
X97684035Y-156571193D01*
X97685027Y-156570343D01*
X97687011Y-156568570D01*
X97688996Y-156566827D01*
X97689988Y-156566016D01*
X97690980Y-156565271D01*
X97691973Y-156564611D01*
X97692469Y-156564319D01*
X97692965Y-156564056D01*
X97691973Y-156563530D01*
X97690980Y-156562955D01*
X97689988Y-156562340D01*
X97688996Y-156561699D01*
X97687011Y-156560382D01*
X97685027Y-156559096D01*
X97684035Y-156558493D01*
X97683043Y-156557934D01*
X97682050Y-156557428D01*
X97681058Y-156556989D01*
X97680066Y-156556627D01*
X97679570Y-156556478D01*
X97679074Y-156556354D01*
X97678577Y-156556254D01*
X97678081Y-156556181D01*
X97677585Y-156556136D01*
X97677089Y-156556121D01*
X97603667Y-156538717D01*
X97530245Y-156522055D01*
X97383401Y-156489974D01*
X97343755Y-156482455D01*
X97304357Y-156475428D01*
X97265455Y-156468400D01*
X97246268Y-156464731D01*
X97227297Y-156460876D01*
X97028860Y-156410606D01*
X97010882Y-156406751D01*
X96992687Y-156403083D01*
X96955769Y-156396056D01*
X96918355Y-156389027D01*
X96880693Y-156381500D01*
X96860968Y-156377418D01*
X96841460Y-156373149D01*
X96802971Y-156364303D01*
X96764978Y-156355456D01*
X96727234Y-156347106D01*
X96584359Y-156315360D01*
X96544258Y-156305475D01*
X96503661Y-156295841D01*
X96463064Y-156286704D01*
X96422963Y-156278312D01*
X96288026Y-156249214D01*
X96268183Y-156245124D01*
X96248339Y-156240818D01*
X96208651Y-156231679D01*
X96168964Y-156222046D01*
X96129277Y-156212165D01*
X95978464Y-156183067D01*
X95883213Y-156162889D01*
X95835588Y-156152183D01*
X95787963Y-156140731D01*
X95784336Y-156139640D01*
X95780895Y-156138357D01*
X95777643Y-156136892D01*
X95774579Y-156135254D01*
X95771706Y-156133454D01*
X95769023Y-156131500D01*
X95766532Y-156129403D01*
X95764234Y-156127173D01*
X95762129Y-156124818D01*
X95760220Y-156122349D01*
X95758506Y-156119776D01*
X95756989Y-156117107D01*
X95755669Y-156114353D01*
X95754548Y-156111524D01*
X95753627Y-156108628D01*
X95752906Y-156105677D01*
X95752387Y-156102679D01*
X95752070Y-156099644D01*
X95751957Y-156096582D01*
X95752049Y-156093503D01*
X95752345Y-156090416D01*
X95752848Y-156087330D01*
X95753559Y-156084257D01*
X95754477Y-156081204D01*
X95755605Y-156078183D01*
X95756944Y-156075202D01*
X95758493Y-156072272D01*
X95760255Y-156069402D01*
X95762230Y-156066601D01*
X95764419Y-156063880D01*
X95766823Y-156061248D01*
X95769443Y-156058715D01*
X95975817Y-155878799D01*
X95977741Y-155877249D01*
X95979553Y-155875583D01*
X95981265Y-155873809D01*
X95982887Y-155871933D01*
X95984431Y-155869965D01*
X95985910Y-155867912D01*
X95987334Y-155865781D01*
X95988716Y-155863581D01*
X95999630Y-155844398D01*
X95993677Y-155844289D01*
X95987724Y-155844026D01*
X95975818Y-155843405D01*
X95969864Y-155843234D01*
X95966888Y-155843225D01*
X95963911Y-155843281D01*
X95960935Y-155843415D01*
X95957958Y-155843638D01*
X95954981Y-155843962D01*
X95952005Y-155844398D01*
X95922126Y-155851575D01*
X95892060Y-155859155D01*
X95831620Y-155875155D01*
X95711234Y-155907897D01*
X95665594Y-155921334D01*
X95619954Y-155934025D01*
X95528673Y-155958167D01*
X95354047Y-156000503D01*
X95308406Y-156013940D01*
X95262765Y-156026631D01*
X95171484Y-156050773D01*
X95080203Y-156070951D01*
X95034562Y-156081657D01*
X94988922Y-156093109D01*
X94947250Y-156103489D01*
X94905578Y-156114610D01*
X94863906Y-156126226D01*
X94822235Y-156138091D01*
X94806241Y-156142936D01*
X94790030Y-156147562D01*
X94773633Y-156152001D01*
X94757081Y-156156284D01*
X94723636Y-156164508D01*
X94689943Y-156172485D01*
X94673960Y-156176130D01*
X94657821Y-156179309D01*
X94625451Y-156185386D01*
X94609405Y-156188843D01*
X94601458Y-156190798D01*
X94593577Y-156192951D01*
X94585773Y-156195337D01*
X94578058Y-156197990D01*
X94570444Y-156200945D01*
X94562943Y-156204238D01*
X94559516Y-156205875D01*
X94556181Y-156207314D01*
X94552935Y-156208561D01*
X94549776Y-156209619D01*
X94546702Y-156210493D01*
X94543711Y-156211187D01*
X94540802Y-156211706D01*
X94537973Y-156212053D01*
X94535221Y-156212234D01*
X94532544Y-156212253D01*
X94529941Y-156212114D01*
X94527410Y-156211821D01*
X94524949Y-156211379D01*
X94522555Y-156210792D01*
X94520227Y-156210065D01*
X94517964Y-156209201D01*
X94515762Y-156208206D01*
X94513620Y-156207083D01*
X94511537Y-156205837D01*
X94509509Y-156204473D01*
X94507536Y-156202994D01*
X94505616Y-156201405D01*
X94503745Y-156199710D01*
X94501923Y-156197915D01*
X94500148Y-156196022D01*
X94498417Y-156194037D01*
X94495081Y-156189806D01*
X94491901Y-156185258D01*
X94488860Y-156180427D01*
X94487479Y-156177722D01*
X94486309Y-156175064D01*
X94485343Y-156172452D01*
X94484576Y-156169887D01*
X94484000Y-156167368D01*
X94483610Y-156164895D01*
X94483399Y-156162469D01*
X94483361Y-156160090D01*
X94483490Y-156157757D01*
X94483779Y-156155470D01*
X94484222Y-156153230D01*
X94484813Y-156151036D01*
X94485546Y-156148889D01*
X94486413Y-156146788D01*
X94487410Y-156144734D01*
X94488529Y-156142726D01*
X94489764Y-156140765D01*
X94491110Y-156138850D01*
X94492559Y-156136982D01*
X94494105Y-156135160D01*
X94495742Y-156133385D01*
X94497464Y-156131656D01*
X94501138Y-156128338D01*
X94505075Y-156125207D01*
X94509225Y-156122261D01*
X94513538Y-156119501D01*
X94517964Y-156116927D01*
X94846047Y-155942306D01*
X95258797Y-155717407D01*
X95544547Y-155558654D01*
X95957297Y-155331115D01*
X96024311Y-155294984D01*
X96090581Y-155258357D01*
X96221880Y-155185600D01*
X96403119Y-155084063D01*
X96584359Y-154984512D01*
X96585644Y-154983799D01*
X96587017Y-154983147D01*
X96588470Y-154982557D01*
X96589997Y-154982027D01*
X96593248Y-154981146D01*
X96596720Y-154980502D01*
X96600362Y-154980091D01*
X96604125Y-154979908D01*
X96607958Y-154979949D01*
D13*
G36*
X92194658Y-95513454D02*
G01*
X93649689Y-95513454D01*
X93649689Y-95195200D01*
X92540270Y-95195200D01*
X92540270Y-93226496D01*
X92194658Y-93226496D01*
X92194658Y-95513454D01*
G37*
G36*
X93974643Y-95513454D02*
G01*
X95429675Y-95513454D01*
X95429675Y-95195200D01*
X94320255Y-95195200D01*
X94320255Y-94509560D01*
X95267198Y-94509560D01*
X95267198Y-94194656D01*
X94320255Y-94194656D01*
X94320255Y-93544750D01*
X95429675Y-93544750D01*
X95429675Y-93226496D01*
X93974643Y-93226496D01*
X93974643Y-95513454D01*
G37*
G36*
X95754628Y-95513454D02*
G01*
X96100240Y-95513454D01*
X96100240Y-93890920D01*
X96106382Y-93890920D01*
X97135959Y-95513454D01*
X97462588Y-95513454D01*
X97462588Y-93226496D01*
X97117534Y-93226496D01*
X97117534Y-94851822D01*
X97111392Y-94851822D01*
X96079581Y-93226496D01*
X95754628Y-93226496D01*
X95754628Y-95513454D01*
G37*
G36*
X98682559Y-94581027D02*
G01*
X99146538Y-94581027D01*
X99146538Y-94702187D01*
X99145620Y-94729214D01*
X99143703Y-94755578D01*
X99140787Y-94781279D01*
X99136872Y-94806317D01*
X99131958Y-94830692D01*
X99126046Y-94854404D01*
X99119134Y-94877453D01*
X99111223Y-94899839D01*
X99102314Y-94921562D01*
X99092406Y-94942622D01*
X99081498Y-94963018D01*
X99069592Y-94982752D01*
X99056687Y-95001823D01*
X99042783Y-95020231D01*
X99027880Y-95037975D01*
X99011979Y-95055057D01*
X98995303Y-95072028D01*
X98978077Y-95087903D01*
X98960302Y-95102684D01*
X98941977Y-95116370D01*
X98923102Y-95128961D01*
X98903678Y-95140457D01*
X98883705Y-95150858D01*
X98863181Y-95160164D01*
X98842108Y-95168376D01*
X98820486Y-95175493D01*
X98798314Y-95181514D01*
X98775592Y-95186441D01*
X98752320Y-95190273D01*
X98728499Y-95193010D01*
X98704129Y-95194653D01*
X98679209Y-95195200D01*
X98656686Y-95194749D01*
X98627587Y-95192742D01*
X98599552Y-95189130D01*
X98572582Y-95183913D01*
X98546676Y-95177091D01*
X98521834Y-95168664D01*
X98498056Y-95158631D01*
X98475343Y-95146993D01*
X98469831Y-95143833D01*
X98448039Y-95132535D01*
X98427328Y-95120418D01*
X98407699Y-95107480D01*
X98389151Y-95093722D01*
X98371686Y-95079144D01*
X98355302Y-95063746D01*
X98336344Y-95043346D01*
X98325780Y-95030490D01*
X98309736Y-95011629D01*
X98295106Y-94991337D01*
X98281889Y-94969614D01*
X98270086Y-94946460D01*
X98259695Y-94921876D01*
X98250718Y-94895861D01*
X98243154Y-94868415D01*
X98237004Y-94839538D01*
X98232514Y-94815550D01*
X98228465Y-94787763D01*
X98224858Y-94756178D01*
X98222699Y-94733012D01*
X98220736Y-94708157D01*
X98218970Y-94681614D01*
X98217399Y-94653383D01*
X98216025Y-94623464D01*
X98214848Y-94591856D01*
X98213866Y-94558561D01*
X98213081Y-94523578D01*
X98212492Y-94486906D01*
X98212100Y-94448546D01*
X98211903Y-94408499D01*
X98211879Y-94387842D01*
X98211977Y-94346937D01*
X98212271Y-94307694D01*
X98212762Y-94270113D01*
X98213449Y-94234194D01*
X98214332Y-94199937D01*
X98215412Y-94167341D01*
X98216688Y-94136408D01*
X98218160Y-94107137D01*
X98219828Y-94079527D01*
X98221693Y-94053580D01*
X98223754Y-94029294D01*
X98226012Y-94006671D01*
X98229766Y-93975851D01*
X98233961Y-93948771D01*
X98237004Y-93932795D01*
X98243154Y-93904704D01*
X98250718Y-93877939D01*
X98259695Y-93852499D01*
X98270086Y-93828386D01*
X98281889Y-93805599D01*
X98295106Y-93784138D01*
X98309736Y-93764002D01*
X98325780Y-93745193D01*
X98343724Y-93723942D01*
X98359297Y-93707746D01*
X98375951Y-93692265D01*
X98393687Y-93677500D01*
X98412505Y-93663450D01*
X98432404Y-93650115D01*
X98453385Y-93637496D01*
X98469831Y-93628501D01*
X98492278Y-93617979D01*
X98515790Y-93608749D01*
X98540365Y-93600810D01*
X98566005Y-93594163D01*
X98592710Y-93588806D01*
X98620478Y-93584741D01*
X98649311Y-93581966D01*
X98671634Y-93580733D01*
X98679209Y-93580483D01*
X98709859Y-93581877D01*
X98739627Y-93584802D01*
X98768511Y-93589258D01*
X98796512Y-93595244D01*
X98823630Y-93602762D01*
X98849864Y-93611811D01*
X98875215Y-93622392D01*
X98899683Y-93634503D01*
X98923267Y-93648145D01*
X98945968Y-93663318D01*
X98960611Y-93674284D01*
X98980741Y-93692535D01*
X98999673Y-93711482D01*
X99017408Y-93731125D01*
X99033946Y-93751466D01*
X99049286Y-93772504D01*
X99063429Y-93794238D01*
X99076374Y-93816669D01*
X99088122Y-93839797D01*
X99098673Y-93863622D01*
X99108026Y-93888144D01*
X99113596Y-93904878D01*
X99479309Y-93904878D01*
X99471871Y-93869300D01*
X99463239Y-93834449D01*
X99453411Y-93800327D01*
X99442388Y-93766934D01*
X99430170Y-93734269D01*
X99416757Y-93702332D01*
X99402149Y-93671124D01*
X99386345Y-93640644D01*
X99369346Y-93610893D01*
X99351152Y-93581870D01*
X99331763Y-93553576D01*
X99311179Y-93526010D01*
X99289399Y-93499173D01*
X99266424Y-93473064D01*
X99242254Y-93447684D01*
X99216889Y-93423032D01*
X99190449Y-93399625D01*
X99163053Y-93377702D01*
X99134702Y-93357261D01*
X99105396Y-93338304D01*
X99075134Y-93320829D01*
X99043917Y-93304838D01*
X99011745Y-93290330D01*
X98978618Y-93277305D01*
X98944535Y-93265763D01*
X98909497Y-93255704D01*
X98873504Y-93247129D01*
X98836555Y-93240036D01*
X98798652Y-93234427D01*
X98759793Y-93230300D01*
X98719978Y-93227657D01*
X98679209Y-93226496D01*
X98645985Y-93227391D01*
X98613455Y-93229236D01*
X98581619Y-93232032D01*
X98550476Y-93235779D01*
X98520027Y-93240477D01*
X98490272Y-93246125D01*
X98461210Y-93252725D01*
X98432841Y-93260276D01*
X98405167Y-93268777D01*
X98378185Y-93278230D01*
X98351897Y-93288633D01*
X98326303Y-93299988D01*
X98301403Y-93312293D01*
X98277196Y-93325549D01*
X98253682Y-93339756D01*
X98230862Y-93354914D01*
X98208363Y-93370541D01*
X98186649Y-93386434D01*
X98165720Y-93402593D01*
X98145576Y-93419019D01*
X98126217Y-93435710D01*
X98107644Y-93452667D01*
X98089855Y-93469891D01*
X98072852Y-93487380D01*
X98056634Y-93505136D01*
X98041201Y-93523158D01*
X98026554Y-93541445D01*
X98012691Y-93559999D01*
X97999614Y-93578819D01*
X97987322Y-93597905D01*
X97975815Y-93617257D01*
X97965093Y-93636876D01*
X97952661Y-93658485D01*
X97941049Y-93681717D01*
X97930258Y-93706572D01*
X97920286Y-93733050D01*
X97911135Y-93761150D01*
X97904809Y-93783290D01*
X97898945Y-93806342D01*
X97893542Y-93830308D01*
X97888600Y-93855186D01*
X97884409Y-93882732D01*
X97880631Y-93914911D01*
X97878341Y-93938937D01*
X97876234Y-93965022D01*
X97874310Y-93993166D01*
X97872570Y-94023368D01*
X97871013Y-94055630D01*
X97869639Y-94089950D01*
X97868448Y-94126330D01*
X97867440Y-94164768D01*
X97866616Y-94205265D01*
X97865974Y-94247821D01*
X97865516Y-94292436D01*
X97865356Y-94315515D01*
X97865242Y-94339109D01*
X97865173Y-94363218D01*
X97865150Y-94387842D01*
X97865173Y-94412091D01*
X97865242Y-94435844D01*
X97865356Y-94459100D01*
X97865516Y-94481861D01*
X97865974Y-94525893D01*
X97866616Y-94567941D01*
X97867440Y-94608004D01*
X97868448Y-94646082D01*
X97869639Y-94682176D01*
X97871013Y-94716285D01*
X97872570Y-94748409D01*
X97874310Y-94778548D01*
X97876234Y-94806703D01*
X97878341Y-94832873D01*
X97880631Y-94857058D01*
X97883104Y-94879259D01*
X97887158Y-94908838D01*
X97888600Y-94917706D01*
X97892602Y-94940124D01*
X97897837Y-94965406D01*
X97903542Y-94988922D01*
X97909719Y-95010671D01*
X97917521Y-95033812D01*
X97919867Y-95039982D01*
X97928902Y-95060741D01*
X97938417Y-95081982D01*
X97948413Y-95103703D01*
X97958890Y-95125905D01*
X97965093Y-95138808D01*
X97975880Y-95158413D01*
X97987444Y-95177726D01*
X97999784Y-95196747D01*
X98012901Y-95215475D01*
X98026794Y-95233911D01*
X98041463Y-95252055D01*
X98056909Y-95269906D01*
X98073131Y-95287466D01*
X98090130Y-95304733D01*
X98107905Y-95321708D01*
X98126457Y-95338390D01*
X98145785Y-95354780D01*
X98165890Y-95370879D01*
X98186771Y-95386684D01*
X98208428Y-95402198D01*
X98230862Y-95417419D01*
X98253682Y-95432656D01*
X98277196Y-95446959D01*
X98301403Y-95460328D01*
X98326303Y-95472765D01*
X98351897Y-95484267D01*
X98378185Y-95494836D01*
X98405167Y-95504472D01*
X98432841Y-95513174D01*
X98461210Y-95520943D01*
X98490272Y-95527778D01*
X98520027Y-95533680D01*
X98550476Y-95538649D01*
X98581619Y-95542683D01*
X98613455Y-95545785D01*
X98645985Y-95547953D01*
X98679209Y-95549187D01*
X98722362Y-95547538D01*
X98764582Y-95544127D01*
X98805869Y-95538954D01*
X98846222Y-95532018D01*
X98885641Y-95523320D01*
X98924128Y-95512860D01*
X98961680Y-95500638D01*
X98998299Y-95486653D01*
X99033985Y-95470906D01*
X99068737Y-95453397D01*
X99102556Y-95434126D01*
X99135441Y-95413092D01*
X99167393Y-95390296D01*
X99198412Y-95365738D01*
X99228496Y-95339417D01*
X99257648Y-95311335D01*
X99285325Y-95281793D01*
X99311266Y-95251374D01*
X99335471Y-95220079D01*
X99357940Y-95187907D01*
X99378672Y-95154858D01*
X99397669Y-95120932D01*
X99414929Y-95086130D01*
X99430454Y-95050451D01*
X99444242Y-95013895D01*
X99456295Y-94976462D01*
X99466611Y-94938153D01*
X99475191Y-94898966D01*
X99482035Y-94858903D01*
X99487143Y-94817964D01*
X99490515Y-94776147D01*
X99492150Y-94733454D01*
X99492150Y-94266124D01*
X98682559Y-94266124D01*
X98682559Y-94581027D01*
G37*
G36*
X100281084Y-95513454D02*
G01*
X100628371Y-95513454D01*
X100628371Y-93544750D01*
X101251477Y-93544750D01*
X101251477Y-93226496D01*
X99657977Y-93226496D01*
X99657977Y-93544750D01*
X100281084Y-93544750D01*
X100281084Y-95513454D01*
G37*
G36*
X102741126Y-95513454D02*
G01*
X103086738Y-95513454D01*
X103086738Y-93226496D01*
X102741126Y-93226496D01*
X102741126Y-94194656D01*
X101839966Y-94194656D01*
X101839966Y-93226496D01*
X101494355Y-93226496D01*
X101494355Y-95513454D01*
X101839966Y-95513454D01*
X101839966Y-94509560D01*
X102741126Y-94509560D01*
X102741126Y-95513454D01*
G37*
D11*
G36*
X85715944Y-42323369D02*
G01*
X87170975Y-42323369D01*
X87170975Y-41969754D01*
X86061556Y-41969754D01*
X86061556Y-41207931D01*
X87008499Y-41207931D01*
X87008499Y-40858038D01*
X86061556Y-40858038D01*
X86061556Y-40135920D01*
X87170975Y-40135920D01*
X87170975Y-39782305D01*
X85715944Y-39782305D01*
X85715944Y-42323369D01*
G37*
G36*
X87523846Y-41719742D02*
G01*
X87297718Y-42006976D01*
X87320610Y-42028885D01*
X87343779Y-42050097D01*
X87367227Y-42070615D01*
X87390952Y-42090436D01*
X87414956Y-42109563D01*
X87439238Y-42127993D01*
X87463798Y-42145729D01*
X87488636Y-42162768D01*
X87513752Y-42179113D01*
X87539146Y-42194761D01*
X87564818Y-42209715D01*
X87590768Y-42223972D01*
X87616996Y-42237535D01*
X87643503Y-42250402D01*
X87670287Y-42262573D01*
X87697350Y-42274049D01*
X87724690Y-42284829D01*
X87752309Y-42294914D01*
X87780206Y-42304303D01*
X87808381Y-42312997D01*
X87836834Y-42320995D01*
X87865565Y-42328298D01*
X87894574Y-42334905D01*
X87923861Y-42340817D01*
X87953426Y-42346033D01*
X87983270Y-42350554D01*
X88013391Y-42354379D01*
X88043790Y-42357509D01*
X88074468Y-42359943D01*
X88105424Y-42361682D01*
X88136657Y-42362725D01*
X88168169Y-42363073D01*
X88216346Y-42361716D01*
X88263028Y-42358963D01*
X88308215Y-42354814D01*
X88351906Y-42349269D01*
X88394103Y-42342329D01*
X88434805Y-42333992D01*
X88474011Y-42324260D01*
X88511722Y-42313132D01*
X88547939Y-42300608D01*
X88582660Y-42286689D01*
X88615886Y-42271373D01*
X88647617Y-42254662D01*
X88677853Y-42236555D01*
X88706594Y-42217051D01*
X88733839Y-42196152D01*
X88759590Y-42173858D01*
X88783846Y-42150167D01*
X88806606Y-42125081D01*
X88827871Y-42098598D01*
X88847642Y-42070720D01*
X88865917Y-42041446D01*
X88882697Y-42010776D01*
X88897982Y-41978710D01*
X88911772Y-41945249D01*
X88924067Y-41910391D01*
X88934867Y-41874138D01*
X88944172Y-41836489D01*
X88951981Y-41797444D01*
X88958296Y-41757003D01*
X88963115Y-41715167D01*
X88966440Y-41671934D01*
X88968269Y-41627306D01*
X88967676Y-41593985D01*
X88965896Y-41561177D01*
X88962930Y-41528884D01*
X88958777Y-41497104D01*
X88953438Y-41465838D01*
X88946913Y-41435086D01*
X88939201Y-41404847D01*
X88930302Y-41375123D01*
X88920217Y-41345911D01*
X88908946Y-41317214D01*
X88896488Y-41289031D01*
X88882843Y-41261361D01*
X88868012Y-41234205D01*
X88851995Y-41207563D01*
X88834791Y-41181434D01*
X88816401Y-41155819D01*
X88796624Y-41130614D01*
X88775538Y-41106645D01*
X88753143Y-41083911D01*
X88729440Y-41062414D01*
X88704428Y-41042152D01*
X88678107Y-41023127D01*
X88650478Y-41005337D01*
X88621541Y-40988783D01*
X88591294Y-40973465D01*
X88559739Y-40959383D01*
X88526876Y-40946537D01*
X88492704Y-40934926D01*
X88457223Y-40924552D01*
X88420434Y-40915414D01*
X88382336Y-40907511D01*
X88342929Y-40900844D01*
X88313069Y-40896595D01*
X88284415Y-40892455D01*
X88256969Y-40888424D01*
X88230729Y-40884501D01*
X88205697Y-40880688D01*
X88181873Y-40876984D01*
X88159255Y-40873389D01*
X88130976Y-40868765D01*
X88104843Y-40864335D01*
X88086652Y-40861140D01*
X88055746Y-40854136D01*
X88026469Y-40846149D01*
X87998821Y-40837182D01*
X87972803Y-40827233D01*
X87948414Y-40816302D01*
X87925654Y-40804390D01*
X87904523Y-40791497D01*
X87885021Y-40777622D01*
X87861554Y-40757596D01*
X87840982Y-40735824D01*
X87823055Y-40713462D01*
X87807517Y-40690420D01*
X87794370Y-40666701D01*
X87783613Y-40642302D01*
X87775247Y-40617226D01*
X87769271Y-40591470D01*
X87765685Y-40565036D01*
X87764490Y-40537924D01*
X87766060Y-40504633D01*
X87769515Y-40472923D01*
X87774854Y-40442794D01*
X87782078Y-40414246D01*
X87791186Y-40387280D01*
X87802178Y-40361894D01*
X87815055Y-40338091D01*
X87829816Y-40315868D01*
X87846461Y-40295226D01*
X87864991Y-40276166D01*
X87878391Y-40264338D01*
X87898848Y-40248484D01*
X87920227Y-40234189D01*
X87942529Y-40221454D01*
X87965754Y-40210278D01*
X87989901Y-40200661D01*
X88014971Y-40192604D01*
X88040963Y-40186107D01*
X88067878Y-40181169D01*
X88095715Y-40177790D01*
X88124475Y-40175970D01*
X88144161Y-40175624D01*
X88182483Y-40177180D01*
X88220400Y-40180141D01*
X88257911Y-40184508D01*
X88295017Y-40190280D01*
X88331717Y-40197458D01*
X88368011Y-40206042D01*
X88403900Y-40216031D01*
X88439382Y-40227425D01*
X88474460Y-40240225D01*
X88509131Y-40254431D01*
X88543397Y-40270042D01*
X88577257Y-40287059D01*
X88610712Y-40305481D01*
X88643761Y-40325309D01*
X88676404Y-40346543D01*
X88708642Y-40369181D01*
X88900710Y-40048447D01*
X88880956Y-40032711D01*
X88860985Y-40017454D01*
X88840799Y-40002676D01*
X88820397Y-39988377D01*
X88799778Y-39974556D01*
X88778944Y-39961213D01*
X88757894Y-39948350D01*
X88736628Y-39935965D01*
X88715146Y-39924058D01*
X88693449Y-39912630D01*
X88671535Y-39901681D01*
X88649405Y-39891210D01*
X88627060Y-39881218D01*
X88604498Y-39871705D01*
X88581721Y-39862670D01*
X88558727Y-39854114D01*
X88535518Y-39846036D01*
X88512093Y-39838437D01*
X88488452Y-39831317D01*
X88464595Y-39824675D01*
X88440522Y-39818512D01*
X88416233Y-39812827D01*
X88391728Y-39807621D01*
X88367008Y-39802894D01*
X88342071Y-39798645D01*
X88316919Y-39794875D01*
X88291550Y-39791583D01*
X88265966Y-39788770D01*
X88240166Y-39786436D01*
X88214149Y-39784581D01*
X88187917Y-39783203D01*
X88161469Y-39782305D01*
X88117986Y-39783541D01*
X88075755Y-39786318D01*
X88034776Y-39790636D01*
X87995049Y-39796496D01*
X87956574Y-39803897D01*
X87919351Y-39812839D01*
X87883379Y-39823323D01*
X87848660Y-39835347D01*
X87815192Y-39848913D01*
X87782976Y-39864020D01*
X87752012Y-39880669D01*
X87722301Y-39898858D01*
X87693840Y-39918589D01*
X87666632Y-39939861D01*
X87640676Y-39962675D01*
X87615972Y-39987029D01*
X87591970Y-40012889D01*
X87569516Y-40039752D01*
X87548611Y-40067618D01*
X87529255Y-40096487D01*
X87511447Y-40126360D01*
X87495187Y-40157236D01*
X87480476Y-40189115D01*
X87467314Y-40221997D01*
X87455700Y-40255883D01*
X87445635Y-40290772D01*
X87437118Y-40326664D01*
X87430150Y-40363559D01*
X87424730Y-40401458D01*
X87420858Y-40440360D01*
X87418536Y-40480265D01*
X87417761Y-40521174D01*
X87418379Y-40555355D01*
X87420230Y-40588882D01*
X87423316Y-40621755D01*
X87427637Y-40653973D01*
X87433192Y-40685537D01*
X87439982Y-40716447D01*
X87448005Y-40746703D01*
X87457264Y-40776304D01*
X87467757Y-40805251D01*
X87479484Y-40833543D01*
X87492446Y-40861182D01*
X87506642Y-40888165D01*
X87522073Y-40914495D01*
X87538738Y-40940170D01*
X87556637Y-40965192D01*
X87575771Y-40989558D01*
X87595444Y-41012457D01*
X87616216Y-41034313D01*
X87638087Y-41055127D01*
X87661058Y-41074899D01*
X87685127Y-41093629D01*
X87710296Y-41111317D01*
X87736564Y-41127963D01*
X87763932Y-41143567D01*
X87792398Y-41158129D01*
X87821964Y-41171649D01*
X87852629Y-41184126D01*
X87884393Y-41195562D01*
X87917257Y-41205956D01*
X87951220Y-41215308D01*
X87986282Y-41223617D01*
X88022443Y-41230885D01*
X88052986Y-41235721D01*
X88083057Y-41240460D01*
X88112658Y-41245100D01*
X88141788Y-41249642D01*
X88170446Y-41254085D01*
X88198634Y-41258431D01*
X88226350Y-41262679D01*
X88253595Y-41266828D01*
X88280369Y-41270879D01*
X88306672Y-41274832D01*
X88323946Y-41277413D01*
X88360308Y-41285502D01*
X88394297Y-41295346D01*
X88425913Y-41306944D01*
X88455156Y-41320297D01*
X88482026Y-41335404D01*
X88506523Y-41352266D01*
X88528647Y-41370882D01*
X88548398Y-41391252D01*
X88565776Y-41413377D01*
X88580782Y-41437257D01*
X88593414Y-41462891D01*
X88603674Y-41490280D01*
X88611560Y-41519423D01*
X88617074Y-41550321D01*
X88620215Y-41582973D01*
X88620982Y-41617380D01*
X88618505Y-41659250D01*
X88612607Y-41698475D01*
X88603290Y-41735053D01*
X88590553Y-41768984D01*
X88574396Y-41800270D01*
X88554819Y-41828909D01*
X88531822Y-41854902D01*
X88505406Y-41878248D01*
X88475570Y-41898948D01*
X88442314Y-41917002D01*
X88405638Y-41932410D01*
X88365542Y-41945171D01*
X88322027Y-41955286D01*
X88298986Y-41959351D01*
X88275091Y-41962755D01*
X88250341Y-41965497D01*
X88224736Y-41967578D01*
X88198276Y-41968996D01*
X88170961Y-41969754D01*
X88147612Y-41969284D01*
X88124464Y-41968341D01*
X88101518Y-41966924D01*
X88078774Y-41965033D01*
X88056231Y-41962668D01*
X88033891Y-41959830D01*
X88011752Y-41956518D01*
X87968079Y-41948472D01*
X87925214Y-41938532D01*
X87883155Y-41926696D01*
X87841903Y-41912966D01*
X87801459Y-41897340D01*
X87761821Y-41879819D01*
X87722990Y-41860403D01*
X87684966Y-41839092D01*
X87647750Y-41815886D01*
X87611340Y-41790785D01*
X87575737Y-41763789D01*
X87540941Y-41734898D01*
X87523846Y-41719742D01*
G37*
G36*
X90502027Y-41626685D02*
G01*
X90483449Y-41668229D01*
X90463728Y-41707092D01*
X90442865Y-41743275D01*
X90420858Y-41776778D01*
X90397709Y-41807600D01*
X90373417Y-41835743D01*
X90347982Y-41861205D01*
X90321404Y-41883987D01*
X90293683Y-41904088D01*
X90264820Y-41921510D01*
X90234814Y-41936251D01*
X90203664Y-41948312D01*
X90171372Y-41957693D01*
X90137937Y-41964393D01*
X90103360Y-41968414D01*
X90067639Y-41969754D01*
X90045116Y-41969252D01*
X90016017Y-41967023D01*
X89987982Y-41963010D01*
X89961012Y-41957213D01*
X89935106Y-41949633D01*
X89910264Y-41940269D01*
X89886487Y-41929121D01*
X89863774Y-41916190D01*
X89858262Y-41912679D01*
X89836469Y-41900126D01*
X89815758Y-41886662D01*
X89796129Y-41872287D01*
X89777582Y-41857000D01*
X89760116Y-41840803D01*
X89743732Y-41823694D01*
X89724774Y-41801026D01*
X89714210Y-41786743D01*
X89698167Y-41765785D01*
X89683537Y-41743239D01*
X89670320Y-41719102D01*
X89658516Y-41693376D01*
X89648126Y-41666060D01*
X89639149Y-41637154D01*
X89631585Y-41606659D01*
X89625434Y-41574574D01*
X89620944Y-41547920D01*
X89616896Y-41517046D01*
X89613289Y-41481952D01*
X89611130Y-41456211D01*
X89609167Y-41428594D01*
X89607400Y-41399102D01*
X89605830Y-41367734D01*
X89604456Y-41334491D01*
X89603278Y-41299372D01*
X89602297Y-41262377D01*
X89601511Y-41223506D01*
X89600923Y-41182760D01*
X89600530Y-41140138D01*
X89600334Y-41095641D01*
X89600309Y-41072689D01*
X89600407Y-41027239D01*
X89600702Y-40983636D01*
X89601192Y-40941879D01*
X89601879Y-40901969D01*
X89602763Y-40863905D01*
X89603842Y-40827688D01*
X89605118Y-40793318D01*
X89606590Y-40760794D01*
X89608259Y-40730117D01*
X89610124Y-40701287D01*
X89612185Y-40674303D01*
X89614442Y-40649165D01*
X89618196Y-40614922D01*
X89622392Y-40584833D01*
X89625434Y-40567082D01*
X89631585Y-40535869D01*
X89639149Y-40506130D01*
X89648126Y-40477864D01*
X89658516Y-40451071D01*
X89670320Y-40425752D01*
X89683537Y-40401906D01*
X89698167Y-40379534D01*
X89714210Y-40358635D01*
X89732155Y-40335023D01*
X89747727Y-40317027D01*
X89764381Y-40299826D01*
X89782117Y-40283420D01*
X89800935Y-40267809D01*
X89820835Y-40252992D01*
X89841816Y-40238971D01*
X89858262Y-40228976D01*
X89880709Y-40217286D01*
X89904220Y-40207030D01*
X89928796Y-40198210D01*
X89954436Y-40190823D01*
X89981140Y-40184871D01*
X90008909Y-40180354D01*
X90037742Y-40177272D01*
X90060065Y-40175901D01*
X90067639Y-40175624D01*
X90098290Y-40177183D01*
X90128057Y-40180466D01*
X90156942Y-40185471D01*
X90184943Y-40192200D01*
X90212060Y-40200651D01*
X90238294Y-40210825D01*
X90263645Y-40222723D01*
X90288113Y-40236343D01*
X90311698Y-40251687D01*
X90334399Y-40268753D01*
X90349042Y-40281088D01*
X90369172Y-40301493D01*
X90388104Y-40322694D01*
X90405839Y-40344692D01*
X90422376Y-40367485D01*
X90437716Y-40391075D01*
X90451859Y-40415460D01*
X90464805Y-40440642D01*
X90476553Y-40466619D01*
X90487103Y-40493393D01*
X90496457Y-40520963D01*
X90502027Y-40539785D01*
X90867739Y-40539785D01*
X90860302Y-40500096D01*
X90851669Y-40461211D01*
X90841842Y-40423130D01*
X90830819Y-40385854D01*
X90818601Y-40349383D01*
X90805188Y-40313716D01*
X90790579Y-40278854D01*
X90774776Y-40244796D01*
X90757777Y-40211543D01*
X90739583Y-40179094D01*
X90720194Y-40147450D01*
X90699609Y-40116611D01*
X90677830Y-40086576D01*
X90654855Y-40057345D01*
X90630685Y-40028919D01*
X90605320Y-40001298D01*
X90578879Y-39975216D01*
X90551483Y-39950786D01*
X90523133Y-39928009D01*
X90493826Y-39906884D01*
X90463565Y-39887413D01*
X90432348Y-39869594D01*
X90400176Y-39853428D01*
X90367048Y-39838914D01*
X90332966Y-39826054D01*
X90297928Y-39814846D01*
X90261934Y-39805290D01*
X90224986Y-39797388D01*
X90187082Y-39791138D01*
X90148223Y-39786541D01*
X90108409Y-39783597D01*
X90067639Y-39782305D01*
X90034416Y-39783299D01*
X90001886Y-39785349D01*
X89970050Y-39788455D01*
X89938907Y-39792619D01*
X89908458Y-39797839D01*
X89878702Y-39804115D01*
X89849640Y-39811448D01*
X89821272Y-39819838D01*
X89793597Y-39829284D01*
X89766616Y-39839787D01*
X89740328Y-39851346D01*
X89714734Y-39863962D01*
X89689833Y-39877635D01*
X89665626Y-39892364D01*
X89642113Y-39908149D01*
X89619293Y-39924992D01*
X89596793Y-39942355D01*
X89575079Y-39960014D01*
X89554150Y-39977968D01*
X89534006Y-39996219D01*
X89514648Y-40014765D01*
X89496074Y-40033606D01*
X89478286Y-40052743D01*
X89461283Y-40072176D01*
X89445065Y-40091905D01*
X89429632Y-40111929D01*
X89414984Y-40132248D01*
X89401122Y-40152864D01*
X89388044Y-40173775D01*
X89375752Y-40194982D01*
X89364245Y-40216484D01*
X89353523Y-40238282D01*
X89341091Y-40262292D01*
X89329480Y-40288106D01*
X89318688Y-40315722D01*
X89308717Y-40345142D01*
X89299565Y-40376364D01*
X89293240Y-40400964D01*
X89287375Y-40426578D01*
X89281972Y-40453207D01*
X89277031Y-40480849D01*
X89272840Y-40511456D01*
X89269061Y-40547210D01*
X89266771Y-40573906D01*
X89264664Y-40602889D01*
X89262741Y-40634160D01*
X89261000Y-40667718D01*
X89259443Y-40703565D01*
X89258069Y-40741698D01*
X89256878Y-40782120D01*
X89255871Y-40824829D01*
X89255046Y-40869826D01*
X89254405Y-40917110D01*
X89253947Y-40966682D01*
X89253787Y-40992326D01*
X89253672Y-41018542D01*
X89253603Y-41045329D01*
X89253581Y-41072689D01*
X89253603Y-41099632D01*
X89253672Y-41126024D01*
X89253787Y-41151865D01*
X89253947Y-41177154D01*
X89254405Y-41226079D01*
X89255046Y-41272799D01*
X89255871Y-41317314D01*
X89256878Y-41359623D01*
X89258069Y-41399727D01*
X89259443Y-41437625D01*
X89261000Y-41473319D01*
X89262741Y-41506807D01*
X89264664Y-41538090D01*
X89266771Y-41567168D01*
X89269061Y-41594040D01*
X89271535Y-41618708D01*
X89275588Y-41651574D01*
X89277031Y-41661426D01*
X89281033Y-41686335D01*
X89286267Y-41714427D01*
X89291973Y-41740555D01*
X89298150Y-41764721D01*
X89305951Y-41790433D01*
X89308298Y-41797289D01*
X89317332Y-41820355D01*
X89326847Y-41843955D01*
X89336843Y-41868090D01*
X89347320Y-41892759D01*
X89353523Y-41907096D01*
X89364245Y-41928879D01*
X89375752Y-41950338D01*
X89388044Y-41971472D01*
X89401122Y-41992281D01*
X89414984Y-42012766D01*
X89429632Y-42032926D01*
X89445065Y-42052761D01*
X89461283Y-42072271D01*
X89478286Y-42091457D01*
X89496074Y-42110318D01*
X89514648Y-42128854D01*
X89534006Y-42147065D01*
X89554150Y-42164952D01*
X89575079Y-42182514D01*
X89596793Y-42199751D01*
X89619293Y-42216664D01*
X89642113Y-42233593D01*
X89665626Y-42249485D01*
X89689833Y-42264341D01*
X89714734Y-42278159D01*
X89740328Y-42290939D01*
X89766616Y-42302683D01*
X89793597Y-42313389D01*
X89821272Y-42323058D01*
X89849640Y-42331690D01*
X89878702Y-42339285D01*
X89908458Y-42345843D01*
X89938907Y-42351363D01*
X89970050Y-42355846D01*
X90001886Y-42359292D01*
X90034416Y-42361701D01*
X90067639Y-42363073D01*
X90104457Y-42362333D01*
X90140651Y-42360116D01*
X90176221Y-42356421D01*
X90211167Y-42351247D01*
X90245490Y-42344595D01*
X90279188Y-42336464D01*
X90312264Y-42326856D01*
X90344715Y-42315769D01*
X90376542Y-42303204D01*
X90407746Y-42289161D01*
X90438326Y-42273639D01*
X90468282Y-42256639D01*
X90497615Y-42238161D01*
X90526323Y-42218205D01*
X90554408Y-42196770D01*
X90581869Y-42173858D01*
X90607719Y-42149329D01*
X90632504Y-42123510D01*
X90656224Y-42096403D01*
X90678881Y-42068006D01*
X90700473Y-42038320D01*
X90721000Y-42007345D01*
X90740464Y-41975080D01*
X90758863Y-41941527D01*
X90776198Y-41906684D01*
X90792468Y-41870552D01*
X90807674Y-41833130D01*
X90821816Y-41794420D01*
X90834893Y-41754420D01*
X90846906Y-41713131D01*
X90857855Y-41670553D01*
X90867739Y-41626685D01*
X90502027Y-41626685D01*
G37*
G36*
X92819693Y-42323369D02*
G01*
X92455656Y-42323369D01*
X92279220Y-41763789D01*
X91414911Y-41763789D01*
X91240151Y-42323369D01*
X90874439Y-42323369D01*
X91170795Y-41413896D01*
X91514854Y-41413896D01*
X92180394Y-41413896D01*
X91850974Y-40306523D01*
X91844274Y-40306523D01*
X91514854Y-41413896D01*
X91170795Y-41413896D01*
X91702456Y-39782305D01*
X91991676Y-39782305D01*
X92819693Y-42323369D01*
G37*
G36*
X93063687Y-42323369D02*
G01*
X93409299Y-42323369D01*
X93409299Y-40520553D01*
X93415441Y-40520553D01*
X94445018Y-42323369D01*
X94771646Y-42323369D01*
X94771646Y-39782305D01*
X94426593Y-39782305D01*
X94426593Y-41588222D01*
X94420451Y-41588222D01*
X93388640Y-39782305D01*
X93063687Y-39782305D01*
X93063687Y-42323369D01*
G37*
G36*
X96960336Y-42323369D02*
G01*
X96596299Y-42323369D01*
X96419863Y-41763789D01*
X95555554Y-41763789D01*
X95380794Y-42323369D01*
X95015082Y-42323369D01*
X95311438Y-41413896D01*
X95655497Y-41413896D01*
X96321037Y-41413896D01*
X95991617Y-40306523D01*
X95984917Y-40306523D01*
X95655497Y-41413896D01*
X95311438Y-41413896D01*
X95843099Y-39782305D01*
X96132319Y-39782305D01*
X96960336Y-42323369D01*
G37*
G36*
X98128425Y-39783475D02*
G01*
X98168477Y-39786056D01*
X98207221Y-39790048D01*
X98244655Y-39795449D01*
X98280782Y-39802261D01*
X98315599Y-39810484D01*
X98349108Y-39820116D01*
X98381309Y-39831160D01*
X98412201Y-39843613D01*
X98441784Y-39857477D01*
X98470059Y-39872752D01*
X98497025Y-39889436D01*
X98522682Y-39907531D01*
X98547031Y-39927037D01*
X98570071Y-39947953D01*
X98591803Y-39970279D01*
X98612424Y-39994089D01*
X98631715Y-40018833D01*
X98649676Y-40044514D01*
X98666306Y-40071129D01*
X98681606Y-40098680D01*
X98695575Y-40127167D01*
X98708214Y-40156589D01*
X98719523Y-40186946D01*
X98729501Y-40218238D01*
X98738149Y-40250467D01*
X98745466Y-40283630D01*
X98751453Y-40317729D01*
X98756109Y-40352763D01*
X98759435Y-40388733D01*
X98761431Y-40425638D01*
X98762096Y-40463479D01*
X98762227Y-40483045D01*
X98761344Y-40512194D01*
X98759165Y-40541103D01*
X98755691Y-40569773D01*
X98750921Y-40598202D01*
X98744855Y-40626392D01*
X98737494Y-40654342D01*
X98728838Y-40682051D01*
X98718886Y-40709521D01*
X98707639Y-40736751D01*
X98695096Y-40763741D01*
X98690504Y-40772170D01*
X98677939Y-40793029D01*
X98663820Y-40813585D01*
X98648147Y-40833838D01*
X98630919Y-40853788D01*
X98612138Y-40873435D01*
X98591803Y-40892780D01*
X98574564Y-40908580D01*
X98556348Y-40924031D01*
X98537155Y-40939133D01*
X98516985Y-40953887D01*
X98495838Y-40968291D01*
X98473714Y-40982346D01*
X98450613Y-40996053D01*
X98426534Y-41009410D01*
X98426534Y-41016235D01*
X98449422Y-41023410D01*
X98471603Y-41031443D01*
X98493077Y-41040335D01*
X98513845Y-41050084D01*
X98543671Y-41066316D01*
X98571908Y-41084478D01*
X98598554Y-41104571D01*
X98623611Y-41126594D01*
X98647077Y-41150547D01*
X98668954Y-41176430D01*
X98689241Y-41204243D01*
X98707937Y-41233987D01*
X98718688Y-41255271D01*
X98733512Y-41287625D01*
X98746777Y-41320491D01*
X98758481Y-41353869D01*
X98768624Y-41387760D01*
X98777207Y-41422164D01*
X98784229Y-41457080D01*
X98789691Y-41492509D01*
X98793592Y-41528450D01*
X98795933Y-41564904D01*
X98796713Y-41601870D01*
X98795601Y-41642510D01*
X98793101Y-41682073D01*
X98789215Y-41720561D01*
X98783941Y-41757973D01*
X98777280Y-41794308D01*
X98769232Y-41829568D01*
X98759797Y-41863752D01*
X98748975Y-41896859D01*
X98736766Y-41928891D01*
X98723170Y-41959847D01*
X98708186Y-41989727D01*
X98691815Y-42018531D01*
X98674057Y-42046259D01*
X98654913Y-42072911D01*
X98634381Y-42098487D01*
X98612461Y-42122987D01*
X98589639Y-42147252D01*
X98566119Y-42169951D01*
X98541901Y-42191085D01*
X98516985Y-42210654D01*
X98491372Y-42228657D01*
X98465060Y-42245094D01*
X98438050Y-42259966D01*
X98410343Y-42273273D01*
X98381937Y-42285014D01*
X98352834Y-42295190D01*
X98323032Y-42303800D01*
X98292533Y-42310845D01*
X98261336Y-42316324D01*
X98229441Y-42320238D01*
X98196848Y-42322586D01*
X98163557Y-42323369D01*
X97204330Y-42323369D01*
X97204330Y-41207931D01*
X97549942Y-41207931D01*
X97549942Y-41969754D01*
X98080922Y-41969754D01*
X98092826Y-41969414D01*
X98116032Y-41968096D01*
X98138436Y-41965925D01*
X98170536Y-41961068D01*
X98200830Y-41954293D01*
X98229319Y-41945598D01*
X98256001Y-41934984D01*
X98280878Y-41922450D01*
X98303948Y-41907997D01*
X98325213Y-41891625D01*
X98344672Y-41873334D01*
X98362325Y-41853123D01*
X98373076Y-41839077D01*
X98387900Y-41817391D01*
X98401165Y-41794963D01*
X98412869Y-41771793D01*
X98423012Y-41747882D01*
X98431595Y-41723229D01*
X98438617Y-41697835D01*
X98444079Y-41671699D01*
X98447980Y-41644822D01*
X98450321Y-41617203D01*
X98451101Y-41588842D01*
X98450755Y-41569475D01*
X98448934Y-41541078D01*
X98445553Y-41513467D01*
X98440611Y-41486640D01*
X98434109Y-41460599D01*
X98426046Y-41435343D01*
X98416423Y-41410872D01*
X98405240Y-41387186D01*
X98392495Y-41364285D01*
X98378191Y-41342170D01*
X98362325Y-41320840D01*
X98356642Y-41314118D01*
X98338387Y-41295191D01*
X98318326Y-41278117D01*
X98296459Y-41262897D01*
X98272786Y-41249531D01*
X98247308Y-41238019D01*
X98220023Y-41228361D01*
X98190933Y-41220557D01*
X98160036Y-41214606D01*
X98127334Y-41210509D01*
X98104530Y-41208808D01*
X98080922Y-41207931D01*
X97549942Y-41207931D01*
X97204330Y-41207931D01*
X97204330Y-40135920D01*
X97549942Y-40135920D01*
X97549942Y-40858038D01*
X98048539Y-40858038D01*
X98071740Y-40857612D01*
X98105087Y-40855373D01*
X98136687Y-40851214D01*
X98166539Y-40845137D01*
X98194645Y-40837139D01*
X98221003Y-40827223D01*
X98245615Y-40815388D01*
X98268480Y-40801633D01*
X98289597Y-40785958D01*
X98308968Y-40768365D01*
X98326592Y-40748852D01*
X98337545Y-40736088D01*
X98352649Y-40716188D01*
X98366164Y-40695383D01*
X98378089Y-40673673D01*
X98388423Y-40651058D01*
X98397168Y-40627538D01*
X98404323Y-40603112D01*
X98409888Y-40577781D01*
X98413863Y-40551546D01*
X98416248Y-40524405D01*
X98417043Y-40496359D01*
X98416689Y-40477466D01*
X98414834Y-40449818D01*
X98411389Y-40422999D01*
X98406355Y-40397009D01*
X98399730Y-40371847D01*
X98391515Y-40347514D01*
X98381710Y-40324010D01*
X98370316Y-40301335D01*
X98357331Y-40279489D01*
X98342756Y-40258471D01*
X98326592Y-40238282D01*
X98320911Y-40232210D01*
X98302697Y-40215105D01*
X98282726Y-40199669D01*
X98260998Y-40185901D01*
X98237513Y-40173802D01*
X98212272Y-40163371D01*
X98185274Y-40154609D01*
X98156519Y-40147516D01*
X98126007Y-40142090D01*
X98093738Y-40138333D01*
X98071250Y-40136756D01*
X98047980Y-40135920D01*
X97549942Y-40135920D01*
X97204330Y-40135920D01*
X97204330Y-39782305D01*
X98087064Y-39782305D01*
X98128425Y-39783475D01*
G37*
G36*
X100864243Y-42323369D02*
G01*
X100500206Y-42323369D01*
X100323771Y-41763789D01*
X99459462Y-41763789D01*
X99284702Y-42323369D01*
X98918990Y-42323369D01*
X99215345Y-41413896D01*
X99559405Y-41413896D01*
X100224945Y-41413896D01*
X99895525Y-40306523D01*
X99888825Y-40306523D01*
X99559405Y-41413896D01*
X99215345Y-41413896D01*
X99747006Y-39782305D01*
X100036226Y-39782305D01*
X100864243Y-42323369D01*
G37*
D14*
G36*
X85704592Y-46532431D02*
G01*
X87967975Y-46532431D01*
X87967975Y-46002008D01*
X86242210Y-46002008D01*
X86242210Y-44859274D01*
X87715233Y-44859274D01*
X87715233Y-44334435D01*
X86242210Y-44334435D01*
X86242210Y-43251257D01*
X87967975Y-43251257D01*
X87967975Y-42720835D01*
X85704592Y-42720835D01*
X85704592Y-46532431D01*
G37*
G36*
X88407450Y-45254764D02*
G01*
X88408126Y-45292499D01*
X88409502Y-45329744D01*
X88414357Y-45402768D01*
X88422014Y-45473836D01*
X88432474Y-45542949D01*
X88445736Y-45610106D01*
X88461800Y-45675307D01*
X88480667Y-45738553D01*
X88502336Y-45799843D01*
X88526808Y-45859177D01*
X88554082Y-45916556D01*
X88584158Y-45971979D01*
X88617036Y-46025447D01*
X88652717Y-46076959D01*
X88691200Y-46126515D01*
X88732486Y-46174116D01*
X88776574Y-46219761D01*
X88821985Y-46264181D01*
X88868760Y-46305780D01*
X88916899Y-46344558D01*
X88966401Y-46380516D01*
X89017268Y-46413653D01*
X89069498Y-46443969D01*
X89123093Y-46471464D01*
X89178051Y-46496138D01*
X89234373Y-46517992D01*
X89292059Y-46537025D01*
X89351108Y-46553237D01*
X89411522Y-46566629D01*
X89473299Y-46577199D01*
X89536440Y-46584949D01*
X89600946Y-46589878D01*
X89666815Y-46591987D01*
X89733830Y-46589882D01*
X89799387Y-46584964D01*
X89863485Y-46577232D01*
X89926124Y-46566687D01*
X89987305Y-46553328D01*
X90047026Y-46537156D01*
X90105289Y-46518170D01*
X90162092Y-46496371D01*
X90217437Y-46471758D01*
X90271323Y-46444332D01*
X90323751Y-46414092D01*
X90374719Y-46381039D01*
X90424228Y-46345172D01*
X90472279Y-46306492D01*
X90518871Y-46264998D01*
X90564004Y-46220691D01*
X90606741Y-46175279D01*
X90646799Y-46127911D01*
X90684176Y-46078587D01*
X90718873Y-46027308D01*
X90750890Y-45974073D01*
X90780226Y-45918883D01*
X90806883Y-45861737D01*
X90830859Y-45802635D01*
X90852155Y-45741577D01*
X90870770Y-45678564D01*
X90886706Y-45613595D01*
X90899961Y-45546671D01*
X90910536Y-45477791D01*
X90918431Y-45406955D01*
X90923645Y-45334164D01*
X90926180Y-45259417D01*
X90926180Y-42720835D01*
X90388561Y-42720835D01*
X90388561Y-45190555D01*
X90387153Y-45238687D01*
X90384232Y-45285371D01*
X90379798Y-45330609D01*
X90373850Y-45374400D01*
X90366390Y-45416745D01*
X90357416Y-45457642D01*
X90346929Y-45497093D01*
X90334929Y-45535097D01*
X90321416Y-45571655D01*
X90306390Y-45606765D01*
X90289851Y-45640429D01*
X90271798Y-45672646D01*
X90252233Y-45703417D01*
X90220047Y-45746860D01*
X90184457Y-45787048D01*
X90158517Y-45813078D01*
X90131721Y-45837429D01*
X90104071Y-45860101D01*
X90060992Y-45890959D01*
X90015990Y-45918039D01*
X89969064Y-45941341D01*
X89920214Y-45960864D01*
X89886579Y-45971779D01*
X89852089Y-45981016D01*
X89816744Y-45988573D01*
X89780544Y-45994451D01*
X89743489Y-45998650D01*
X89705579Y-46001169D01*
X89666815Y-46002008D01*
X89628070Y-46001169D01*
X89590221Y-45998650D01*
X89553268Y-45994451D01*
X89517211Y-45988573D01*
X89482049Y-45981016D01*
X89447783Y-45971779D01*
X89414412Y-45960864D01*
X89366036Y-45941341D01*
X89319675Y-45918039D01*
X89275329Y-45890959D01*
X89232999Y-45860101D01*
X89192683Y-45825464D01*
X89166926Y-45800273D01*
X89154383Y-45787048D01*
X89129647Y-45760618D01*
X89106465Y-45732741D01*
X89084837Y-45703417D01*
X89064762Y-45672646D01*
X89046242Y-45640429D01*
X89029275Y-45606765D01*
X89013862Y-45571655D01*
X89000003Y-45535097D01*
X88987697Y-45497093D01*
X88976946Y-45457642D01*
X88967748Y-45416745D01*
X88960105Y-45374400D01*
X88954015Y-45330609D01*
X88949479Y-45285371D01*
X88946497Y-45238687D01*
X88945068Y-45190555D01*
X88945068Y-42720835D01*
X88407450Y-42720835D01*
X88407450Y-45254764D01*
G37*
G36*
X93427539Y-45487406D02*
G01*
X93398640Y-45549721D01*
X93367963Y-45608016D01*
X93335509Y-45662290D01*
X93301277Y-45712544D01*
X93265267Y-45758778D01*
X93227479Y-45800992D01*
X93187914Y-45839185D01*
X93146570Y-45873358D01*
X93103449Y-45903510D01*
X93058550Y-45929642D01*
X93011874Y-45951754D01*
X92963420Y-45969846D01*
X92913187Y-45983917D01*
X92861178Y-45993968D01*
X92807390Y-45999998D01*
X92751825Y-46002008D01*
X92716789Y-46001256D01*
X92671524Y-45997912D01*
X92627914Y-45991892D01*
X92585960Y-45983197D01*
X92545662Y-45971827D01*
X92507019Y-45957781D01*
X92470032Y-45941060D01*
X92434701Y-45921663D01*
X92426127Y-45916396D01*
X92392227Y-45897567D01*
X92360010Y-45877371D01*
X92329476Y-45855808D01*
X92300624Y-45832878D01*
X92273456Y-45808582D01*
X92247970Y-45782918D01*
X92218479Y-45748917D01*
X92202047Y-45727492D01*
X92177090Y-45696056D01*
X92154332Y-45662236D01*
X92133772Y-45626031D01*
X92115411Y-45587441D01*
X92099248Y-45546468D01*
X92085284Y-45503109D01*
X92073518Y-45457366D01*
X92063951Y-45409238D01*
X92056966Y-45369258D01*
X92050668Y-45322946D01*
X92045058Y-45270305D01*
X92041699Y-45231694D01*
X92038646Y-45190269D01*
X92035897Y-45146031D01*
X92033455Y-45098979D01*
X92031317Y-45049114D01*
X92029485Y-44996435D01*
X92027959Y-44940943D01*
X92026737Y-44882637D01*
X92025821Y-44821518D01*
X92025210Y-44757585D01*
X92024905Y-44690839D01*
X92024867Y-44656411D01*
X92025020Y-44588236D01*
X92025478Y-44522831D01*
X92026241Y-44460196D01*
X92027310Y-44400331D01*
X92028684Y-44343236D01*
X92030363Y-44288910D01*
X92032348Y-44237355D01*
X92034638Y-44188569D01*
X92037233Y-44142554D01*
X92040134Y-44099308D01*
X92043340Y-44058832D01*
X92046852Y-44021126D01*
X92052691Y-43969760D01*
X92059218Y-43924627D01*
X92063951Y-43898000D01*
X92073518Y-43851181D01*
X92085284Y-43806572D01*
X92099248Y-43764173D01*
X92115411Y-43723985D01*
X92133772Y-43686006D01*
X92154332Y-43650237D01*
X92177090Y-43616679D01*
X92202047Y-43585330D01*
X92229960Y-43549912D01*
X92254184Y-43522918D01*
X92280090Y-43497117D01*
X92307680Y-43472508D01*
X92336952Y-43449091D01*
X92367907Y-43426866D01*
X92400544Y-43405834D01*
X92426127Y-43390842D01*
X92461044Y-43373307D01*
X92497617Y-43357923D01*
X92535846Y-43344692D01*
X92575731Y-43333612D01*
X92617271Y-43324685D01*
X92660466Y-43317909D01*
X92705318Y-43313285D01*
X92740043Y-43311230D01*
X92751825Y-43310814D01*
X92799504Y-43313153D01*
X92845809Y-43318076D01*
X92890740Y-43325585D01*
X92934297Y-43335677D01*
X92976480Y-43348354D01*
X93017289Y-43363616D01*
X93056724Y-43381462D01*
X93094784Y-43401893D01*
X93131471Y-43424908D01*
X93166784Y-43450507D01*
X93189562Y-43469010D01*
X93220875Y-43499617D01*
X93250325Y-43531419D01*
X93277913Y-43564415D01*
X93303638Y-43598605D01*
X93327501Y-43633990D01*
X93349500Y-43670568D01*
X93369638Y-43708340D01*
X93387912Y-43747307D01*
X93404325Y-43787467D01*
X93418874Y-43828822D01*
X93427539Y-43857055D01*
X93996425Y-43857055D01*
X93984855Y-43797521D01*
X93971427Y-43739194D01*
X93956140Y-43682073D01*
X93938993Y-43626159D01*
X93919987Y-43571452D01*
X93899122Y-43517952D01*
X93876398Y-43465658D01*
X93851815Y-43414572D01*
X93825372Y-43364692D01*
X93797070Y-43316019D01*
X93766909Y-43268553D01*
X93734889Y-43222294D01*
X93701010Y-43177241D01*
X93665271Y-43133396D01*
X93627674Y-43090757D01*
X93588217Y-43049325D01*
X93547087Y-43010201D01*
X93504472Y-42973556D01*
X93460370Y-42939391D01*
X93414782Y-42907704D01*
X93367709Y-42878497D01*
X93319149Y-42851769D01*
X93269104Y-42827519D01*
X93217572Y-42805749D01*
X93164555Y-42786458D01*
X93110051Y-42769646D01*
X93054062Y-42755313D01*
X92996586Y-42743460D01*
X92937625Y-42734085D01*
X92877177Y-42727189D01*
X92815244Y-42722773D01*
X92751825Y-42720835D01*
X92700144Y-42722326D01*
X92649542Y-42725401D01*
X92600019Y-42730061D01*
X92551575Y-42736306D01*
X92504209Y-42744136D01*
X92457923Y-42753550D01*
X92412715Y-42764550D01*
X92368587Y-42777134D01*
X92325537Y-42791304D01*
X92283566Y-42807058D01*
X92242674Y-42824397D01*
X92202861Y-42843321D01*
X92164127Y-42863830D01*
X92126471Y-42885923D01*
X92089895Y-42909602D01*
X92054397Y-42934865D01*
X92019398Y-42960910D01*
X91985620Y-42987399D01*
X91953064Y-43014330D01*
X91921729Y-43041706D01*
X91891616Y-43069525D01*
X91862724Y-43097787D01*
X91835053Y-43126493D01*
X91808604Y-43155642D01*
X91783376Y-43185235D01*
X91759369Y-43215271D01*
X91736584Y-43245750D01*
X91715020Y-43276673D01*
X91694677Y-43308040D01*
X91675556Y-43339850D01*
X91657656Y-43372104D01*
X91640978Y-43404801D01*
X91621639Y-43440816D01*
X91603577Y-43479537D01*
X91586790Y-43520961D01*
X91571278Y-43565091D01*
X91557043Y-43611924D01*
X91547203Y-43648824D01*
X91538081Y-43687245D01*
X91529676Y-43727188D01*
X91521990Y-43768652D01*
X91515470Y-43814562D01*
X91509593Y-43868193D01*
X91506030Y-43908237D01*
X91502753Y-43951711D01*
X91499761Y-43998618D01*
X91497053Y-44048955D01*
X91494631Y-44102725D01*
X91492493Y-44159925D01*
X91490641Y-44220557D01*
X91489074Y-44284621D01*
X91487791Y-44352116D01*
X91486794Y-44423043D01*
X91486081Y-44497401D01*
X91485832Y-44535866D01*
X91485654Y-44575190D01*
X91485547Y-44615372D01*
X91485511Y-44656411D01*
X91485547Y-44696826D01*
X91485654Y-44736414D01*
X91485832Y-44775175D01*
X91486081Y-44813109D01*
X91486794Y-44886497D01*
X91487791Y-44956576D01*
X91489074Y-45023348D01*
X91490641Y-45086812D01*
X91492493Y-45146968D01*
X91494631Y-45203816D01*
X91497053Y-45257356D01*
X91499761Y-45307589D01*
X91502753Y-45354513D01*
X91506030Y-45398130D01*
X91509593Y-45438438D01*
X91513440Y-45475439D01*
X91519745Y-45524738D01*
X91521990Y-45539517D01*
X91528215Y-45576881D01*
X91536358Y-45619018D01*
X91545233Y-45658211D01*
X91554841Y-45694459D01*
X91566977Y-45733028D01*
X91570627Y-45743311D01*
X91584680Y-45777910D01*
X91599482Y-45813311D01*
X91615031Y-45849513D01*
X91631329Y-45886516D01*
X91640978Y-45908021D01*
X91657656Y-45940696D01*
X91675556Y-45972885D01*
X91694677Y-46004586D01*
X91715020Y-46035799D01*
X91736584Y-46066526D01*
X91759369Y-46096766D01*
X91783376Y-46126519D01*
X91808604Y-46155784D01*
X91835053Y-46184563D01*
X91862724Y-46212854D01*
X91891616Y-46240658D01*
X91921729Y-46267975D01*
X91953064Y-46294806D01*
X91985620Y-46321149D01*
X92019398Y-46347004D01*
X92054397Y-46372373D01*
X92089895Y-46397768D01*
X92126471Y-46421606D01*
X92164127Y-46443889D01*
X92202861Y-46464616D01*
X92242674Y-46483787D01*
X92283566Y-46501402D01*
X92325537Y-46517461D01*
X92368587Y-46531965D01*
X92412715Y-46544913D01*
X92457923Y-46556305D01*
X92504209Y-46566142D01*
X92551575Y-46574422D01*
X92600019Y-46581147D01*
X92649542Y-46586316D01*
X92700144Y-46589929D01*
X92751825Y-46591987D01*
X92809096Y-46590878D01*
X92865398Y-46587552D01*
X92920729Y-46582009D01*
X92975090Y-46574248D01*
X93028481Y-46564270D01*
X93080901Y-46552074D01*
X93132352Y-46537661D01*
X93182831Y-46521031D01*
X93232341Y-46502183D01*
X93280880Y-46481119D01*
X93328449Y-46457836D01*
X93375047Y-46432337D01*
X93420676Y-46404620D01*
X93465334Y-46374685D01*
X93509021Y-46342533D01*
X93551738Y-46308164D01*
X93591949Y-46271371D01*
X93630503Y-46232643D01*
X93667402Y-46191982D01*
X93702645Y-46149387D01*
X93736233Y-46104858D01*
X93768165Y-46058395D01*
X93798441Y-46009998D01*
X93827062Y-45959668D01*
X93854027Y-45907403D01*
X93879336Y-45853205D01*
X93902990Y-45797073D01*
X93924988Y-45739007D01*
X93945331Y-45679008D01*
X93964018Y-45617074D01*
X93981049Y-45553207D01*
X93996425Y-45487406D01*
X93427539Y-45487406D01*
G37*
G36*
X94375971Y-46532431D02*
G01*
X96639354Y-46532431D01*
X96639354Y-46002008D01*
X94913590Y-46002008D01*
X94913590Y-42720835D01*
X94375971Y-42720835D01*
X94375971Y-46532431D01*
G37*
G36*
X97144837Y-46532431D02*
G01*
X97682456Y-46532431D01*
X97682456Y-42720835D01*
X97144837Y-42720835D01*
X97144837Y-46532431D01*
G37*
G36*
X99710821Y-42721801D02*
G01*
X99754766Y-42724001D01*
X99798006Y-42727436D01*
X99840543Y-42732104D01*
X99882376Y-42738006D01*
X99923504Y-42745143D01*
X99963929Y-42753513D01*
X100003650Y-42763118D01*
X100042666Y-42773957D01*
X100080979Y-42786029D01*
X100118588Y-42799336D01*
X100155493Y-42813877D01*
X100191694Y-42829652D01*
X100227190Y-42846661D01*
X100261983Y-42864905D01*
X100296072Y-42884382D01*
X100329457Y-42905094D01*
X100362138Y-42927039D01*
X100394115Y-42950219D01*
X100425388Y-42974632D01*
X100455957Y-43000280D01*
X100485822Y-43027162D01*
X100514983Y-43055278D01*
X100543440Y-43084628D01*
X100571193Y-43115212D01*
X100598242Y-43147030D01*
X100624587Y-43180083D01*
X100650228Y-43214369D01*
X100675165Y-43249890D01*
X100699398Y-43286644D01*
X100722927Y-43324633D01*
X100745752Y-43363856D01*
X100761450Y-43390693D01*
X100783610Y-43431263D01*
X100804106Y-43472209D01*
X100822938Y-43513531D01*
X100840106Y-43555229D01*
X100855610Y-43597303D01*
X100869450Y-43639754D01*
X100881625Y-43682581D01*
X100892136Y-43725784D01*
X100900984Y-43769363D01*
X100908167Y-43813319D01*
X100912979Y-43860472D01*
X100917317Y-43913645D01*
X100919946Y-43952438D01*
X100922365Y-43993907D01*
X100924574Y-44038050D01*
X100926572Y-44084869D01*
X100928360Y-44134364D01*
X100929938Y-44186534D01*
X100931305Y-44241379D01*
X100932462Y-44298899D01*
X100933408Y-44359095D01*
X100934145Y-44421967D01*
X100934671Y-44487513D01*
X100934986Y-44555735D01*
X100935091Y-44626633D01*
X100935051Y-44664656D01*
X100934928Y-44701954D01*
X100934440Y-44774375D01*
X100933626Y-44843894D01*
X100932486Y-44910513D01*
X100931020Y-44974232D01*
X100929229Y-45035049D01*
X100927112Y-45092966D01*
X100924669Y-45147982D01*
X100921900Y-45200097D01*
X100918806Y-45249312D01*
X100915387Y-45295626D01*
X100911641Y-45339039D01*
X100907570Y-45379551D01*
X100900852Y-45434881D01*
X100893402Y-45483683D01*
X100889644Y-45506486D01*
X100882600Y-45543472D01*
X100872859Y-45586177D01*
X100861714Y-45627049D01*
X100849165Y-45666089D01*
X100835211Y-45703297D01*
X100830040Y-45715187D01*
X100813715Y-45751163D01*
X100796168Y-45787597D01*
X100777399Y-45824488D01*
X100757410Y-45861838D01*
X100736198Y-45899646D01*
X100716185Y-45933008D01*
X100695228Y-45965629D01*
X100673329Y-45997508D01*
X100650486Y-46028646D01*
X100626700Y-46059042D01*
X100601970Y-46088696D01*
X100576298Y-46117609D01*
X100549682Y-46145781D01*
X100522123Y-46173211D01*
X100493621Y-46199899D01*
X100464176Y-46225846D01*
X100433788Y-46251051D01*
X100402457Y-46275515D01*
X100370182Y-46299237D01*
X100336964Y-46322217D01*
X100302803Y-46344456D01*
X100268011Y-46367219D01*
X100232249Y-46388513D01*
X100195516Y-46408338D01*
X100157813Y-46426695D01*
X100119140Y-46443583D01*
X100079497Y-46459003D01*
X100038883Y-46472954D01*
X99997299Y-46485437D01*
X99954744Y-46496451D01*
X99911219Y-46505997D01*
X99866724Y-46514074D01*
X99821259Y-46520682D01*
X99774823Y-46525822D01*
X99727417Y-46529493D01*
X99679041Y-46531696D01*
X99629694Y-46532431D01*
X98426784Y-46532431D01*
X98426784Y-43251257D01*
X98964402Y-43251257D01*
X98964402Y-46002008D01*
X99606244Y-46002008D01*
X99661731Y-46000696D01*
X99715285Y-45996759D01*
X99766905Y-45990198D01*
X99816591Y-45981012D01*
X99864343Y-45969202D01*
X99910161Y-45954768D01*
X99954045Y-45937708D01*
X99995996Y-45918025D01*
X100036013Y-45895717D01*
X100074095Y-45870784D01*
X100110245Y-45843227D01*
X100144460Y-45813045D01*
X100176741Y-45780239D01*
X100207089Y-45744809D01*
X100235502Y-45706754D01*
X100261982Y-45666074D01*
X100283533Y-45633883D01*
X100303020Y-45599655D01*
X100320445Y-45563392D01*
X100335807Y-45525094D01*
X100349107Y-45484759D01*
X100360343Y-45442390D01*
X100369517Y-45397984D01*
X100376628Y-45351543D01*
X100377964Y-45339475D01*
X100381717Y-45299432D01*
X100385089Y-45253630D01*
X100388078Y-45202071D01*
X100389860Y-45164500D01*
X100391471Y-45124369D01*
X100392913Y-45081679D01*
X100394185Y-45036431D01*
X100395288Y-44988623D01*
X100396221Y-44938256D01*
X100396984Y-44885330D01*
X100397578Y-44829845D01*
X100398002Y-44771801D01*
X100398256Y-44711198D01*
X100398341Y-44648036D01*
X100398320Y-44616908D01*
X100398150Y-44556327D01*
X100397811Y-44497978D01*
X100397302Y-44441860D01*
X100396624Y-44387975D01*
X100395775Y-44336321D01*
X100394758Y-44286899D01*
X100393570Y-44239709D01*
X100392213Y-44194752D01*
X100390686Y-44152026D01*
X100388990Y-44111531D01*
X100387124Y-44073269D01*
X100384007Y-44020061D01*
X100380508Y-43971874D01*
X100376628Y-43928709D01*
X100370389Y-43888775D01*
X100362745Y-43850280D01*
X100353697Y-43813224D01*
X100343244Y-43777608D01*
X100327122Y-43732360D01*
X100308503Y-43689670D01*
X100287387Y-43649539D01*
X100263774Y-43611968D01*
X100237664Y-43576955D01*
X100209040Y-43536316D01*
X100178970Y-43498381D01*
X100147455Y-43463150D01*
X100114496Y-43430624D01*
X100080090Y-43400802D01*
X100044240Y-43373685D01*
X100006944Y-43349272D01*
X99968203Y-43327564D01*
X99928017Y-43308560D01*
X99886385Y-43292260D01*
X99843308Y-43278665D01*
X99798786Y-43267775D01*
X99752818Y-43259589D01*
X99705405Y-43254107D01*
X99656547Y-43251330D01*
X99606244Y-43251257D01*
X98964402Y-43251257D01*
X98426784Y-43251257D01*
X98426784Y-42720835D01*
X99666172Y-42720835D01*
X99710821Y-42721801D01*
G37*
G36*
X101560431Y-46532431D02*
G01*
X103823814Y-46532431D01*
X103823814Y-46002008D01*
X102098050Y-46002008D01*
X102098050Y-44859274D01*
X103571072Y-44859274D01*
X103571072Y-44334435D01*
X102098050Y-44334435D01*
X102098050Y-43251257D01*
X103823814Y-43251257D01*
X103823814Y-42720835D01*
X101560431Y-42720835D01*
X101560431Y-46532431D01*
G37*
G36*
X106986123Y-46532431D02*
G01*
X106419843Y-46532431D01*
X106145388Y-45693061D01*
X104800907Y-45693061D01*
X104529058Y-46532431D01*
X103960173Y-46532431D01*
X104421171Y-45168222D01*
X104956374Y-45168222D01*
X105991659Y-45168222D01*
X105479227Y-43507163D01*
X105468805Y-43507163D01*
X104956374Y-45168222D01*
X104421171Y-45168222D01*
X105248199Y-42720835D01*
X105698096Y-42720835D01*
X106986123Y-46532431D01*
G37*
G36*
X107365669Y-46532431D02*
G01*
X107903288Y-46532431D01*
X107903288Y-43828208D01*
X107912842Y-43828208D01*
X109514407Y-46532431D01*
X110022495Y-46532431D01*
X110022495Y-42720835D01*
X109485745Y-42720835D01*
X109485745Y-45429711D01*
X109476191Y-45429711D01*
X107871152Y-42720835D01*
X107365669Y-42720835D01*
X107365669Y-46532431D01*
G37*
D13*
G36*
X103563664Y-62905115D02*
G01*
X103579757Y-62906356D01*
X103600574Y-62908826D01*
X103620661Y-62912228D01*
X103640016Y-62916563D01*
X103658641Y-62921830D01*
X103676535Y-62928030D01*
X103693698Y-62935163D01*
X103702006Y-62939079D01*
X103717052Y-62947805D01*
X103731342Y-62957048D01*
X103744876Y-62966808D01*
X103757654Y-62977084D01*
X103769676Y-62987878D01*
X103783639Y-63002095D01*
X103796422Y-63017121D01*
X103801204Y-63023357D01*
X103812829Y-63036941D01*
X103823509Y-63051483D01*
X103833243Y-63066983D01*
X103842033Y-63083440D01*
X103849877Y-63100855D01*
X103856776Y-63119228D01*
X103862731Y-63138559D01*
X103867740Y-63158847D01*
X103870766Y-63176604D01*
X103873495Y-63197062D01*
X103875927Y-63220221D01*
X103877382Y-63237160D01*
X103878705Y-63255300D01*
X103879896Y-63274640D01*
X103880955Y-63295180D01*
X103881881Y-63316921D01*
X103882675Y-63339862D01*
X103883336Y-63364003D01*
X103883865Y-63389344D01*
X103884262Y-63415886D01*
X103884527Y-63443628D01*
X103884659Y-63472570D01*
X103884676Y-63487492D01*
X103884610Y-63517025D01*
X103884411Y-63545338D01*
X103884081Y-63572433D01*
X103883617Y-63598308D01*
X103883022Y-63622965D01*
X103882294Y-63646402D01*
X103881434Y-63668620D01*
X103880442Y-63689618D01*
X103879317Y-63709398D01*
X103878060Y-63727958D01*
X103876671Y-63745299D01*
X103875149Y-63761421D01*
X103872619Y-63783318D01*
X103869791Y-63802472D01*
X103867740Y-63813717D01*
X103864071Y-63829455D01*
X103858354Y-63849536D01*
X103851691Y-63868583D01*
X103844082Y-63886596D01*
X103835529Y-63903577D01*
X103826031Y-63919524D01*
X103815588Y-63934438D01*
X103804199Y-63948318D01*
X103801204Y-63951627D01*
X103788894Y-63966916D01*
X103775403Y-63981279D01*
X103760730Y-63994718D01*
X103748141Y-64004802D01*
X103734796Y-64014294D01*
X103720695Y-64023194D01*
X103705838Y-64031501D01*
X103702006Y-64033485D01*
X103685208Y-64042180D01*
X103667680Y-64049716D01*
X103649420Y-64056092D01*
X103630430Y-64061309D01*
X103610709Y-64065367D01*
X103590257Y-64068265D01*
X103569074Y-64070004D01*
X103552707Y-64070548D01*
X103547160Y-64070584D01*
X103530893Y-64070258D01*
X103509877Y-64068809D01*
X103489630Y-64066200D01*
X103470152Y-64062432D01*
X103451442Y-64057505D01*
X103433500Y-64051419D01*
X103416328Y-64044173D01*
X103399924Y-64035768D01*
X103395943Y-64033485D01*
X103380204Y-64025326D01*
X103365246Y-64016574D01*
X103351069Y-64007230D01*
X103337674Y-63997294D01*
X103325060Y-63986766D01*
X103313227Y-63975645D01*
X103299535Y-63960911D01*
X103291906Y-63951627D01*
X103280319Y-63937916D01*
X103269753Y-63923198D01*
X103260207Y-63907471D01*
X103251682Y-63890737D01*
X103244178Y-63872994D01*
X103237695Y-63854243D01*
X103232232Y-63834484D01*
X103227790Y-63813717D01*
X103224547Y-63796392D01*
X103221623Y-63776324D01*
X103219018Y-63753512D01*
X103217459Y-63736781D01*
X103216041Y-63718830D01*
X103214765Y-63699660D01*
X103213631Y-63679271D01*
X103212639Y-63657663D01*
X103211788Y-63634836D01*
X103211079Y-63610789D01*
X103210512Y-63585523D01*
X103210087Y-63559038D01*
X103209803Y-63531334D01*
X103209662Y-63502411D01*
X103209644Y-63487492D01*
X103209715Y-63457949D01*
X103209927Y-63429607D01*
X103210282Y-63402465D01*
X103210778Y-63376524D01*
X103211416Y-63351782D01*
X103212196Y-63328241D01*
X103213117Y-63305901D01*
X103214180Y-63284760D01*
X103215385Y-63264820D01*
X103216732Y-63246080D01*
X103218221Y-63228541D01*
X103219851Y-63212201D01*
X103222562Y-63189943D01*
X103225593Y-63170385D01*
X103227790Y-63158847D01*
X103232232Y-63138647D01*
X103237695Y-63119379D01*
X103244178Y-63101044D01*
X103251682Y-63083642D01*
X103260207Y-63067172D01*
X103269753Y-63051634D01*
X103280319Y-63037029D01*
X103291906Y-63023357D01*
X103304866Y-63008009D01*
X103316112Y-62996311D01*
X103328140Y-62985131D01*
X103340950Y-62974467D01*
X103354540Y-62964320D01*
X103368912Y-62954689D01*
X103384065Y-62945575D01*
X103395943Y-62939079D01*
X103412155Y-62931480D01*
X103429135Y-62924814D01*
X103446884Y-62919080D01*
X103465402Y-62914279D01*
X103484688Y-62910410D01*
X103504744Y-62907474D01*
X103525567Y-62905471D01*
X103541690Y-62904580D01*
X103547160Y-62904400D01*
X103563664Y-62905115D01*
G37*
G36*
X107395674Y-64862098D02*
G01*
X102423372Y-64862098D01*
X102423372Y-63487492D01*
X102959229Y-63487492D01*
X102959245Y-63505005D01*
X102959295Y-63522160D01*
X102959378Y-63538956D01*
X102959493Y-63555394D01*
X102959824Y-63587196D01*
X102960287Y-63617563D01*
X102960883Y-63646498D01*
X102961610Y-63673999D01*
X102962470Y-63700066D01*
X102963463Y-63724701D01*
X102964588Y-63747901D01*
X102965845Y-63769669D01*
X102967234Y-63790003D01*
X102968755Y-63808903D01*
X102970409Y-63826370D01*
X102972196Y-63842404D01*
X102975123Y-63863767D01*
X102976165Y-63870171D01*
X102979056Y-63886362D01*
X102982836Y-63904621D01*
X102986957Y-63921605D01*
X102991417Y-63937313D01*
X102997052Y-63954026D01*
X102998747Y-63958482D01*
X103005272Y-63973475D01*
X103012144Y-63988815D01*
X103019363Y-64004503D01*
X103026930Y-64020537D01*
X103031410Y-64029856D01*
X103039200Y-64044015D01*
X103047552Y-64057964D01*
X103056464Y-64071701D01*
X103065937Y-64085227D01*
X103075971Y-64098542D01*
X103086566Y-64111646D01*
X103097721Y-64124538D01*
X103109438Y-64137220D01*
X103121714Y-64149691D01*
X103134552Y-64161950D01*
X103147951Y-64173999D01*
X103161910Y-64185836D01*
X103176430Y-64197463D01*
X103191510Y-64208878D01*
X103207152Y-64220082D01*
X103223354Y-64231075D01*
X103239835Y-64242080D01*
X103256817Y-64252410D01*
X103274300Y-64262065D01*
X103292284Y-64271047D01*
X103310769Y-64279355D01*
X103329754Y-64286988D01*
X103349241Y-64293947D01*
X103369228Y-64300232D01*
X103389716Y-64305843D01*
X103410706Y-64310779D01*
X103432196Y-64315042D01*
X103454187Y-64318630D01*
X103476679Y-64321544D01*
X103499672Y-64323784D01*
X103523165Y-64325350D01*
X103547160Y-64326241D01*
X103571452Y-64325350D01*
X103595234Y-64323784D01*
X103618506Y-64321544D01*
X103641267Y-64318630D01*
X103663518Y-64315042D01*
X103685259Y-64310779D01*
X103706489Y-64305843D01*
X103727209Y-64300232D01*
X103747418Y-64293947D01*
X103767117Y-64286988D01*
X103786306Y-64279355D01*
X103804985Y-64271047D01*
X103823153Y-64262065D01*
X103840810Y-64252410D01*
X103857958Y-64242080D01*
X103874595Y-64231075D01*
X103890543Y-64220082D01*
X103905928Y-64208878D01*
X103920749Y-64197463D01*
X103935006Y-64185836D01*
X103948699Y-64173999D01*
X103961828Y-64161950D01*
X103974393Y-64149691D01*
X103986394Y-64137220D01*
X103997832Y-64124538D01*
X104008705Y-64111646D01*
X104019015Y-64098542D01*
X104028760Y-64085227D01*
X104037942Y-64071701D01*
X104046560Y-64057964D01*
X104058429Y-64036962D01*
X104062104Y-64029856D01*
X104072090Y-64014218D01*
X104081283Y-63997345D01*
X104089682Y-63979236D01*
X104097287Y-63959893D01*
X104102470Y-63944575D01*
X104107206Y-63928563D01*
X104111495Y-63911856D01*
X104115338Y-63894454D01*
X104118735Y-63876358D01*
X104119768Y-63870171D01*
X104122362Y-63849883D01*
X104124701Y-63826370D01*
X104126119Y-63808903D01*
X104127423Y-63790003D01*
X104128614Y-63769669D01*
X104129691Y-63747901D01*
X104130655Y-63724701D01*
X104131506Y-63700066D01*
X104132243Y-63673999D01*
X104132867Y-63646498D01*
X104133377Y-63617563D01*
X104133774Y-63587196D01*
X104134058Y-63555394D01*
X104134157Y-63538956D01*
X104134228Y-63522160D01*
X104134270Y-63505005D01*
X104134285Y-63487492D01*
X104134270Y-63469708D01*
X104134228Y-63452296D01*
X104134157Y-63435256D01*
X104134058Y-63418587D01*
X104133930Y-63402290D01*
X104133590Y-63370812D01*
X104133136Y-63340821D01*
X104132569Y-63312316D01*
X104131889Y-63285299D01*
X104131095Y-63259769D01*
X104130188Y-63235725D01*
X104129167Y-63213169D01*
X104128033Y-63192099D01*
X104126785Y-63172516D01*
X104125424Y-63154421D01*
X104123950Y-63137812D01*
X104121526Y-63115687D01*
X104119768Y-63102796D01*
X104116520Y-63084828D01*
X104112826Y-63067520D01*
X104108685Y-63050871D01*
X104104098Y-63034881D01*
X104099064Y-63019550D01*
X104091658Y-63000134D01*
X104083457Y-62981891D01*
X104074463Y-62964819D01*
X104064675Y-62948919D01*
X104062104Y-62945127D01*
X104050657Y-62923946D01*
X104042321Y-62910066D01*
X104033422Y-62896378D01*
X104023958Y-62882881D01*
X104013930Y-62869578D01*
X104003339Y-62856466D01*
X103992184Y-62843546D01*
X103980464Y-62830819D01*
X103968181Y-62818283D01*
X103955334Y-62805940D01*
X103941923Y-62793790D01*
X103927948Y-62781831D01*
X103913409Y-62770064D01*
X103898306Y-62758490D01*
X103882640Y-62747108D01*
X103874595Y-62741489D01*
X103858005Y-62730541D01*
X103840899Y-62720280D01*
X103823276Y-62710706D01*
X103805136Y-62701819D01*
X103786479Y-62693619D01*
X103767306Y-62686105D01*
X103747617Y-62679279D01*
X103727410Y-62673139D01*
X103706687Y-62667685D01*
X103685448Y-62662919D01*
X103663691Y-62658839D01*
X103641418Y-62655446D01*
X103618629Y-62652740D01*
X103595322Y-62650721D01*
X103571500Y-62649388D01*
X103547160Y-62648742D01*
X104394781Y-62648742D01*
X104394781Y-63746778D01*
X104395095Y-63763130D01*
X104395734Y-63779269D01*
X104397988Y-63810913D01*
X104401543Y-63841709D01*
X104406399Y-63871658D01*
X104412557Y-63900759D01*
X104420015Y-63929013D01*
X104428775Y-63956420D01*
X104438835Y-63982979D01*
X104450197Y-64008691D01*
X104462860Y-64033555D01*
X104476824Y-64057571D01*
X104492089Y-64080741D01*
X104508655Y-64103062D01*
X104526522Y-64124537D01*
X104545690Y-64145164D01*
X104566160Y-64164943D01*
X104587244Y-64184192D01*
X104608961Y-64202218D01*
X104631311Y-64219022D01*
X104654294Y-64234604D01*
X104677911Y-64248963D01*
X104702161Y-64262100D01*
X104727044Y-64274015D01*
X104752560Y-64284707D01*
X104778709Y-64294177D01*
X104805492Y-64302425D01*
X104832908Y-64309450D01*
X104860957Y-64315253D01*
X104889639Y-64319833D01*
X104918955Y-64323192D01*
X104948904Y-64325328D01*
X104979486Y-64326241D01*
X105010600Y-64325329D01*
X105041037Y-64323198D01*
X105070797Y-64319848D01*
X105099880Y-64315278D01*
X105128285Y-64309489D01*
X105156013Y-64302481D01*
X105183063Y-64294254D01*
X105209436Y-64284808D01*
X105235132Y-64274142D01*
X105260151Y-64262258D01*
X105284492Y-64249154D01*
X105308156Y-64234831D01*
X105331142Y-64219288D01*
X105353452Y-64202527D01*
X105375083Y-64184546D01*
X105396038Y-64165346D01*
X105415880Y-64145668D01*
X105434479Y-64125142D01*
X105451832Y-64103768D01*
X105467942Y-64081547D01*
X105482806Y-64058479D01*
X105496427Y-64034563D01*
X105508803Y-64009799D01*
X105519935Y-63984189D01*
X105529822Y-63957730D01*
X105538465Y-63930425D01*
X105545864Y-63902272D01*
X105552018Y-63873271D01*
X105556928Y-63843423D01*
X105560593Y-63812728D01*
X105563014Y-63781185D01*
X105564191Y-63748794D01*
X105564191Y-62648742D01*
X105708956Y-62648742D01*
X105708956Y-62878592D01*
X106158977Y-62878592D01*
X106158977Y-64300434D01*
X106409796Y-64300434D01*
X106409796Y-62878592D01*
X106859817Y-62878592D01*
X106859817Y-62648742D01*
X105708956Y-62648742D01*
X105564191Y-62648742D01*
X105314582Y-62648742D01*
X105314582Y-63718954D01*
X105313929Y-63739811D01*
X105312573Y-63760041D01*
X105310514Y-63779644D01*
X105307753Y-63798620D01*
X105304289Y-63816970D01*
X105300122Y-63834692D01*
X105295253Y-63851787D01*
X105289682Y-63868256D01*
X105283408Y-63884097D01*
X105276432Y-63899312D01*
X105268753Y-63913900D01*
X105260371Y-63927860D01*
X105251287Y-63941194D01*
X105236344Y-63960020D01*
X105219820Y-63977434D01*
X105207776Y-63988714D01*
X105195335Y-63999266D01*
X105182498Y-64009091D01*
X105162497Y-64022463D01*
X105141603Y-64034197D01*
X105119816Y-64044295D01*
X105097136Y-64052754D01*
X105081520Y-64057485D01*
X105065506Y-64061487D01*
X105049096Y-64064762D01*
X105032289Y-64067309D01*
X105015085Y-64069128D01*
X104997484Y-64070220D01*
X104979486Y-64070584D01*
X104961497Y-64070220D01*
X104943925Y-64069128D01*
X104926768Y-64067309D01*
X104910027Y-64064762D01*
X104893702Y-64061487D01*
X104877793Y-64057485D01*
X104862299Y-64052754D01*
X104839839Y-64044295D01*
X104818314Y-64034197D01*
X104797725Y-64022463D01*
X104778071Y-64009091D01*
X104759354Y-63994081D01*
X104747395Y-63983165D01*
X104741571Y-63977434D01*
X104730087Y-63965981D01*
X104719324Y-63953901D01*
X104709282Y-63941194D01*
X104699962Y-63927860D01*
X104691363Y-63913900D01*
X104683485Y-63899312D01*
X104676329Y-63884097D01*
X104669895Y-63868256D01*
X104664181Y-63851787D01*
X104659190Y-63834692D01*
X104654919Y-63816970D01*
X104651371Y-63798620D01*
X104648543Y-63779644D01*
X104646437Y-63760041D01*
X104645053Y-63739811D01*
X104644389Y-63718954D01*
X104644389Y-62648742D01*
X104394781Y-62648742D01*
X103547160Y-62648742D01*
X103523165Y-62649394D01*
X103499672Y-62650746D01*
X103476679Y-62652797D01*
X103454187Y-62655547D01*
X103432196Y-62658997D01*
X103410706Y-62663146D01*
X103389716Y-62667994D01*
X103369228Y-62673542D01*
X103349241Y-62679789D01*
X103329754Y-62686735D01*
X103310769Y-62694381D01*
X103292284Y-62702727D01*
X103274300Y-62711771D01*
X103256817Y-62721515D01*
X103239835Y-62731959D01*
X103223354Y-62743102D01*
X103207152Y-62754591D01*
X103191510Y-62766276D01*
X103176430Y-62778155D01*
X103161910Y-62790231D01*
X103147951Y-62802501D01*
X103134552Y-62814967D01*
X103121714Y-62827629D01*
X103109438Y-62840485D01*
X103097721Y-62853537D01*
X103086566Y-62866784D01*
X103075971Y-62880227D01*
X103065937Y-62893865D01*
X103056464Y-62907698D01*
X103047552Y-62921726D01*
X103039200Y-62935950D01*
X103031410Y-62950369D01*
X103022431Y-62965775D01*
X103014045Y-62982352D01*
X103006251Y-63000101D01*
X102999049Y-63019022D01*
X102992440Y-63039115D01*
X102987871Y-63054954D01*
X102983636Y-63071452D01*
X102979734Y-63088609D01*
X102976165Y-63106425D01*
X102973138Y-63126151D01*
X102970409Y-63149187D01*
X102968755Y-63166383D01*
X102967234Y-63185050D01*
X102965845Y-63205189D01*
X102964588Y-63226799D01*
X102963463Y-63249880D01*
X102962470Y-63274432D01*
X102961610Y-63300455D01*
X102960883Y-63327950D01*
X102960287Y-63356916D01*
X102959824Y-63387353D01*
X102959493Y-63419261D01*
X102959378Y-63435767D01*
X102959295Y-63452641D01*
X102959245Y-63469882D01*
X102959229Y-63487492D01*
X102423372Y-63487492D01*
X102423372Y-62112885D01*
X107395674Y-62112885D01*
X107395674Y-64862098D01*
G37*
G36*
X89267334Y-64316773D02*
G01*
X89516943Y-64316773D01*
X89516943Y-62665081D01*
X89267334Y-62665081D01*
X89267334Y-64316773D01*
G37*
G36*
X89862524Y-64316773D02*
G01*
X90112132Y-64316773D01*
X90112132Y-63144943D01*
X90116568Y-63144943D01*
X90860152Y-64316773D01*
X91096050Y-64316773D01*
X91096050Y-62665081D01*
X90846845Y-62665081D01*
X90846845Y-63838927D01*
X90842409Y-63838927D01*
X90097212Y-62665081D01*
X89862524Y-62665081D01*
X89862524Y-64316773D01*
G37*
G36*
X94427632Y-119169860D02*
G01*
X94467684Y-119172183D01*
X94506427Y-119175775D01*
X94543862Y-119180636D01*
X94579988Y-119186767D01*
X94614806Y-119194167D01*
X94648315Y-119202837D01*
X94680516Y-119212776D01*
X94711407Y-119223984D01*
X94740991Y-119236461D01*
X94769265Y-119250208D01*
X94796231Y-119265225D01*
X94821889Y-119281510D01*
X94846238Y-119299065D01*
X94869278Y-119317889D01*
X94891009Y-119337983D01*
X94911631Y-119359412D01*
X94930922Y-119381682D01*
X94948883Y-119404794D01*
X94965513Y-119428748D01*
X94980813Y-119453544D01*
X94994782Y-119479182D01*
X95007421Y-119505662D01*
X95018730Y-119532983D01*
X95028708Y-119561146D01*
X95037355Y-119590152D01*
X95044673Y-119619999D01*
X95050660Y-119650688D01*
X95055316Y-119682219D01*
X95058642Y-119714592D01*
X95060638Y-119747806D01*
X95061303Y-119781863D01*
X95061434Y-119799472D01*
X95060550Y-119825707D01*
X95058372Y-119851725D01*
X95054897Y-119877527D01*
X95050127Y-119903114D01*
X95044062Y-119928485D01*
X95036701Y-119953639D01*
X95028045Y-119978578D01*
X95018093Y-120003301D01*
X95006845Y-120027808D01*
X94994302Y-120052099D01*
X94989711Y-120059684D01*
X94977146Y-120078458D01*
X94963026Y-120096958D01*
X94947353Y-120115186D01*
X94930126Y-120133141D01*
X94911345Y-120150823D01*
X94891009Y-120168233D01*
X94873771Y-120182454D01*
X94855555Y-120196360D01*
X94836362Y-120209952D01*
X94816192Y-120223230D01*
X94795045Y-120236194D01*
X94772921Y-120248844D01*
X94749819Y-120261179D01*
X94725741Y-120273201D01*
X94725741Y-120279343D01*
X94748629Y-120285801D01*
X94770810Y-120293031D01*
X94792284Y-120301033D01*
X94813051Y-120309807D01*
X94842878Y-120324416D01*
X94871114Y-120340762D01*
X94897761Y-120358846D01*
X94922817Y-120378666D01*
X94946284Y-120400224D01*
X94968161Y-120423519D01*
X94988447Y-120448551D01*
X95007144Y-120475320D01*
X95017894Y-120494476D01*
X95032719Y-120523594D01*
X95045983Y-120553173D01*
X95057687Y-120583214D01*
X95067831Y-120613716D01*
X95076413Y-120644679D01*
X95083436Y-120676104D01*
X95088898Y-120707990D01*
X95092799Y-120740337D01*
X95095140Y-120773145D01*
X95095920Y-120806415D01*
X95094808Y-120842991D01*
X95092308Y-120878598D01*
X95088422Y-120913237D01*
X95083148Y-120946907D01*
X95076487Y-120979609D01*
X95068439Y-121011343D01*
X95059004Y-121042108D01*
X95048182Y-121071905D01*
X95035973Y-121100734D01*
X95022376Y-121128594D01*
X95007393Y-121155486D01*
X94991022Y-121181410D01*
X94973264Y-121206365D01*
X94954119Y-121230352D01*
X94933587Y-121253370D01*
X94911668Y-121275420D01*
X94888846Y-121297258D01*
X94865326Y-121317688D01*
X94841108Y-121336709D01*
X94816192Y-121354320D01*
X94790578Y-121370523D01*
X94764266Y-121385317D01*
X94737257Y-121398702D01*
X94709549Y-121410678D01*
X94681144Y-121421245D01*
X94652040Y-121430403D01*
X94622239Y-121438152D01*
X94591740Y-121444492D01*
X94560542Y-121449423D01*
X94528647Y-121452946D01*
X94496054Y-121455059D01*
X94462763Y-121455764D01*
X93503537Y-121455764D01*
X93503537Y-120451870D01*
X93849149Y-120451870D01*
X93849149Y-121137510D01*
X94380129Y-121137510D01*
X94392033Y-121137205D01*
X94415239Y-121136018D01*
X94437642Y-121134064D01*
X94469743Y-121129693D01*
X94500037Y-121123595D01*
X94528525Y-121115770D01*
X94555208Y-121106217D01*
X94580084Y-121094937D01*
X94603155Y-121081929D01*
X94624420Y-121067194D01*
X94643879Y-121050732D01*
X94661532Y-121032542D01*
X94672282Y-121019901D01*
X94687107Y-121000383D01*
X94700372Y-120980198D01*
X94712075Y-120959345D01*
X94722219Y-120937825D01*
X94730802Y-120915638D01*
X94737824Y-120892783D01*
X94743286Y-120869261D01*
X94747187Y-120845071D01*
X94749528Y-120820214D01*
X94750308Y-120794690D01*
X94749961Y-120777259D01*
X94748141Y-120751702D01*
X94744759Y-120726852D01*
X94739818Y-120702708D01*
X94733316Y-120679271D01*
X94725253Y-120656540D01*
X94715630Y-120634516D01*
X94704446Y-120613199D01*
X94691702Y-120592589D01*
X94677397Y-120572685D01*
X94661532Y-120553487D01*
X94655848Y-120547438D01*
X94637593Y-120530404D01*
X94617532Y-120515037D01*
X94595665Y-120501339D01*
X94571993Y-120489310D01*
X94546514Y-120478949D01*
X94519230Y-120470257D01*
X94490139Y-120463233D01*
X94459243Y-120457877D01*
X94426541Y-120454190D01*
X94403736Y-120452659D01*
X94380129Y-120451870D01*
X93849149Y-120451870D01*
X93503537Y-120451870D01*
X93503537Y-119487060D01*
X93849149Y-119487060D01*
X93849149Y-120136966D01*
X94347745Y-120136966D01*
X94370947Y-120136583D01*
X94404294Y-120134567D01*
X94435893Y-120130825D01*
X94465746Y-120125355D01*
X94493851Y-120118157D01*
X94520210Y-120109233D01*
X94544822Y-120098581D01*
X94567686Y-120086201D01*
X94588804Y-120072094D01*
X94608175Y-120056260D01*
X94625798Y-120038699D01*
X94636751Y-120027211D01*
X94651856Y-120009301D01*
X94665371Y-119990577D01*
X94677295Y-119971038D01*
X94687630Y-119950684D01*
X94696375Y-119929516D01*
X94703530Y-119907533D01*
X94709094Y-119884735D01*
X94713069Y-119861123D01*
X94715454Y-119836696D01*
X94716249Y-119811455D01*
X94715896Y-119794452D01*
X94714041Y-119769568D01*
X94710596Y-119745431D01*
X94705561Y-119722040D01*
X94698936Y-119699394D01*
X94690722Y-119677495D01*
X94680917Y-119656341D01*
X94669522Y-119635933D01*
X94656538Y-119616272D01*
X94641963Y-119597356D01*
X94625798Y-119579186D01*
X94620117Y-119573721D01*
X94601903Y-119558326D01*
X94581932Y-119544434D01*
X94560204Y-119532043D01*
X94536720Y-119521154D01*
X94511478Y-119511766D01*
X94484480Y-119503880D01*
X94455725Y-119497496D01*
X94425213Y-119492613D01*
X94392945Y-119489232D01*
X94370456Y-119487812D01*
X94347187Y-119487060D01*
X93849149Y-119487060D01*
X93503537Y-119487060D01*
X93503537Y-119168806D01*
X94386271Y-119168806D01*
X94427632Y-119169860D01*
G37*
G36*
X95455490Y-121455764D02*
G01*
X96910522Y-121455764D01*
X96910522Y-121137510D01*
X95801102Y-121137510D01*
X95801102Y-120451870D01*
X96748045Y-120451870D01*
X96748045Y-120136966D01*
X95801102Y-120136966D01*
X95801102Y-119487060D01*
X96910522Y-119487060D01*
X96910522Y-119168806D01*
X95455490Y-119168806D01*
X95455490Y-121455764D01*
G37*
G36*
X98943435Y-121455764D02*
G01*
X98579398Y-121455764D01*
X98402963Y-120952142D01*
X97538654Y-120952142D01*
X97363894Y-121455764D01*
X96998181Y-121455764D01*
X97294537Y-120637238D01*
X97638596Y-120637238D01*
X98304137Y-120637238D01*
X97974717Y-119640603D01*
X97968017Y-119640603D01*
X97638596Y-120637238D01*
X97294537Y-120637238D01*
X97826198Y-119168806D01*
X98115418Y-119168806D01*
X98943435Y-121455764D01*
G37*
G36*
X99334272Y-121455764D02*
G01*
X99681559Y-121455764D01*
X99681559Y-119487060D01*
X100304666Y-119487060D01*
X100304666Y-119168806D01*
X98711166Y-119168806D01*
X98711166Y-119487060D01*
X99334272Y-119487060D01*
X99334272Y-121455764D01*
G37*
G36*
X100575460Y-120912500D02*
G01*
X100349333Y-121171011D01*
X100372224Y-121190728D01*
X100395394Y-121209819D01*
X100418841Y-121228285D01*
X100442567Y-121246125D01*
X100466571Y-121263338D01*
X100490852Y-121279926D01*
X100515412Y-121295888D01*
X100540250Y-121311223D01*
X100565366Y-121325933D01*
X100590760Y-121340017D01*
X100616432Y-121353475D01*
X100642383Y-121366307D01*
X100668611Y-121378513D01*
X100695117Y-121390093D01*
X100721902Y-121401047D01*
X100748964Y-121411376D01*
X100776305Y-121421078D01*
X100803924Y-121430154D01*
X100831820Y-121438604D01*
X100859995Y-121446429D01*
X100888448Y-121453627D01*
X100917179Y-121460200D01*
X100946188Y-121466146D01*
X100975475Y-121471467D01*
X101005041Y-121476161D01*
X101034884Y-121480230D01*
X101065005Y-121483673D01*
X101095405Y-121486490D01*
X101126083Y-121488680D01*
X101157038Y-121490245D01*
X101188272Y-121491184D01*
X101219784Y-121491497D01*
X101267961Y-121490276D01*
X101314642Y-121487798D01*
X101359829Y-121484064D01*
X101403521Y-121479074D01*
X101445717Y-121472828D01*
X101486419Y-121465325D01*
X101525625Y-121456566D01*
X101563337Y-121446551D01*
X101599553Y-121435279D01*
X101634274Y-121422752D01*
X101667500Y-121408968D01*
X101699231Y-121393927D01*
X101729467Y-121377631D01*
X101758208Y-121360078D01*
X101785454Y-121341269D01*
X101811204Y-121321204D01*
X101835460Y-121299882D01*
X101858221Y-121277304D01*
X101879486Y-121253470D01*
X101899256Y-121228380D01*
X101917532Y-121202033D01*
X101934312Y-121174430D01*
X101949597Y-121145571D01*
X101963387Y-121115456D01*
X101975682Y-121084084D01*
X101986482Y-121051456D01*
X101995786Y-121017572D01*
X102003596Y-120982431D01*
X102009910Y-120946035D01*
X102014730Y-120908382D01*
X102018054Y-120869472D01*
X102019884Y-120829307D01*
X102019290Y-120799318D01*
X102017511Y-120769792D01*
X102014545Y-120740727D01*
X102010392Y-120712126D01*
X102005053Y-120683986D01*
X101998527Y-120656309D01*
X101990815Y-120629094D01*
X101981917Y-120602342D01*
X101971832Y-120576052D01*
X101960560Y-120550225D01*
X101948102Y-120524859D01*
X101934458Y-120499957D01*
X101919627Y-120475516D01*
X101903610Y-120451538D01*
X101886406Y-120428023D01*
X101868015Y-120404969D01*
X101848238Y-120382285D01*
X101827152Y-120360712D01*
X101804757Y-120340252D01*
X101781054Y-120320904D01*
X101756042Y-120302669D01*
X101729722Y-120285546D01*
X101702093Y-120269535D01*
X101673155Y-120254636D01*
X101642909Y-120240850D01*
X101611354Y-120228176D01*
X101578490Y-120216615D01*
X101544318Y-120206166D01*
X101508838Y-120196829D01*
X101472048Y-120188604D01*
X101433950Y-120181492D01*
X101394544Y-120175492D01*
X101364683Y-120171667D01*
X101336029Y-120167941D01*
X101308583Y-120164313D01*
X101282344Y-120160783D01*
X101257312Y-120157351D01*
X101233487Y-120154018D01*
X101210869Y-120150782D01*
X101182590Y-120146621D01*
X101156457Y-120142634D01*
X101138266Y-120139758D01*
X101107360Y-120133454D01*
X101078083Y-120126266D01*
X101050436Y-120118196D01*
X101024417Y-120109241D01*
X101000028Y-120099404D01*
X100977268Y-120088683D01*
X100956137Y-120077079D01*
X100936636Y-120064592D01*
X100913168Y-120046568D01*
X100892597Y-120026974D01*
X100874669Y-120006847D01*
X100859132Y-119986110D01*
X100845984Y-119964762D01*
X100835228Y-119942804D01*
X100826861Y-119920235D01*
X100820885Y-119897055D01*
X100817300Y-119873265D01*
X100816105Y-119848863D01*
X100817675Y-119818901D01*
X100821130Y-119790362D01*
X100826469Y-119763246D01*
X100833692Y-119737553D01*
X100842800Y-119713284D01*
X100853792Y-119690437D01*
X100866669Y-119669013D01*
X100881430Y-119649013D01*
X100898076Y-119630436D01*
X100916606Y-119613281D01*
X100930006Y-119602636D01*
X100950462Y-119588367D01*
X100971842Y-119575502D01*
X100994144Y-119564040D01*
X101017368Y-119553982D01*
X101041515Y-119545327D01*
X101066585Y-119538076D01*
X101092577Y-119532228D01*
X101119492Y-119527784D01*
X101147329Y-119524743D01*
X101176089Y-119523105D01*
X101195775Y-119522793D01*
X101234098Y-119524194D01*
X101272015Y-119526859D01*
X101309526Y-119530789D01*
X101346631Y-119535984D01*
X101383331Y-119542444D01*
X101419626Y-119550169D01*
X101455514Y-119559160D01*
X101490997Y-119569415D01*
X101526074Y-119580935D01*
X101560746Y-119593720D01*
X101595012Y-119607770D01*
X101628872Y-119623085D01*
X101662326Y-119639665D01*
X101695375Y-119657510D01*
X101728018Y-119676620D01*
X101760256Y-119696995D01*
X101952325Y-119408334D01*
X101932570Y-119394172D01*
X101912600Y-119380441D01*
X101892413Y-119367141D01*
X101872011Y-119354271D01*
X101851393Y-119341832D01*
X101830559Y-119329824D01*
X101809509Y-119318247D01*
X101788243Y-119307100D01*
X101766761Y-119296384D01*
X101745063Y-119286099D01*
X101723149Y-119276245D01*
X101701020Y-119266821D01*
X101678674Y-119257828D01*
X101656113Y-119249266D01*
X101633335Y-119241135D01*
X101610342Y-119233434D01*
X101587133Y-119226164D01*
X101563708Y-119219325D01*
X101540066Y-119212917D01*
X101516209Y-119206939D01*
X101492137Y-119201392D01*
X101467848Y-119196276D01*
X101443343Y-119191591D01*
X101418622Y-119187336D01*
X101393686Y-119183512D01*
X101368533Y-119180119D01*
X101343165Y-119177157D01*
X101317580Y-119174625D01*
X101291780Y-119172524D01*
X101265764Y-119170854D01*
X101239532Y-119169615D01*
X101213084Y-119168806D01*
X101169601Y-119169919D01*
X101127370Y-119172418D01*
X101086391Y-119176305D01*
X101046664Y-119181578D01*
X101008188Y-119188239D01*
X100970965Y-119196287D01*
X100934994Y-119205722D01*
X100900274Y-119216544D01*
X100866806Y-119228754D01*
X100834591Y-119242350D01*
X100803627Y-119257334D01*
X100773915Y-119273704D01*
X100745455Y-119291462D01*
X100718247Y-119310607D01*
X100692291Y-119331139D01*
X100667586Y-119353058D01*
X100643584Y-119376332D01*
X100621131Y-119400508D01*
X100600226Y-119425588D01*
X100580869Y-119451570D01*
X100563061Y-119478456D01*
X100546802Y-119506244D01*
X100532091Y-119534935D01*
X100518928Y-119564529D01*
X100507315Y-119595026D01*
X100497249Y-119626426D01*
X100488732Y-119658729D01*
X100481764Y-119691935D01*
X100476344Y-119726044D01*
X100472473Y-119761056D01*
X100470150Y-119796971D01*
X100469376Y-119833788D01*
X100469993Y-119864551D01*
X100471845Y-119894726D01*
X100474931Y-119924311D01*
X100479252Y-119953308D01*
X100484807Y-119981715D01*
X100491596Y-120009534D01*
X100499620Y-120036764D01*
X100508878Y-120063405D01*
X100519371Y-120089457D01*
X100531099Y-120114921D01*
X100544060Y-120139795D01*
X100558257Y-120164081D01*
X100573687Y-120187777D01*
X100590352Y-120210885D01*
X100608252Y-120233404D01*
X100627386Y-120255334D01*
X100647059Y-120275943D01*
X100667831Y-120295613D01*
X100689702Y-120314346D01*
X100712672Y-120332141D01*
X100736742Y-120348998D01*
X100761911Y-120364917D01*
X100788179Y-120379898D01*
X100815546Y-120393942D01*
X100844013Y-120407048D01*
X100873579Y-120419216D01*
X100904244Y-120430446D01*
X100936008Y-120440738D01*
X100968871Y-120450092D01*
X101002834Y-120458509D01*
X101037896Y-120465987D01*
X101074057Y-120472528D01*
X101104600Y-120476881D01*
X101134672Y-120481145D01*
X101164273Y-120485322D01*
X101193402Y-120489409D01*
X101222061Y-120493409D01*
X101250248Y-120497320D01*
X101277964Y-120501143D01*
X101305210Y-120504877D01*
X101331984Y-120508523D01*
X101358287Y-120512081D01*
X101375560Y-120514404D01*
X101411922Y-120521684D01*
X101445911Y-120530543D01*
X101477527Y-120540982D01*
X101506770Y-120552999D01*
X101533640Y-120566595D01*
X101558137Y-120581771D01*
X101580261Y-120598525D01*
X101600013Y-120616859D01*
X101617391Y-120636772D01*
X101632396Y-120658263D01*
X101645029Y-120681334D01*
X101655288Y-120705984D01*
X101663175Y-120732213D01*
X101668688Y-120760021D01*
X101671829Y-120789408D01*
X101672597Y-120820374D01*
X101670119Y-120858057D01*
X101664222Y-120893359D01*
X101654904Y-120926279D01*
X101642167Y-120956818D01*
X101626010Y-120984975D01*
X101606434Y-121010750D01*
X101583437Y-121034143D01*
X101557021Y-121055155D01*
X101527184Y-121073785D01*
X101493928Y-121090034D01*
X101457252Y-121103901D01*
X101417157Y-121115386D01*
X101373641Y-121124490D01*
X101350601Y-121128148D01*
X101326706Y-121131211D01*
X101301956Y-121133679D01*
X101276350Y-121135552D01*
X101249890Y-121136829D01*
X101222575Y-121137510D01*
X101199226Y-121137088D01*
X101176078Y-121136239D01*
X101153133Y-121134963D01*
X101130388Y-121133262D01*
X101107846Y-121131133D01*
X101085505Y-121128579D01*
X101063366Y-121125598D01*
X101019694Y-121118357D01*
X100976828Y-121109411D01*
X100934770Y-121098759D01*
X100893518Y-121086401D01*
X100853073Y-121072338D01*
X100813435Y-121056569D01*
X100774605Y-121039095D01*
X100736581Y-121019915D01*
X100699364Y-120999030D01*
X100662954Y-120976439D01*
X100627352Y-120952142D01*
X100592556Y-120926140D01*
X100575460Y-120912500D01*
G37*
G36*
X92842605Y-147918714D02*
G01*
X92876906Y-147920481D01*
X92910391Y-147923425D01*
X92943061Y-147927547D01*
X92974914Y-147932847D01*
X93005952Y-147939325D01*
X93036175Y-147946980D01*
X93065581Y-147955813D01*
X93094172Y-147965824D01*
X93121947Y-147977013D01*
X93148907Y-147989379D01*
X93175051Y-148002923D01*
X93200379Y-148017645D01*
X93224891Y-148033545D01*
X93248588Y-148050622D01*
X93271469Y-148068877D01*
X93297807Y-148090803D01*
X93322522Y-148113867D01*
X93345614Y-148138070D01*
X93367084Y-148163411D01*
X93386932Y-148189890D01*
X93405156Y-148217509D01*
X93421758Y-148246265D01*
X93436737Y-148276160D01*
X93450094Y-148307194D01*
X93461828Y-148339366D01*
X93471939Y-148372677D01*
X93480427Y-148407126D01*
X93487293Y-148442713D01*
X93492536Y-148479439D01*
X93496157Y-148517304D01*
X93498154Y-148556307D01*
X93497352Y-148585154D01*
X93495712Y-148613417D01*
X93493234Y-148641097D01*
X93489919Y-148668193D01*
X93485766Y-148694706D01*
X93480776Y-148720635D01*
X93474948Y-148745981D01*
X93468283Y-148770744D01*
X93460781Y-148794923D01*
X93452440Y-148818519D01*
X93443263Y-148841532D01*
X93433248Y-148863961D01*
X93422395Y-148885806D01*
X93410705Y-148907068D01*
X93398177Y-148927747D01*
X93384812Y-148947842D01*
X93370609Y-148967354D01*
X93355569Y-148986283D01*
X93339691Y-149004628D01*
X93322976Y-149022389D01*
X93305423Y-149039568D01*
X93287032Y-149056162D01*
X93267805Y-149072174D01*
X93247739Y-149087602D01*
X93226837Y-149102446D01*
X93205096Y-149116707D01*
X93182518Y-149130385D01*
X93159103Y-149143479D01*
X93134850Y-149155990D01*
X93109760Y-149167917D01*
X93083832Y-149179261D01*
X93057067Y-149190022D01*
X93585255Y-150205083D01*
X93174318Y-150205083D01*
X92704196Y-149236922D01*
X92263667Y-149236922D01*
X92263667Y-150205083D01*
X91918055Y-150205083D01*
X91918055Y-148236379D01*
X92263667Y-148236379D01*
X92263667Y-148922019D01*
X92785714Y-148922019D01*
X92797728Y-148921707D01*
X92821187Y-148920468D01*
X92843887Y-148918410D01*
X92876514Y-148913784D01*
X92907433Y-148907313D01*
X92936644Y-148898996D01*
X92964148Y-148888835D01*
X92989944Y-148876829D01*
X93014032Y-148862977D01*
X93036412Y-148847280D01*
X93057085Y-148829738D01*
X93076050Y-148810351D01*
X93087612Y-148797538D01*
X93103555Y-148777639D01*
X93117821Y-148756925D01*
X93130408Y-148735397D01*
X93141317Y-148713054D01*
X93150547Y-148689897D01*
X93158100Y-148665925D01*
X93163974Y-148641138D01*
X93168169Y-148615537D01*
X93170687Y-148589121D01*
X93171526Y-148561890D01*
X93170689Y-148540215D01*
X93167862Y-148509126D01*
X93163151Y-148479745D01*
X93156556Y-148452071D01*
X93148076Y-148426105D01*
X93137712Y-148401847D01*
X93125463Y-148379296D01*
X93111330Y-148358453D01*
X93095313Y-148339318D01*
X93077411Y-148321891D01*
X93057625Y-148306171D01*
X93034489Y-148289813D01*
X93008910Y-148275637D01*
X92988123Y-148266436D01*
X92965961Y-148258461D01*
X92942426Y-148251714D01*
X92917517Y-148246193D01*
X92891233Y-148241899D01*
X92863576Y-148238832D01*
X92834544Y-148236992D01*
X92804139Y-148236379D01*
X92263667Y-148236379D01*
X91918055Y-148236379D01*
X91918055Y-147918125D01*
X92807489Y-147918125D01*
X92842605Y-147918714D01*
G37*
G36*
X94639600Y-147919020D02*
G01*
X94672586Y-147920865D01*
X94704856Y-147923661D01*
X94736411Y-147927408D01*
X94767251Y-147932106D01*
X94797375Y-147937754D01*
X94826784Y-147944354D01*
X94855477Y-147951905D01*
X94883455Y-147960406D01*
X94910718Y-147969859D01*
X94937265Y-147980262D01*
X94963097Y-147991617D01*
X94988213Y-148003922D01*
X95012615Y-148017178D01*
X95036300Y-148031385D01*
X95059271Y-148046543D01*
X95070410Y-148054324D01*
X95092102Y-148070084D01*
X95113014Y-148086110D01*
X95133144Y-148102402D01*
X95152494Y-148118960D01*
X95171063Y-148135784D01*
X95188852Y-148152875D01*
X95205859Y-148170231D01*
X95222086Y-148187854D01*
X95237532Y-148205743D01*
X95252197Y-148223897D01*
X95266081Y-148242318D01*
X95279185Y-148261005D01*
X95291508Y-148279958D01*
X95303050Y-148299177D01*
X95318898Y-148328505D01*
X95322458Y-148333755D01*
X95336011Y-148355770D01*
X95348465Y-148379408D01*
X95359819Y-148404668D01*
X95370074Y-148431551D01*
X95377044Y-148452779D01*
X95383396Y-148474919D01*
X95389129Y-148497971D01*
X95394244Y-148521937D01*
X95398741Y-148546815D01*
X95401175Y-148564665D01*
X95404532Y-148595299D01*
X95406573Y-148618296D01*
X95408457Y-148643351D01*
X95410185Y-148670466D01*
X95411755Y-148699639D01*
X95413168Y-148730871D01*
X95414425Y-148764162D01*
X95415524Y-148799512D01*
X95416466Y-148836920D01*
X95417251Y-148876388D01*
X95417879Y-148917914D01*
X95418350Y-148961500D01*
X95418527Y-148984065D01*
X95418664Y-149007144D01*
X95418763Y-149030738D01*
X95418822Y-149054847D01*
X95418841Y-149079471D01*
X95418822Y-149103720D01*
X95418763Y-149127473D01*
X95418664Y-149150729D01*
X95418527Y-149173490D01*
X95418134Y-149217522D01*
X95417585Y-149259570D01*
X95416878Y-149299633D01*
X95416015Y-149337711D01*
X95414994Y-149373805D01*
X95413816Y-149407914D01*
X95412481Y-149440038D01*
X95410989Y-149470177D01*
X95409341Y-149498332D01*
X95407535Y-149524502D01*
X95405572Y-149548687D01*
X95402333Y-149581244D01*
X95398741Y-149609335D01*
X95397311Y-149617901D01*
X95392608Y-149642957D01*
X95387287Y-149667052D01*
X95381347Y-149690185D01*
X95374790Y-149712356D01*
X95367614Y-149733565D01*
X95357084Y-149760348D01*
X95345454Y-149785421D01*
X95332726Y-149808784D01*
X95318898Y-149830437D01*
X95313811Y-149840276D01*
X95297376Y-149869355D01*
X95285444Y-149888376D01*
X95272731Y-149907104D01*
X95259237Y-149925540D01*
X95244962Y-149943684D01*
X95229907Y-149961535D01*
X95214070Y-149979095D01*
X95197453Y-149996362D01*
X95180055Y-150013337D01*
X95161876Y-150030019D01*
X95142917Y-150046409D01*
X95123177Y-150062508D01*
X95102655Y-150078313D01*
X95081353Y-150093827D01*
X95059271Y-150109048D01*
X95036235Y-150124285D01*
X95012492Y-150138588D01*
X94988043Y-150151957D01*
X94962887Y-150164394D01*
X94937025Y-150175896D01*
X94910456Y-150186465D01*
X94883180Y-150196101D01*
X94855198Y-150204803D01*
X94826509Y-150212572D01*
X94797113Y-150219407D01*
X94767011Y-150225309D01*
X94736202Y-150230278D01*
X94704686Y-150234312D01*
X94672464Y-150237414D01*
X94639535Y-150239582D01*
X94605899Y-150240816D01*
X94572676Y-150239582D01*
X94540146Y-150237414D01*
X94508310Y-150234312D01*
X94477167Y-150230278D01*
X94446718Y-150225309D01*
X94416963Y-150219407D01*
X94387901Y-150212572D01*
X94359532Y-150204803D01*
X94331857Y-150196101D01*
X94304876Y-150186465D01*
X94278588Y-150175896D01*
X94252994Y-150164394D01*
X94228093Y-150151957D01*
X94203886Y-150138588D01*
X94180373Y-150124285D01*
X94157553Y-150109048D01*
X94135119Y-150093827D01*
X94113462Y-150078313D01*
X94092581Y-150062508D01*
X94072476Y-150046409D01*
X94053148Y-150030019D01*
X94034596Y-150013337D01*
X94016821Y-149996362D01*
X93999822Y-149979095D01*
X93983600Y-149961535D01*
X93968154Y-149943684D01*
X93953484Y-149925540D01*
X93939591Y-149907104D01*
X93926475Y-149888376D01*
X93914135Y-149869355D01*
X93902571Y-149850042D01*
X93891784Y-149830437D01*
X93885581Y-149817534D01*
X93875104Y-149795332D01*
X93865108Y-149773611D01*
X93855592Y-149752370D01*
X93846558Y-149731611D01*
X93844211Y-149725441D01*
X93836410Y-149702300D01*
X93830233Y-149680551D01*
X93824528Y-149657035D01*
X93819293Y-149631753D01*
X93815291Y-149609335D01*
X93813848Y-149600467D01*
X93809795Y-149570888D01*
X93807322Y-149548687D01*
X93805032Y-149524502D01*
X93802925Y-149498332D01*
X93801001Y-149470177D01*
X93799261Y-149440038D01*
X93797703Y-149407914D01*
X93796329Y-149373805D01*
X93795139Y-149337711D01*
X93794131Y-149299633D01*
X93793306Y-149259570D01*
X93792665Y-149217522D01*
X93792207Y-149173490D01*
X93792047Y-149150729D01*
X93791932Y-149127473D01*
X93791864Y-149103720D01*
X93791841Y-149079471D01*
X94138569Y-149079471D01*
X94138594Y-149100128D01*
X94138790Y-149140175D01*
X94139183Y-149178535D01*
X94139772Y-149215207D01*
X94140557Y-149250190D01*
X94141538Y-149283485D01*
X94142716Y-149315093D01*
X94144090Y-149345012D01*
X94145660Y-149373243D01*
X94147427Y-149399786D01*
X94149390Y-149424641D01*
X94151549Y-149447807D01*
X94155156Y-149479392D01*
X94159205Y-149507179D01*
X94163695Y-149531167D01*
X94169845Y-149559922D01*
X94177409Y-149587280D01*
X94186386Y-149613243D01*
X94196776Y-149637810D01*
X94208580Y-149660981D01*
X94221797Y-149682756D01*
X94236427Y-149703136D01*
X94252471Y-149722119D01*
X94263034Y-149734975D01*
X94281993Y-149755375D01*
X94298377Y-149770773D01*
X94315842Y-149785351D01*
X94334389Y-149799109D01*
X94354019Y-149812047D01*
X94374729Y-149824164D01*
X94396522Y-149835462D01*
X94402034Y-149838622D01*
X94424747Y-149850260D01*
X94448525Y-149860293D01*
X94473366Y-149868720D01*
X94499272Y-149875542D01*
X94526243Y-149880759D01*
X94554277Y-149884371D01*
X94583377Y-149886378D01*
X94605899Y-149886829D01*
X94613580Y-149886779D01*
X94636242Y-149886027D01*
X94665572Y-149883619D01*
X94693890Y-149879606D01*
X94721196Y-149873987D01*
X94747491Y-149866764D01*
X94772773Y-149857935D01*
X94797043Y-149847501D01*
X94820302Y-149835462D01*
X94825608Y-149832714D01*
X94846179Y-149821212D01*
X94865704Y-149808889D01*
X94884181Y-149795746D01*
X94901612Y-149781783D01*
X94921928Y-149763177D01*
X94940608Y-149743289D01*
X94957653Y-149722119D01*
X94961800Y-149717538D01*
X94977568Y-149698319D01*
X94992028Y-149677669D01*
X95005180Y-149655588D01*
X95017023Y-149632077D01*
X95027557Y-149607135D01*
X95036783Y-149580762D01*
X95044700Y-149552959D01*
X95049779Y-149531167D01*
X95052619Y-149515597D01*
X95056535Y-149489076D01*
X95060038Y-149458758D01*
X95062145Y-149436435D01*
X95064069Y-149412424D01*
X95065809Y-149386725D01*
X95067367Y-149359338D01*
X95068741Y-149330263D01*
X95069932Y-149299500D01*
X95070939Y-149267049D01*
X95071764Y-149232909D01*
X95072405Y-149197082D01*
X95072863Y-149159566D01*
X95073138Y-149120363D01*
X95073229Y-149079471D01*
X95073206Y-149058811D01*
X95073023Y-149018737D01*
X95072657Y-148980325D01*
X95072107Y-148943575D01*
X95071374Y-148908487D01*
X95070458Y-148875060D01*
X95069359Y-148843296D01*
X95068077Y-148813194D01*
X95066611Y-148784753D01*
X95064962Y-148757975D01*
X95063130Y-148732858D01*
X95061115Y-148709404D01*
X95057748Y-148677338D01*
X95053970Y-148649011D01*
X95049779Y-148624424D01*
X95042843Y-148596333D01*
X95034599Y-148569568D01*
X95025046Y-148544128D01*
X95014185Y-148520015D01*
X95002015Y-148497228D01*
X94988536Y-148475767D01*
X94973749Y-148455631D01*
X94957653Y-148436822D01*
X94951031Y-148428188D01*
X94933333Y-148407384D01*
X94913998Y-148387697D01*
X94897352Y-148372753D01*
X94879660Y-148358524D01*
X94860921Y-148345011D01*
X94841135Y-148332212D01*
X94820302Y-148320130D01*
X94808799Y-148314708D01*
X94785035Y-148304832D01*
X94760258Y-148296247D01*
X94734470Y-148288954D01*
X94707670Y-148282952D01*
X94679857Y-148278241D01*
X94651033Y-148274821D01*
X94628751Y-148273104D01*
X94605899Y-148272112D01*
X94598325Y-148272362D01*
X94576002Y-148273595D01*
X94547169Y-148276370D01*
X94519400Y-148280435D01*
X94492696Y-148285792D01*
X94467056Y-148292439D01*
X94442480Y-148300378D01*
X94418969Y-148309608D01*
X94396522Y-148320130D01*
X94380076Y-148329125D01*
X94359095Y-148341744D01*
X94339195Y-148355079D01*
X94320378Y-148369129D01*
X94302642Y-148383894D01*
X94285987Y-148399375D01*
X94270415Y-148415571D01*
X94252471Y-148436822D01*
X94236427Y-148455754D01*
X94221797Y-148475976D01*
X94208580Y-148497489D01*
X94196776Y-148520294D01*
X94186386Y-148544390D01*
X94177409Y-148569777D01*
X94169845Y-148596455D01*
X94163695Y-148624424D01*
X94160652Y-148640400D01*
X94156456Y-148667480D01*
X94152702Y-148698300D01*
X94150445Y-148720923D01*
X94148384Y-148745209D01*
X94146519Y-148771156D01*
X94144851Y-148798766D01*
X94143379Y-148828037D01*
X94142103Y-148858970D01*
X94141023Y-148891566D01*
X94140140Y-148925823D01*
X94139453Y-148961742D01*
X94138962Y-148999323D01*
X94138668Y-149038566D01*
X94138569Y-149079471D01*
X93791841Y-149079471D01*
X93791864Y-149055089D01*
X93791932Y-149031216D01*
X93792047Y-149007852D01*
X93792207Y-148984998D01*
X93792665Y-148940817D01*
X93793306Y-148898674D01*
X93794131Y-148858567D01*
X93795139Y-148820497D01*
X93796329Y-148784465D01*
X93797703Y-148750469D01*
X93799261Y-148718511D01*
X93801001Y-148688590D01*
X93802925Y-148660706D01*
X93805032Y-148634858D01*
X93807322Y-148611048D01*
X93811100Y-148579153D01*
X93815291Y-148551840D01*
X93820233Y-148527171D01*
X93825636Y-148503415D01*
X93831500Y-148480572D01*
X93837825Y-148458641D01*
X93846977Y-148430820D01*
X93856948Y-148404622D01*
X93867740Y-148380046D01*
X93879352Y-148357093D01*
X93891784Y-148335763D01*
X93902571Y-148315798D01*
X93914135Y-148296104D01*
X93926475Y-148276679D01*
X93939591Y-148257526D01*
X93953484Y-148238643D01*
X93968154Y-148220030D01*
X93983600Y-148201687D01*
X93999822Y-148183616D01*
X94016821Y-148165814D01*
X94034596Y-148148283D01*
X94053148Y-148131023D01*
X94072476Y-148114033D01*
X94092581Y-148097313D01*
X94113462Y-148080864D01*
X94135119Y-148064685D01*
X94157553Y-148048777D01*
X94180373Y-148033348D01*
X94203886Y-148018888D01*
X94228093Y-148005396D01*
X94252994Y-147992873D01*
X94278588Y-147981318D01*
X94304876Y-147970731D01*
X94331857Y-147961113D01*
X94359532Y-147952463D01*
X94387901Y-147944782D01*
X94416963Y-147938069D01*
X94446718Y-147932324D01*
X94477167Y-147927547D01*
X94508310Y-147923739D01*
X94540146Y-147920900D01*
X94572676Y-147919028D01*
X94605899Y-147918125D01*
X94639600Y-147919020D01*
G37*
G36*
X96149707Y-150205083D02*
G01*
X96496994Y-150205083D01*
X96496994Y-148236379D01*
X97120101Y-148236379D01*
X97120101Y-147918125D01*
X95526601Y-147918125D01*
X95526601Y-148236379D01*
X96149707Y-148236379D01*
X96149707Y-150205083D01*
G37*
G36*
X98834202Y-150205083D02*
G01*
X98470165Y-150205083D01*
X98293729Y-149701461D01*
X97429420Y-149701461D01*
X97254660Y-150205083D01*
X96888948Y-150205083D01*
X97185304Y-149386557D01*
X97529363Y-149386557D01*
X98194903Y-149386557D01*
X97865483Y-148389922D01*
X97858783Y-148389922D01*
X97529363Y-149386557D01*
X97185304Y-149386557D01*
X97716965Y-147918125D01*
X98006185Y-147918125D01*
X98834202Y-150205083D01*
G37*
G36*
X99225039Y-150205083D02*
G01*
X99572326Y-150205083D01*
X99572326Y-148236379D01*
X100195433Y-148236379D01*
X100195433Y-147918125D01*
X98601933Y-147918125D01*
X98601933Y-148236379D01*
X99225039Y-148236379D01*
X99225039Y-150205083D01*
G37*
G36*
X100438310Y-150205083D02*
G01*
X100783922Y-150205083D01*
X100783922Y-147918125D01*
X100438310Y-147918125D01*
X100438310Y-150205083D01*
G37*
G36*
X102032011Y-147919020D02*
G01*
X102064996Y-147920865D01*
X102097267Y-147923661D01*
X102128821Y-147927408D01*
X102159661Y-147932106D01*
X102189785Y-147937754D01*
X102219194Y-147944354D01*
X102247887Y-147951905D01*
X102275865Y-147960406D01*
X102303128Y-147969859D01*
X102329675Y-147980262D01*
X102355507Y-147991617D01*
X102380624Y-148003922D01*
X102405025Y-148017178D01*
X102428711Y-148031385D01*
X102451681Y-148046543D01*
X102462820Y-148054324D01*
X102484512Y-148070084D01*
X102505424Y-148086110D01*
X102525555Y-148102402D01*
X102544905Y-148118960D01*
X102563474Y-148135784D01*
X102581262Y-148152875D01*
X102598270Y-148170231D01*
X102614496Y-148187854D01*
X102629942Y-148205743D01*
X102644607Y-148223897D01*
X102658492Y-148242318D01*
X102671595Y-148261005D01*
X102683918Y-148279958D01*
X102695460Y-148299177D01*
X102711309Y-148328505D01*
X102714869Y-148333755D01*
X102728422Y-148355770D01*
X102740875Y-148379408D01*
X102752229Y-148404668D01*
X102762485Y-148431551D01*
X102769455Y-148452779D01*
X102775806Y-148474919D01*
X102781540Y-148497971D01*
X102786655Y-148521937D01*
X102791151Y-148546815D01*
X102793585Y-148564665D01*
X102796942Y-148595299D01*
X102798983Y-148618296D01*
X102800868Y-148643351D01*
X102802595Y-148670466D01*
X102804165Y-148699639D01*
X102805579Y-148730871D01*
X102806835Y-148764162D01*
X102807934Y-148799512D01*
X102808876Y-148836920D01*
X102809662Y-148876388D01*
X102810290Y-148917914D01*
X102810761Y-148961500D01*
X102810937Y-148984065D01*
X102811075Y-149007144D01*
X102811173Y-149030738D01*
X102811232Y-149054847D01*
X102811251Y-149079471D01*
X102811232Y-149103720D01*
X102811173Y-149127473D01*
X102811075Y-149150729D01*
X102810937Y-149173490D01*
X102810545Y-149217522D01*
X102809995Y-149259570D01*
X102809289Y-149299633D01*
X102808425Y-149337711D01*
X102807404Y-149373805D01*
X102806226Y-149407914D01*
X102804892Y-149440038D01*
X102803400Y-149470177D01*
X102801751Y-149498332D01*
X102799945Y-149524502D01*
X102797982Y-149548687D01*
X102794743Y-149581244D01*
X102791151Y-149609335D01*
X102789721Y-149617901D01*
X102785018Y-149642957D01*
X102779697Y-149667052D01*
X102773758Y-149690185D01*
X102767200Y-149712356D01*
X102760024Y-149733565D01*
X102749494Y-149760348D01*
X102737865Y-149785421D01*
X102725136Y-149808784D01*
X102711309Y-149830437D01*
X102706221Y-149840276D01*
X102689787Y-149869355D01*
X102677854Y-149888376D01*
X102665141Y-149907104D01*
X102651647Y-149925540D01*
X102637372Y-149943684D01*
X102622317Y-149961535D01*
X102606481Y-149979095D01*
X102589863Y-149996362D01*
X102572466Y-150013337D01*
X102554287Y-150030019D01*
X102535327Y-150046409D01*
X102515587Y-150062508D01*
X102495066Y-150078313D01*
X102473764Y-150093827D01*
X102451681Y-150109048D01*
X102428645Y-150124285D01*
X102404903Y-150138588D01*
X102380454Y-150151957D01*
X102355298Y-150164394D01*
X102329435Y-150175896D01*
X102302866Y-150186465D01*
X102275590Y-150196101D01*
X102247608Y-150204803D01*
X102218919Y-150212572D01*
X102189523Y-150219407D01*
X102159421Y-150225309D01*
X102128612Y-150230278D01*
X102097096Y-150234312D01*
X102064874Y-150237414D01*
X102031945Y-150239582D01*
X101998310Y-150240816D01*
X101965086Y-150239582D01*
X101932557Y-150237414D01*
X101900720Y-150234312D01*
X101869578Y-150230278D01*
X101839128Y-150225309D01*
X101809373Y-150219407D01*
X101780311Y-150212572D01*
X101751943Y-150204803D01*
X101724268Y-150196101D01*
X101697286Y-150186465D01*
X101670999Y-150175896D01*
X101645404Y-150164394D01*
X101620504Y-150151957D01*
X101596297Y-150138588D01*
X101572783Y-150124285D01*
X101549963Y-150109048D01*
X101527529Y-150093827D01*
X101505872Y-150078313D01*
X101484991Y-150062508D01*
X101464886Y-150046409D01*
X101445558Y-150030019D01*
X101427007Y-150013337D01*
X101409231Y-149996362D01*
X101392233Y-149979095D01*
X101376010Y-149961535D01*
X101360564Y-149943684D01*
X101345895Y-149925540D01*
X101332002Y-149907104D01*
X101318885Y-149888376D01*
X101306545Y-149869355D01*
X101294981Y-149850042D01*
X101284194Y-149830437D01*
X101277991Y-149817534D01*
X101267514Y-149795332D01*
X101257518Y-149773611D01*
X101248003Y-149752370D01*
X101238968Y-149731611D01*
X101236622Y-149725441D01*
X101228820Y-149702300D01*
X101222644Y-149680551D01*
X101216938Y-149657035D01*
X101211704Y-149631753D01*
X101207701Y-149609335D01*
X101206259Y-149600467D01*
X101202205Y-149570888D01*
X101199732Y-149548687D01*
X101197442Y-149524502D01*
X101195335Y-149498332D01*
X101193411Y-149470177D01*
X101191671Y-149440038D01*
X101190114Y-149407914D01*
X101188740Y-149373805D01*
X101187549Y-149337711D01*
X101186541Y-149299633D01*
X101185717Y-149259570D01*
X101185076Y-149217522D01*
X101184618Y-149173490D01*
X101184457Y-149150729D01*
X101184343Y-149127473D01*
X101184274Y-149103720D01*
X101184251Y-149079471D01*
X101530980Y-149079471D01*
X101531004Y-149100128D01*
X101531201Y-149140175D01*
X101531593Y-149178535D01*
X101532182Y-149215207D01*
X101532967Y-149250190D01*
X101533949Y-149283485D01*
X101535126Y-149315093D01*
X101536500Y-149345012D01*
X101538071Y-149373243D01*
X101539837Y-149399786D01*
X101541800Y-149424641D01*
X101543960Y-149447807D01*
X101547566Y-149479392D01*
X101551615Y-149507179D01*
X101556105Y-149531167D01*
X101562256Y-149559922D01*
X101569819Y-149587280D01*
X101578796Y-149613243D01*
X101589187Y-149637810D01*
X101600990Y-149660981D01*
X101614207Y-149682756D01*
X101628837Y-149703136D01*
X101644881Y-149722119D01*
X101655445Y-149734975D01*
X101674403Y-149755375D01*
X101690787Y-149770773D01*
X101708252Y-149785351D01*
X101726800Y-149799109D01*
X101746429Y-149812047D01*
X101767140Y-149824164D01*
X101788932Y-149835462D01*
X101794444Y-149838622D01*
X101817158Y-149850260D01*
X101840935Y-149860293D01*
X101865777Y-149868720D01*
X101891683Y-149875542D01*
X101918653Y-149880759D01*
X101946688Y-149884371D01*
X101975787Y-149886378D01*
X101998310Y-149886829D01*
X102005990Y-149886779D01*
X102028652Y-149886027D01*
X102057982Y-149883619D01*
X102086300Y-149879606D01*
X102113607Y-149873987D01*
X102139901Y-149866764D01*
X102165183Y-149857935D01*
X102189454Y-149847501D01*
X102212712Y-149835462D01*
X102218018Y-149832714D01*
X102238590Y-149821212D01*
X102258114Y-149808889D01*
X102276592Y-149795746D01*
X102294022Y-149781783D01*
X102314338Y-149763177D01*
X102333019Y-149743289D01*
X102350063Y-149722119D01*
X102354210Y-149717538D01*
X102369979Y-149698319D01*
X102384439Y-149677669D01*
X102397590Y-149655588D01*
X102409433Y-149632077D01*
X102419967Y-149607135D01*
X102429193Y-149580762D01*
X102437110Y-149552959D01*
X102442189Y-149531167D01*
X102445029Y-149515597D01*
X102448945Y-149489076D01*
X102452449Y-149458758D01*
X102454556Y-149436435D01*
X102456479Y-149412424D01*
X102458220Y-149386725D01*
X102459777Y-149359338D01*
X102461151Y-149330263D01*
X102462342Y-149299500D01*
X102463349Y-149267049D01*
X102464174Y-149232909D01*
X102464815Y-149197082D01*
X102465273Y-149159566D01*
X102465548Y-149120363D01*
X102465640Y-149079471D01*
X102465617Y-149058811D01*
X102465433Y-149018737D01*
X102465067Y-148980325D01*
X102464517Y-148943575D01*
X102463785Y-148908487D01*
X102462869Y-148875060D01*
X102461769Y-148843296D01*
X102460487Y-148813194D01*
X102459021Y-148784753D01*
X102457372Y-148757975D01*
X102455540Y-148732858D01*
X102453525Y-148709404D01*
X102450159Y-148677338D01*
X102446380Y-148649011D01*
X102442189Y-148624424D01*
X102435254Y-148596333D01*
X102427009Y-148569568D01*
X102417457Y-148544128D01*
X102406595Y-148520015D01*
X102394425Y-148497228D01*
X102380946Y-148475767D01*
X102366159Y-148455631D01*
X102350063Y-148436822D01*
X102343442Y-148428188D01*
X102325743Y-148407384D01*
X102306408Y-148387697D01*
X102289763Y-148372753D01*
X102272070Y-148358524D01*
X102253331Y-148345011D01*
X102233545Y-148332212D01*
X102212712Y-148320130D01*
X102201209Y-148314708D01*
X102177445Y-148304832D01*
X102152669Y-148296247D01*
X102126880Y-148288954D01*
X102100080Y-148282952D01*
X102072268Y-148278241D01*
X102043444Y-148274821D01*
X102021161Y-148273104D01*
X101998310Y-148272112D01*
X101990736Y-148272362D01*
X101968412Y-148273595D01*
X101939579Y-148276370D01*
X101911811Y-148280435D01*
X101885106Y-148285792D01*
X101859466Y-148292439D01*
X101834891Y-148300378D01*
X101811379Y-148309608D01*
X101788932Y-148320130D01*
X101772487Y-148329125D01*
X101751505Y-148341744D01*
X101731606Y-148355079D01*
X101712788Y-148369129D01*
X101695052Y-148383894D01*
X101678398Y-148399375D01*
X101662825Y-148415571D01*
X101644881Y-148436822D01*
X101628837Y-148455754D01*
X101614207Y-148475976D01*
X101600990Y-148497489D01*
X101589187Y-148520294D01*
X101578796Y-148544390D01*
X101569819Y-148569777D01*
X101562256Y-148596455D01*
X101556105Y-148624424D01*
X101553063Y-148640400D01*
X101548867Y-148667480D01*
X101545113Y-148698300D01*
X101542855Y-148720923D01*
X101540794Y-148745209D01*
X101538930Y-148771156D01*
X101537261Y-148798766D01*
X101535789Y-148828037D01*
X101534513Y-148858970D01*
X101533433Y-148891566D01*
X101532550Y-148925823D01*
X101531863Y-148961742D01*
X101531372Y-148999323D01*
X101531078Y-149038566D01*
X101530980Y-149079471D01*
X101184251Y-149079471D01*
X101184274Y-149055089D01*
X101184343Y-149031216D01*
X101184457Y-149007852D01*
X101184618Y-148984998D01*
X101185076Y-148940817D01*
X101185717Y-148898674D01*
X101186541Y-148858567D01*
X101187549Y-148820497D01*
X101188740Y-148784465D01*
X101190114Y-148750469D01*
X101191671Y-148718511D01*
X101193411Y-148688590D01*
X101195335Y-148660706D01*
X101197442Y-148634858D01*
X101199732Y-148611048D01*
X101203511Y-148579153D01*
X101207701Y-148551840D01*
X101212643Y-148527171D01*
X101218046Y-148503415D01*
X101223910Y-148480572D01*
X101230236Y-148458641D01*
X101239387Y-148430820D01*
X101249359Y-148404622D01*
X101260150Y-148380046D01*
X101271762Y-148357093D01*
X101284194Y-148335763D01*
X101294981Y-148315798D01*
X101306545Y-148296104D01*
X101318885Y-148276679D01*
X101332002Y-148257526D01*
X101345895Y-148238643D01*
X101360564Y-148220030D01*
X101376010Y-148201687D01*
X101392233Y-148183616D01*
X101409231Y-148165814D01*
X101427007Y-148148283D01*
X101445558Y-148131023D01*
X101464886Y-148114033D01*
X101484991Y-148097313D01*
X101505872Y-148080864D01*
X101527529Y-148064685D01*
X101549963Y-148048777D01*
X101572783Y-148033348D01*
X101596297Y-148018888D01*
X101620504Y-148005396D01*
X101645404Y-147992873D01*
X101670999Y-147981318D01*
X101697286Y-147970731D01*
X101724268Y-147961113D01*
X101751943Y-147952463D01*
X101780311Y-147944782D01*
X101809373Y-147938069D01*
X101839128Y-147932324D01*
X101869578Y-147927547D01*
X101900720Y-147923739D01*
X101932557Y-147920900D01*
X101965086Y-147919028D01*
X101998310Y-147918125D01*
X102032011Y-147919020D01*
G37*
G36*
X103214372Y-150205083D02*
G01*
X103559984Y-150205083D01*
X103559984Y-148582549D01*
X103566126Y-148582549D01*
X104595703Y-150205083D01*
X104922332Y-150205083D01*
X104922332Y-147918125D01*
X104577278Y-147918125D01*
X104577278Y-149543451D01*
X104571136Y-149543451D01*
X103539326Y-147918125D01*
X103214372Y-147918125D01*
X103214372Y-150205083D01*
G37*
G36*
X91572805Y-73276553D02*
G01*
X92535382Y-73276553D01*
X92535382Y-72961650D01*
X91572805Y-72961650D01*
X91572805Y-73276553D01*
G37*
G36*
X103495579Y-73068851D02*
G01*
X102811055Y-73068851D01*
X102811055Y-73312287D01*
X103495579Y-73312287D01*
X103495579Y-73994578D01*
X103745157Y-73994578D01*
X103745157Y-73312287D01*
X104429681Y-73312287D01*
X104429681Y-73068851D01*
X103745157Y-73068851D01*
X103745157Y-72386561D01*
X103495579Y-72386561D01*
X103495579Y-73068851D01*
G37*
G36*
X92253250Y-147503521D02*
G01*
X92600537Y-147503521D01*
X92600537Y-145534817D01*
X93223643Y-145534817D01*
X93223643Y-145216563D01*
X91630144Y-145216563D01*
X91630144Y-145534817D01*
X92253250Y-145534817D01*
X92253250Y-147503521D01*
G37*
G36*
X93466521Y-147503521D02*
G01*
X94921553Y-147503521D01*
X94921553Y-147185267D01*
X93812133Y-147185267D01*
X93812133Y-146499627D01*
X94759076Y-146499627D01*
X94759076Y-146184723D01*
X93812133Y-146184723D01*
X93812133Y-145534817D01*
X94921553Y-145534817D01*
X94921553Y-145216563D01*
X93466521Y-145216563D01*
X93466521Y-147503521D01*
G37*
G36*
X95246506Y-147503521D02*
G01*
X95592118Y-147503521D01*
X95592118Y-146079756D01*
X95598260Y-146079756D01*
X96075081Y-147176334D01*
X96362626Y-147176334D01*
X96838889Y-146079756D01*
X96846706Y-146079756D01*
X96846706Y-147503521D01*
X97192318Y-147503521D01*
X97192318Y-145216563D01*
X96865690Y-145216563D01*
X96224716Y-146707329D01*
X95571460Y-145216563D01*
X95246506Y-145216563D01*
X95246506Y-147503521D01*
G37*
G36*
X98513940Y-145216661D02*
G01*
X98538975Y-145217177D01*
X98563843Y-145218134D01*
X98588545Y-145219532D01*
X98613080Y-145221372D01*
X98637448Y-145223654D01*
X98661649Y-145226378D01*
X98685683Y-145229543D01*
X98709550Y-145233150D01*
X98733251Y-145237198D01*
X98756784Y-145241689D01*
X98772363Y-145246075D01*
X98795789Y-145253660D01*
X98819284Y-145262452D01*
X98842847Y-145272451D01*
X98866478Y-145283658D01*
X98890179Y-145296072D01*
X98913948Y-145309693D01*
X98937786Y-145324521D01*
X98961693Y-145340556D01*
X98985668Y-145357799D01*
X99009712Y-145376248D01*
X99023023Y-145386067D01*
X99042392Y-145401761D01*
X99061044Y-145418612D01*
X99078980Y-145436622D01*
X99096200Y-145455790D01*
X99112703Y-145476116D01*
X99128490Y-145497600D01*
X99143560Y-145520242D01*
X99157914Y-145544042D01*
X99171551Y-145569001D01*
X99184472Y-145595117D01*
X99192991Y-145612483D01*
X99204739Y-145639266D01*
X99215251Y-145666934D01*
X99224525Y-145695484D01*
X99232564Y-145724918D01*
X99239365Y-145755235D01*
X99244930Y-145786436D01*
X99249258Y-145818519D01*
X99252350Y-145851487D01*
X99253724Y-145873955D01*
X99254548Y-145896817D01*
X99254823Y-145920071D01*
X99254127Y-145951580D01*
X99252040Y-145982736D01*
X99248561Y-146013538D01*
X99243691Y-146043987D01*
X99237429Y-146074083D01*
X99229776Y-146103825D01*
X99220732Y-146133214D01*
X99210295Y-146162250D01*
X99198468Y-146190933D01*
X99185249Y-146219262D01*
X99170638Y-146247238D01*
X99154636Y-146274860D01*
X99137242Y-146302130D01*
X99118457Y-146329045D01*
X99098281Y-146355608D01*
X99076713Y-146381817D01*
X99053230Y-146408345D01*
X99028425Y-146433211D01*
X99002299Y-146456414D01*
X98974851Y-146477956D01*
X98946081Y-146497836D01*
X98915990Y-146516054D01*
X98884576Y-146532610D01*
X98851842Y-146547504D01*
X98817785Y-146560736D01*
X98782407Y-146572307D01*
X98745707Y-146582215D01*
X98707685Y-146590462D01*
X98668342Y-146597046D01*
X98627677Y-146601969D01*
X98585691Y-146605229D01*
X98542382Y-146606828D01*
X98017543Y-146606828D01*
X98017543Y-147503521D01*
X97671931Y-147503521D01*
X97671931Y-145534817D01*
X98017543Y-145534817D01*
X98017543Y-146291925D01*
X98528424Y-146291925D01*
X98540335Y-146291602D01*
X98563602Y-146290281D01*
X98586128Y-146288056D01*
X98618526Y-146283026D01*
X98649255Y-146275964D01*
X98678316Y-146266871D01*
X98705708Y-146255746D01*
X98731432Y-146242590D01*
X98755488Y-146227402D01*
X98777875Y-146210182D01*
X98798593Y-146190931D01*
X98817643Y-146169648D01*
X98828799Y-146155101D01*
X98844184Y-146132904D01*
X98857949Y-146110255D01*
X98870094Y-146087155D01*
X98880620Y-146063603D01*
X98889527Y-146039600D01*
X98896814Y-146015145D01*
X98902482Y-145990239D01*
X98906531Y-145964882D01*
X98908960Y-145939073D01*
X98909769Y-145912812D01*
X98909185Y-145883944D01*
X98907431Y-145856246D01*
X98904509Y-145829716D01*
X98900417Y-145804355D01*
X98895157Y-145780163D01*
X98888727Y-145757140D01*
X98881128Y-145735287D01*
X98872361Y-145714602D01*
X98867353Y-145705716D01*
X98853765Y-145684533D01*
X98838651Y-145664822D01*
X98822010Y-145646584D01*
X98803842Y-145629817D01*
X98784147Y-145614523D01*
X98762926Y-145600701D01*
X98749530Y-145592395D01*
X98728930Y-145580984D01*
X98707720Y-145570830D01*
X98685903Y-145561931D01*
X98663476Y-145554289D01*
X98640442Y-145547903D01*
X98616798Y-145542773D01*
X98592547Y-145538900D01*
X98567686Y-145536282D01*
X98542218Y-145534921D01*
X98516140Y-145534817D01*
X98017543Y-145534817D01*
X97671931Y-145534817D01*
X97671931Y-145216563D01*
X98497157Y-145216563D01*
X98513940Y-145216661D01*
G37*
G36*
X100337643Y-145217458D02*
G01*
X100370629Y-145219303D01*
X100402899Y-145222099D01*
X100434454Y-145225846D01*
X100465293Y-145230544D01*
X100495418Y-145236192D01*
X100524826Y-145242792D01*
X100553520Y-145250343D01*
X100581498Y-145258844D01*
X100608760Y-145268297D01*
X100635308Y-145278700D01*
X100661140Y-145290055D01*
X100686256Y-145302360D01*
X100710657Y-145315616D01*
X100734343Y-145329823D01*
X100757314Y-145344981D01*
X100768453Y-145352762D01*
X100790145Y-145368522D01*
X100811056Y-145384548D01*
X100831187Y-145400840D01*
X100850537Y-145417398D01*
X100869106Y-145434222D01*
X100886895Y-145451313D01*
X100903902Y-145468669D01*
X100920129Y-145486292D01*
X100935575Y-145504181D01*
X100950240Y-145522335D01*
X100964124Y-145540756D01*
X100977228Y-145559443D01*
X100989551Y-145578396D01*
X101001092Y-145597615D01*
X101016941Y-145626943D01*
X101020501Y-145632193D01*
X101034054Y-145654208D01*
X101046508Y-145677846D01*
X101057862Y-145703106D01*
X101068117Y-145729989D01*
X101075087Y-145751217D01*
X101081439Y-145773357D01*
X101087172Y-145796409D01*
X101092287Y-145820375D01*
X101096784Y-145845253D01*
X101099218Y-145863103D01*
X101102574Y-145893737D01*
X101104616Y-145916734D01*
X101106500Y-145941789D01*
X101108228Y-145968904D01*
X101109798Y-145998077D01*
X101111211Y-146029309D01*
X101112467Y-146062600D01*
X101113567Y-146097950D01*
X101114509Y-146135358D01*
X101115294Y-146174826D01*
X101115922Y-146216352D01*
X101116393Y-146259938D01*
X101116570Y-146282503D01*
X101116707Y-146305582D01*
X101116805Y-146329176D01*
X101116864Y-146353285D01*
X101116884Y-146377909D01*
X101116864Y-146402158D01*
X101116805Y-146425911D01*
X101116707Y-146449167D01*
X101116570Y-146471928D01*
X101116177Y-146515960D01*
X101115628Y-146558008D01*
X101114921Y-146598071D01*
X101114057Y-146636149D01*
X101113037Y-146672243D01*
X101111859Y-146706352D01*
X101110524Y-146738476D01*
X101109032Y-146768615D01*
X101107384Y-146796770D01*
X101105578Y-146822940D01*
X101103615Y-146847125D01*
X101100376Y-146879682D01*
X101096784Y-146907773D01*
X101095354Y-146916339D01*
X101090651Y-146941395D01*
X101085330Y-146965490D01*
X101079390Y-146988623D01*
X101072832Y-147010794D01*
X101065656Y-147032003D01*
X101055126Y-147058786D01*
X101043497Y-147083859D01*
X101030769Y-147107222D01*
X101016941Y-147128875D01*
X101011854Y-147138714D01*
X100995419Y-147167793D01*
X100983487Y-147186814D01*
X100970774Y-147205542D01*
X100957280Y-147223978D01*
X100943005Y-147242122D01*
X100927949Y-147259973D01*
X100912113Y-147277533D01*
X100895496Y-147294800D01*
X100878098Y-147311775D01*
X100859919Y-147328457D01*
X100840960Y-147344847D01*
X100821219Y-147360946D01*
X100800698Y-147376751D01*
X100779396Y-147392265D01*
X100757314Y-147407486D01*
X100734278Y-147422723D01*
X100710535Y-147437026D01*
X100686086Y-147450395D01*
X100660930Y-147462832D01*
X100635068Y-147474334D01*
X100608499Y-147484903D01*
X100581223Y-147494539D01*
X100553241Y-147503241D01*
X100524552Y-147511010D01*
X100495156Y-147517845D01*
X100465054Y-147523747D01*
X100434245Y-147528716D01*
X100402729Y-147532750D01*
X100370507Y-147535852D01*
X100337578Y-147538020D01*
X100303942Y-147539254D01*
X100270719Y-147538020D01*
X100238189Y-147535852D01*
X100206353Y-147532750D01*
X100175210Y-147528716D01*
X100144761Y-147523747D01*
X100115005Y-147517845D01*
X100085943Y-147511010D01*
X100057575Y-147503241D01*
X100029900Y-147494539D01*
X100002919Y-147484903D01*
X99976631Y-147474334D01*
X99951037Y-147462832D01*
X99926136Y-147450395D01*
X99901929Y-147437026D01*
X99878416Y-147422723D01*
X99855596Y-147407486D01*
X99833162Y-147392265D01*
X99811505Y-147376751D01*
X99790624Y-147360946D01*
X99770519Y-147344847D01*
X99751191Y-147328457D01*
X99732639Y-147311775D01*
X99714864Y-147294800D01*
X99697865Y-147277533D01*
X99681643Y-147259973D01*
X99666197Y-147242122D01*
X99651527Y-147223978D01*
X99637634Y-147205542D01*
X99624518Y-147186814D01*
X99612177Y-147167793D01*
X99600614Y-147148480D01*
X99589826Y-147128875D01*
X99583624Y-147115972D01*
X99573147Y-147093770D01*
X99563150Y-147072049D01*
X99553635Y-147050808D01*
X99544601Y-147030049D01*
X99542254Y-147023879D01*
X99534453Y-147000738D01*
X99528276Y-146978989D01*
X99522571Y-146955473D01*
X99517336Y-146930191D01*
X99513334Y-146907773D01*
X99511891Y-146898905D01*
X99507838Y-146869326D01*
X99505365Y-146847125D01*
X99503074Y-146822940D01*
X99500968Y-146796770D01*
X99499044Y-146768615D01*
X99497304Y-146738476D01*
X99495746Y-146706352D01*
X99494372Y-146672243D01*
X99493181Y-146636149D01*
X99492174Y-146598071D01*
X99491349Y-146558008D01*
X99490708Y-146515960D01*
X99490250Y-146471928D01*
X99490090Y-146449167D01*
X99489975Y-146425911D01*
X99489907Y-146402158D01*
X99489884Y-146377909D01*
X99836612Y-146377909D01*
X99836637Y-146398566D01*
X99836833Y-146438613D01*
X99837226Y-146476973D01*
X99837815Y-146513645D01*
X99838600Y-146548628D01*
X99839581Y-146581923D01*
X99840759Y-146613531D01*
X99842133Y-146643450D01*
X99843703Y-146671681D01*
X99845470Y-146698224D01*
X99847433Y-146723079D01*
X99849592Y-146746245D01*
X99853199Y-146777830D01*
X99857247Y-146805617D01*
X99861738Y-146829605D01*
X99867888Y-146858360D01*
X99875452Y-146885718D01*
X99884429Y-146911681D01*
X99894819Y-146936248D01*
X99906623Y-146959419D01*
X99919840Y-146981194D01*
X99934470Y-147001574D01*
X99950514Y-147020557D01*
X99961077Y-147033413D01*
X99980036Y-147053813D01*
X99996419Y-147069211D01*
X100013885Y-147083789D01*
X100032432Y-147097547D01*
X100052061Y-147110485D01*
X100072772Y-147122602D01*
X100094565Y-147133900D01*
X100100077Y-147137060D01*
X100122790Y-147148698D01*
X100146567Y-147158731D01*
X100171409Y-147167158D01*
X100197315Y-147173980D01*
X100224286Y-147179197D01*
X100252320Y-147182809D01*
X100281419Y-147184816D01*
X100303942Y-147185267D01*
X100311623Y-147185217D01*
X100334284Y-147184465D01*
X100363615Y-147182057D01*
X100391933Y-147178044D01*
X100419239Y-147172425D01*
X100445534Y-147165202D01*
X100470816Y-147156373D01*
X100495086Y-147145939D01*
X100518344Y-147133900D01*
X100523651Y-147131152D01*
X100544222Y-147119650D01*
X100563747Y-147107327D01*
X100582224Y-147094184D01*
X100599655Y-147080221D01*
X100619971Y-147061615D01*
X100638651Y-147041727D01*
X100655696Y-147020557D01*
X100659843Y-147015976D01*
X100675611Y-146996757D01*
X100690071Y-146976107D01*
X100703223Y-146954026D01*
X100715066Y-146930515D01*
X100725600Y-146905573D01*
X100734826Y-146879200D01*
X100742743Y-146851397D01*
X100747822Y-146829605D01*
X100750662Y-146814035D01*
X100754578Y-146787514D01*
X100758081Y-146757196D01*
X100760188Y-146734873D01*
X100762112Y-146710862D01*
X100763852Y-146685163D01*
X100765410Y-146657776D01*
X100766784Y-146628701D01*
X100767974Y-146597938D01*
X100768982Y-146565487D01*
X100769806Y-146531347D01*
X100770448Y-146495520D01*
X100770906Y-146458004D01*
X100771180Y-146418801D01*
X100771272Y-146377909D01*
X100771249Y-146357249D01*
X100771066Y-146317175D01*
X100770700Y-146278763D01*
X100770150Y-146242013D01*
X100769417Y-146206925D01*
X100768501Y-146173498D01*
X100767402Y-146141734D01*
X100766119Y-146111632D01*
X100764654Y-146083191D01*
X100763005Y-146056413D01*
X100761173Y-146031296D01*
X100759158Y-146007842D01*
X100755791Y-145975776D01*
X100752013Y-145947449D01*
X100747822Y-145922862D01*
X100740886Y-145894771D01*
X100732642Y-145868006D01*
X100723089Y-145842566D01*
X100712228Y-145818453D01*
X100700058Y-145795666D01*
X100686579Y-145774205D01*
X100671792Y-145754069D01*
X100655696Y-145735260D01*
X100649074Y-145726626D01*
X100631375Y-145705822D01*
X100612041Y-145686135D01*
X100595395Y-145671191D01*
X100577703Y-145656962D01*
X100558964Y-145643449D01*
X100539177Y-145630650D01*
X100518344Y-145618568D01*
X100506842Y-145613146D01*
X100483077Y-145603270D01*
X100458301Y-145594685D01*
X100432513Y-145587392D01*
X100405713Y-145581390D01*
X100377900Y-145576679D01*
X100349076Y-145573259D01*
X100326794Y-145571542D01*
X100303942Y-145570550D01*
X100296368Y-145570800D01*
X100274045Y-145572033D01*
X100245212Y-145574808D01*
X100217443Y-145578873D01*
X100190739Y-145584230D01*
X100165099Y-145590877D01*
X100140523Y-145598816D01*
X100117012Y-145608046D01*
X100094565Y-145618568D01*
X100078119Y-145627563D01*
X100057138Y-145640182D01*
X100037238Y-145653517D01*
X100018420Y-145667567D01*
X100000684Y-145682332D01*
X99984030Y-145697813D01*
X99968458Y-145714009D01*
X99950514Y-145735260D01*
X99934470Y-145754192D01*
X99919840Y-145774414D01*
X99906623Y-145795927D01*
X99894819Y-145818732D01*
X99884429Y-145842828D01*
X99875452Y-145868215D01*
X99867888Y-145894893D01*
X99861738Y-145922862D01*
X99858695Y-145938838D01*
X99854499Y-145965918D01*
X99850745Y-145996738D01*
X99848488Y-146019361D01*
X99846427Y-146043647D01*
X99844562Y-146069594D01*
X99842894Y-146097204D01*
X99841421Y-146126475D01*
X99840146Y-146157408D01*
X99839066Y-146190004D01*
X99838183Y-146224261D01*
X99837496Y-146260180D01*
X99837005Y-146297761D01*
X99836710Y-146337004D01*
X99836612Y-146377909D01*
X99489884Y-146377909D01*
X99489907Y-146353527D01*
X99489975Y-146329654D01*
X99490090Y-146306290D01*
X99490250Y-146283436D01*
X99490708Y-146239255D01*
X99491349Y-146197112D01*
X99492174Y-146157005D01*
X99493181Y-146118935D01*
X99494372Y-146082903D01*
X99495746Y-146048907D01*
X99497304Y-146016949D01*
X99499044Y-145987028D01*
X99500968Y-145959144D01*
X99503074Y-145933296D01*
X99505365Y-145909486D01*
X99509143Y-145877591D01*
X99513334Y-145850278D01*
X99518276Y-145825609D01*
X99523679Y-145801853D01*
X99529543Y-145779010D01*
X99535868Y-145757079D01*
X99545020Y-145729258D01*
X99554991Y-145703060D01*
X99565783Y-145678484D01*
X99577395Y-145655531D01*
X99589826Y-145634201D01*
X99600614Y-145614236D01*
X99612177Y-145594542D01*
X99624518Y-145575117D01*
X99637634Y-145555964D01*
X99651527Y-145537081D01*
X99666197Y-145518468D01*
X99681643Y-145500125D01*
X99697865Y-145482054D01*
X99714864Y-145464252D01*
X99732639Y-145446721D01*
X99751191Y-145429461D01*
X99770519Y-145412471D01*
X99790624Y-145395751D01*
X99811505Y-145379302D01*
X99833162Y-145363123D01*
X99855596Y-145347215D01*
X99878416Y-145331786D01*
X99901929Y-145317326D01*
X99926136Y-145303834D01*
X99951037Y-145291311D01*
X99976631Y-145279756D01*
X100002919Y-145269169D01*
X100029900Y-145259551D01*
X100057575Y-145250901D01*
X100085943Y-145243220D01*
X100115005Y-145236507D01*
X100144761Y-145230762D01*
X100175210Y-145225985D01*
X100206353Y-145222177D01*
X100238189Y-145219338D01*
X100270719Y-145217466D01*
X100303942Y-145216563D01*
X100337643Y-145217458D01*
G37*
M02*
