%TF.GenerationSoftware,KiCad,Pcbnew,7.0.2-0*%
%TF.CreationDate,2023-06-28T16:36:39-04:00*%
%TF.ProjectId,Escanaba Euclidean Panel,45736361-6e61-4626-9120-4575636c6964,rev?*%
%TF.SameCoordinates,Original*%
%TF.FileFunction,Copper,L1,Top*%
%TF.FilePolarity,Positive*%
%FSLAX46Y46*%
G04 Gerber Fmt 4.6, Leading zero omitted, Abs format (unit mm)*
G04 Created by KiCad (PCBNEW 7.0.2-0) date 2023-06-28 16:36:39*
%MOMM*%
%LPD*%
G01*
G04 APERTURE LIST*
%TA.AperFunction,NonConductor*%
%ADD10C,0.150000*%
%TD*%
%TA.AperFunction,NonConductor*%
%ADD11C,0.200000*%
%TD*%
G04 APERTURE END LIST*
D10*
X117950389Y-53263650D02*
X106708773Y-53126557D01*
X105164813Y-48890955D01*
X119556334Y-48857093D01*
X117950389Y-53263650D01*
%TA.AperFunction,NonConductor*%
G36*
X117950389Y-53263650D02*
G01*
X106708773Y-53126557D01*
X105164813Y-48890955D01*
X119556334Y-48857093D01*
X117950389Y-53263650D01*
G37*
%TD.AperFunction*%
X88631580Y-48844925D02*
X90343896Y-53124931D01*
X77564922Y-53039924D01*
X75958977Y-48809630D01*
X88631580Y-48844925D01*
%TA.AperFunction,NonConductor*%
G36*
X88631580Y-48844925D02*
G01*
X90343896Y-53124931D01*
X77564922Y-53039924D01*
X75958977Y-48809630D01*
X88631580Y-48844925D01*
G37*
%TD.AperFunction*%
D11*
X78740000Y-53215221D02*
X116840000Y-53215221D01*
X116840000Y-165100000D01*
X78740000Y-165100000D01*
X78740000Y-53215221D01*
%TA.AperFunction,NonConductor*%
G36*
X78740000Y-53215221D02*
G01*
X116840000Y-53215221D01*
X116840000Y-165100000D01*
X78740000Y-165100000D01*
X78740000Y-53215221D01*
G37*
%TD.AperFunction*%
D10*
X103185523Y-53088889D02*
X90647694Y-53153331D01*
X92222602Y-48738846D01*
X104915756Y-48735826D01*
X103185523Y-53088889D01*
%TA.AperFunction,NonConductor*%
G36*
X103185523Y-53088889D02*
G01*
X90647694Y-53153331D01*
X92222602Y-48738846D01*
X104915756Y-48735826D01*
X103185523Y-53088889D01*
G37*
%TD.AperFunction*%
D11*
X79787659Y-33485194D02*
X117887659Y-33485194D01*
X117887659Y-48750594D01*
X79787659Y-48750594D01*
X79787659Y-33485194D01*
%TA.AperFunction,NonConductor*%
G36*
X79787659Y-33485194D02*
G01*
X117887659Y-33485194D01*
X117887659Y-48750594D01*
X79787659Y-48750594D01*
X79787659Y-33485194D01*
G37*
%TD.AperFunction*%
M02*
