%TF.GenerationSoftware,KiCad,Pcbnew,7.0.2-0*%
%TF.CreationDate,2023-06-28T16:36:39-04:00*%
%TF.ProjectId,Escanaba Euclidean Panel,45736361-6e61-4626-9120-4575636c6964,rev?*%
%TF.SameCoordinates,Original*%
%TF.FileFunction,Soldermask,Top*%
%TF.FilePolarity,Negative*%
%FSLAX46Y46*%
G04 Gerber Fmt 4.6, Leading zero omitted, Abs format (unit mm)*
G04 Created by KiCad (PCBNEW 7.0.2-0) date 2023-06-28 16:36:39*
%MOMM*%
%LPD*%
G01*
G04 APERTURE LIST*
%ADD10C,0.200000*%
%ADD11C,0.150000*%
G04 APERTURE END LIST*
D10*
X100852137Y-70073415D02*
X100895238Y-69810826D01*
X100897111Y-69584872D01*
X100885179Y-69342349D01*
X100870508Y-69090723D01*
X100864167Y-68837462D01*
X100877221Y-68590035D01*
X100920738Y-68355909D01*
X101005785Y-68142552D01*
X101143429Y-67957431D01*
X101344737Y-67808014D01*
X101427901Y-67767434D01*
X93269955Y-89780549D02*
X93057370Y-89987099D01*
X92839568Y-90198512D01*
X92617878Y-90414548D01*
X92393631Y-90634967D01*
X92168155Y-90859531D01*
X91942782Y-91088001D01*
X91718841Y-91320136D01*
X91497663Y-91555699D01*
X91280577Y-91794450D01*
X91068914Y-92036151D01*
X90864003Y-92280561D01*
X90667174Y-92527442D01*
X90479758Y-92776554D01*
X90303085Y-93027659D01*
X90138484Y-93280518D01*
X89987287Y-93534891D01*
X89850821Y-93790539D01*
X89730419Y-94047223D01*
X89627409Y-94304705D01*
X89543122Y-94562744D01*
X89478888Y-94821102D01*
X89436037Y-95079540D01*
X89415899Y-95337818D01*
X89419804Y-95595698D01*
X89449082Y-95852941D01*
X89505063Y-96109306D01*
X89589077Y-96364556D01*
X89702454Y-96618450D01*
X89846524Y-96870751D01*
X90022618Y-97121219D01*
X90232064Y-97369614D01*
X90476195Y-97615698D01*
X106680000Y-70192678D02*
X106638052Y-70407323D01*
X106603569Y-70622023D01*
X106575996Y-70836781D01*
X106554780Y-71051601D01*
X106539366Y-71266490D01*
X106529200Y-71481450D01*
X106523728Y-71696488D01*
X106522396Y-71911607D01*
X106524651Y-72126813D01*
X106529937Y-72342109D01*
X106537701Y-72557501D01*
X106547389Y-72772994D01*
X106558447Y-72988591D01*
X106570320Y-73204299D01*
X106582456Y-73420120D01*
X106594299Y-73636061D01*
X110032512Y-83251259D02*
X109952990Y-83491866D01*
X109923378Y-83725253D01*
X109939047Y-83951727D01*
X109995368Y-84171600D01*
X110087710Y-84385180D01*
X110211444Y-84592778D01*
X110361941Y-84794703D01*
X110534571Y-84991266D01*
X110724705Y-85182775D01*
X110927713Y-85369540D01*
X111138966Y-85551872D01*
X111353834Y-85730080D01*
X111567687Y-85904474D01*
X111775897Y-86075363D01*
X111973833Y-86243058D01*
X112156867Y-86407868D01*
X88258013Y-80512638D02*
X88420327Y-79953019D01*
X108152630Y-56999707D02*
X107577223Y-58095565D01*
X109135566Y-56397687D02*
X108607991Y-56685424D01*
X90554969Y-89407324D02*
X89985187Y-89473103D01*
X92152451Y-132003295D02*
X92261706Y-131747696D01*
X92327488Y-131490717D01*
X92353023Y-131232507D01*
X92341534Y-130973218D01*
X92296248Y-130712999D01*
X92220389Y-130452001D01*
X92117184Y-130190375D01*
X91989856Y-129928271D01*
X91841631Y-129665840D01*
X91675734Y-129403231D01*
X91495391Y-129140597D01*
X91303827Y-128878086D01*
X91104267Y-128615849D01*
X90899935Y-128354037D01*
X90694058Y-128092801D01*
X90489860Y-127832291D01*
X90290567Y-127572657D01*
X90099404Y-127314050D01*
X89919595Y-127056619D01*
X89754367Y-126800517D01*
X89606944Y-126545893D01*
X89480552Y-126292898D01*
X89378415Y-126041681D01*
X89303759Y-125792395D01*
X89259809Y-125545188D01*
X89249791Y-125300212D01*
X89276929Y-125057617D01*
X89344448Y-124817553D01*
X89455575Y-124580172D01*
X89613533Y-124345623D01*
X89821549Y-124114056D01*
X90082847Y-123885624D01*
X89700546Y-131066207D02*
X89612031Y-130483193D01*
X97723207Y-63594612D02*
X97723075Y-63804887D01*
X97719473Y-64014692D01*
X97712300Y-64223960D01*
X97701457Y-64432624D01*
X97686845Y-64640616D01*
X97668364Y-64847870D01*
X97645916Y-65054318D01*
X97619401Y-65259893D01*
X97588720Y-65464529D01*
X97553774Y-65668157D01*
X97514463Y-65870712D01*
X97470688Y-66072125D01*
X97422350Y-66272330D01*
X97369350Y-66471260D01*
X97311589Y-66668847D01*
X97248966Y-66865024D01*
X97181384Y-67059725D01*
X97108742Y-67252882D01*
X97030942Y-67444428D01*
X96947884Y-67634296D01*
X96859469Y-67822418D01*
X96765598Y-68008729D01*
X96666171Y-68193160D01*
X96561090Y-68375644D01*
X96450255Y-68556115D01*
X96333566Y-68734505D01*
X96210926Y-68910747D01*
X96082233Y-69084774D01*
X95947390Y-69256519D01*
X95806296Y-69425915D01*
X95658853Y-69592895D01*
X95504962Y-69757392D01*
X105640728Y-159288333D02*
X105610726Y-159483736D01*
X98010472Y-68202993D02*
X97635507Y-68822055D01*
X93269955Y-109803707D02*
X93060968Y-109895418D01*
X92855256Y-110006897D01*
X92656091Y-110137504D01*
X92466749Y-110286602D01*
X92290502Y-110453554D01*
X92130624Y-110637721D01*
X91990391Y-110838467D01*
X91873075Y-111055154D01*
X91781950Y-111287143D01*
X91720291Y-111533798D01*
X91691371Y-111794481D01*
X91698465Y-112068554D01*
X91744845Y-112355379D01*
X91833787Y-112654320D01*
X91968564Y-112964737D01*
X92152451Y-113285995D01*
X97431831Y-81407739D02*
X97865266Y-81567067D01*
X99560694Y-66226879D02*
X99169466Y-66289510D01*
X87830362Y-130653966D02*
X87280910Y-131415332D01*
X95504962Y-101533272D02*
X95584218Y-101854848D01*
X95615184Y-102167497D01*
X95601952Y-102472495D01*
X95548614Y-102771116D01*
X95459263Y-103064637D01*
X95337991Y-103354331D01*
X95188890Y-103641476D01*
X95016054Y-103927345D01*
X94823573Y-104213214D01*
X94615542Y-104500358D01*
X94396052Y-104790053D01*
X94169195Y-105083573D01*
X93939065Y-105382195D01*
X93709753Y-105687193D01*
X93485352Y-105999842D01*
X93269955Y-106321419D01*
X92175890Y-114292520D02*
X92009486Y-114713022D01*
X87892140Y-83887428D02*
X87314227Y-83674991D01*
X87134848Y-132531402D02*
X88615351Y-131837057D01*
X94340133Y-33276391D02*
X94450581Y-33443417D01*
X94479162Y-33677234D01*
X94370023Y-33879274D01*
X94195614Y-34013862D01*
X93963938Y-34109610D01*
X93749085Y-34153120D01*
X93634892Y-34162504D01*
X101282310Y-66446894D02*
X101651662Y-66857892D01*
X89612031Y-130483193D02*
X89812472Y-130006396D01*
X90666759Y-88347836D02*
X90628583Y-88264996D01*
X94946210Y-77157254D02*
X94729763Y-77146883D01*
X94529268Y-77105010D01*
X94516656Y-77033417D01*
X98890729Y-61645734D02*
X99119633Y-62142742D01*
X105835594Y-159841634D02*
X106056371Y-160060416D01*
X104589062Y-84107076D02*
X104345054Y-84008507D01*
X104090638Y-83901408D01*
X103827127Y-83789243D01*
X103555834Y-83675477D01*
X103278072Y-83563578D01*
X102995153Y-83457010D01*
X102708391Y-83359239D01*
X102419099Y-83273730D01*
X102128590Y-83203950D01*
X101838176Y-83153365D01*
X101549170Y-83125439D01*
X101262886Y-83123639D01*
X100980637Y-83151431D01*
X100703735Y-83212279D01*
X100433493Y-83309650D01*
X100171225Y-83447010D01*
X89653963Y-89144927D02*
X90147304Y-88913809D01*
X99872487Y-68336981D02*
X99779931Y-67614867D01*
X91273659Y-60221952D02*
X91454515Y-60318802D01*
X91638552Y-60420415D01*
X91711516Y-60462388D01*
X93828706Y-61486957D02*
X94028586Y-61571083D01*
X94209846Y-61660072D01*
X94520598Y-61851679D01*
X94769144Y-62059863D01*
X94963671Y-62282714D01*
X95112362Y-62518317D01*
X95223403Y-62764759D01*
X95304978Y-63020128D01*
X95365274Y-63282511D01*
X95412473Y-63549995D01*
X95454761Y-63820668D01*
X95500323Y-64092615D01*
X95557345Y-64363925D01*
X95634009Y-64632684D01*
X95738502Y-64896980D01*
X95879009Y-65154900D01*
X96063714Y-65404531D01*
X109295094Y-160838086D02*
X109792618Y-160745734D01*
X96398965Y-71714438D02*
X96564585Y-71538053D01*
X96731711Y-71412766D01*
X96918104Y-71294481D01*
X97113134Y-71176679D01*
X97306171Y-71052842D01*
X97486586Y-70916453D01*
X97643750Y-70760994D01*
X97739970Y-70627964D01*
X87123684Y-55828239D02*
X87333215Y-55950649D01*
X87542747Y-56072981D01*
X87752279Y-56195152D01*
X87961811Y-56317085D01*
X88171343Y-56438699D01*
X88380875Y-56559914D01*
X88590407Y-56680651D01*
X88799939Y-56800831D01*
X89009471Y-56920372D01*
X89219003Y-57039197D01*
X89428535Y-57157224D01*
X89638067Y-57274374D01*
X89847599Y-57390568D01*
X90057131Y-57505726D01*
X90266663Y-57619768D01*
X90476195Y-57732615D01*
X90685726Y-57844186D01*
X90895258Y-57954402D01*
X91104790Y-58063184D01*
X91314322Y-58170451D01*
X91523854Y-58276124D01*
X91733386Y-58380124D01*
X91942918Y-58482370D01*
X92152450Y-58582783D01*
X92361982Y-58681283D01*
X92571514Y-58777790D01*
X92781046Y-58872225D01*
X92990578Y-58964508D01*
X93200110Y-59054560D01*
X93409642Y-59142300D01*
X93619174Y-59227648D01*
X93828706Y-59310527D01*
X98598100Y-67524467D02*
X98010472Y-68202993D01*
X92061408Y-114044017D02*
X92175890Y-114292520D01*
X108979205Y-158588877D02*
X108754337Y-158230979D01*
X88906546Y-117356934D02*
X89171132Y-116628466D01*
X108092014Y-61037185D02*
X108274620Y-61173116D01*
X96059562Y-87027357D02*
X95850951Y-87225900D01*
X97413368Y-60001665D02*
X96805398Y-59984623D01*
X100594003Y-70537861D02*
X100775420Y-70678764D01*
X100920458Y-70821585D01*
X101072893Y-71037308D01*
X101151419Y-71251932D01*
X101160807Y-71462212D01*
X101105824Y-71664899D01*
X100991238Y-71856746D01*
X100821819Y-72034506D01*
X100602334Y-72194930D01*
X100337553Y-72334772D01*
X100138222Y-72414962D01*
X99922292Y-72483599D01*
X88420327Y-79953019D02*
X88191424Y-79456012D01*
X98029230Y-70067740D02*
X98314145Y-70034859D01*
X95850951Y-87225900D02*
X93269002Y-88134643D01*
X90225615Y-129470174D02*
X90255623Y-129274762D01*
X90056086Y-33235261D02*
X90213847Y-33512757D01*
X90333428Y-33732070D01*
X90456605Y-33967371D01*
X90552896Y-34143274D01*
X90760130Y-34238109D01*
X90977666Y-34276360D01*
X91240741Y-34352830D01*
X91476904Y-34439785D01*
X91769901Y-34563745D01*
X91939912Y-34641806D01*
X86556886Y-132318946D02*
X86599153Y-132540904D01*
X94387458Y-130697436D02*
X94368496Y-130922518D01*
X94275342Y-131191994D01*
X94116812Y-131391173D01*
X93906718Y-131532965D01*
X93658870Y-131630283D01*
X93387083Y-131696038D01*
X93105166Y-131743143D01*
X92826933Y-131784509D01*
X92566194Y-131833048D01*
X92336763Y-131901673D01*
X92152451Y-132003295D01*
X91908798Y-113712692D02*
X92061408Y-114044017D01*
X109103362Y-61408950D02*
X109494628Y-61346356D01*
X94002381Y-80215902D02*
X94907428Y-80617398D01*
X112567229Y-78439241D02*
X112418661Y-78247015D01*
X89118695Y-85508063D02*
X88544812Y-85434744D01*
X105242996Y-61366062D02*
X105106649Y-61591168D01*
X88589537Y-86964979D02*
X88585495Y-86825880D01*
X95812759Y-61477586D02*
X96318458Y-61663478D01*
X89343557Y-85865971D02*
X89118695Y-85508063D01*
X98298722Y-118074141D02*
X98156851Y-117875201D01*
X98106651Y-117625252D01*
X98089769Y-117422726D01*
X98059997Y-117221635D01*
X97952503Y-116978061D01*
X97785225Y-116830531D01*
X97512977Y-116727474D01*
X97259519Y-116689855D01*
X96938946Y-116681565D01*
X96543073Y-116706433D01*
X96314340Y-116732496D01*
X96063714Y-116768283D01*
X97739970Y-70627964D02*
X97881723Y-70785601D01*
X98100450Y-70909174D01*
X98327580Y-70922911D01*
X98564338Y-70855637D01*
X98811946Y-70736179D01*
X99071630Y-70593364D01*
X99252065Y-70499413D01*
X99438773Y-70416434D01*
X99632117Y-70352969D01*
X99832459Y-70317558D01*
X100040162Y-70318742D01*
X100255588Y-70365063D01*
X100479101Y-70465063D01*
X100594003Y-70537861D01*
X100171225Y-83447010D02*
X100384504Y-83470177D01*
X100587318Y-83513748D01*
X100779636Y-83576546D01*
X101132657Y-83755118D01*
X101443318Y-83996484D01*
X101711372Y-84291235D01*
X101829344Y-84455690D01*
X101936571Y-84629963D01*
X102033021Y-84812877D01*
X102118665Y-85003257D01*
X102193470Y-85199927D01*
X102257406Y-85401710D01*
X102310441Y-85607430D01*
X102352546Y-85815911D01*
X102383687Y-86025977D01*
X102403836Y-86236452D01*
X102412960Y-86446160D01*
X102411028Y-86653924D01*
X102398010Y-86858569D01*
X102373874Y-87058918D01*
X102292125Y-87442024D01*
X102165533Y-87793834D01*
X101993849Y-88104939D01*
X101776825Y-88365929D01*
X101651233Y-88474691D01*
X102287392Y-70952294D02*
X102378182Y-70735118D01*
X102460674Y-70539415D01*
X102542189Y-70322088D01*
X102606828Y-70099521D01*
X102638692Y-69888098D01*
X102608213Y-69664447D01*
X102470629Y-69515803D01*
X95520438Y-111556907D02*
X95702432Y-111672555D01*
X95847562Y-111832141D01*
X96002787Y-111966576D01*
X96063714Y-111980137D01*
X107238752Y-80204256D02*
X106680000Y-80639542D01*
X88398891Y-137881380D02*
X88221485Y-137776719D01*
X88266790Y-137839360D01*
X109494628Y-61346356D02*
X109809551Y-61118063D01*
X99050282Y-69548561D02*
X99774269Y-68644910D01*
X100363051Y-60673156D02*
X100146358Y-60593501D01*
X101028975Y-65115202D02*
X100786278Y-65370022D01*
X84299885Y-43640230D02*
X84564774Y-43650272D01*
X84771237Y-43694640D01*
X84550617Y-43747723D01*
X84350166Y-43725246D01*
X84104922Y-43668338D01*
X83826085Y-43568390D01*
X83627060Y-43473597D01*
X83421399Y-43353298D01*
X83212420Y-43204944D01*
X108412551Y-59778831D02*
X108787527Y-59159749D01*
X106527983Y-160302584D02*
X107752038Y-160614914D01*
X93403814Y-89078733D02*
X92039328Y-88852384D01*
X109473760Y-83686545D02*
X110032512Y-83251259D01*
X91690630Y-79366117D02*
X94002381Y-80215902D01*
X96273744Y-60133224D02*
X95716112Y-60616356D01*
X97643627Y-69100291D02*
X97914748Y-69819237D01*
X110530678Y-78447539D02*
X110679247Y-78639765D01*
X96275955Y-80982847D02*
X97431831Y-81407739D01*
X91866908Y-119614672D02*
X92106400Y-119645827D01*
X92322639Y-119638411D01*
X92205605Y-119463231D01*
X91971886Y-119546065D01*
X91866908Y-119614672D01*
X97909991Y-83097302D02*
X97398667Y-83941490D01*
X99922292Y-72483599D02*
X100098040Y-72625121D01*
X100283457Y-72753864D01*
X100479906Y-72866830D01*
X100688753Y-72961020D01*
X100911363Y-73033435D01*
X100988861Y-73052217D01*
X91764320Y-113659583D02*
X91908798Y-113712692D01*
X90136629Y-87327260D02*
X90268946Y-86963035D01*
X97181218Y-111544851D02*
X97082577Y-111743838D01*
X97021046Y-111945473D01*
X96970386Y-112147540D01*
X96904358Y-112347822D01*
X96796726Y-112544101D01*
X96747068Y-112608255D01*
X101092481Y-118074141D02*
X101301779Y-118237241D01*
X101509677Y-118399548D01*
X101714774Y-118560271D01*
X101915669Y-118718616D01*
X102110962Y-118873792D01*
X102299252Y-119025005D01*
X102479138Y-119171463D01*
X102649221Y-119312374D01*
X109530873Y-56474192D02*
X109314180Y-56394537D01*
X88538085Y-129193883D02*
X88094935Y-129925518D01*
X104465848Y-71651264D02*
X104558643Y-71830187D01*
X104770337Y-71957427D01*
X105012802Y-71840046D01*
X105211930Y-71636855D01*
X105351776Y-71464238D01*
X105496591Y-71272895D01*
X105645769Y-71072256D01*
X105798707Y-70871749D01*
X105954797Y-70680804D01*
X106113436Y-70508848D01*
X106274017Y-70365311D01*
X106517209Y-70223916D01*
X106680000Y-70192678D01*
X106596795Y-60005881D02*
X106851664Y-60168376D01*
X96063714Y-116768283D02*
X95749619Y-116855057D01*
X95436742Y-116952377D01*
X95126304Y-117060587D01*
X94819521Y-117180030D01*
X94517613Y-117311050D01*
X94221799Y-117453991D01*
X93933297Y-117609196D01*
X93653325Y-117777010D01*
X93383103Y-117957776D01*
X93123850Y-118151838D01*
X92876783Y-118359539D01*
X92643122Y-118581224D01*
X92424085Y-118817236D01*
X92220891Y-119067918D01*
X92034759Y-119333616D01*
X91866908Y-119614672D01*
X97914748Y-69819237D02*
X98029230Y-70067740D01*
X86659157Y-132150097D02*
X86556886Y-132318946D01*
X97109072Y-61816489D02*
X97428036Y-61727295D01*
X106952375Y-157706202D02*
X106220225Y-158331591D01*
X106851664Y-60168376D02*
X107642278Y-60321388D01*
X110769297Y-78053583D02*
X110560686Y-78252126D01*
X111367552Y-78961588D02*
X111762859Y-79038094D01*
X108708104Y-61332462D02*
X109103362Y-61408950D01*
X112430871Y-78664367D02*
X112567229Y-78439241D01*
X99922292Y-72483599D02*
X100163969Y-72674510D01*
X100392979Y-72796267D01*
X100609354Y-72855499D01*
X100813127Y-72858835D01*
X101095231Y-72773540D01*
X101267643Y-72666144D01*
X101427568Y-72526057D01*
X101575038Y-72359909D01*
X101710087Y-72174330D01*
X101832747Y-71975949D01*
X101943051Y-71771397D01*
X102041032Y-71567302D01*
X102126722Y-71370295D01*
X102232284Y-71102576D01*
X102287392Y-70952294D01*
X88008768Y-79320063D02*
X87609420Y-79104458D01*
X100786278Y-65370022D02*
X100862583Y-65535684D01*
X89696182Y-89366866D02*
X89653963Y-89144927D01*
X99779931Y-67614867D02*
X100154908Y-66995786D01*
X110679247Y-78639765D02*
X111006380Y-78828824D01*
X88653669Y-86713326D02*
X88904448Y-86736705D01*
X88241187Y-35805081D02*
X88055663Y-35987016D01*
X87909428Y-36199558D01*
X87789383Y-36432504D01*
X87682435Y-36675653D01*
X87575486Y-36918801D01*
X87455442Y-37151747D01*
X87309206Y-37364289D01*
X87123684Y-37546225D01*
X111658092Y-77898628D02*
X110769297Y-78053583D01*
X90724306Y-86648752D02*
X90575738Y-86456526D01*
X111006380Y-78828824D02*
X111367552Y-78961588D01*
X87314227Y-83674991D02*
X87271959Y-83453033D01*
X99416226Y-74980824D02*
X99622483Y-74816741D01*
X99809097Y-74647558D01*
X99956424Y-74468172D01*
X100044821Y-74273484D01*
X100054643Y-74058391D01*
X99966246Y-73817794D01*
X99823677Y-73617539D01*
X99606523Y-73397917D01*
X99416226Y-73239680D01*
X93654643Y-89102129D02*
X93403814Y-89078733D01*
X90628583Y-88264996D02*
X90407799Y-88046224D01*
X100108599Y-66634729D02*
X99849651Y-66333098D01*
X93828706Y-90215835D02*
X93269955Y-89780549D01*
X97919067Y-60187557D02*
X97413368Y-60001665D01*
X96318458Y-61663478D02*
X96786028Y-61766547D01*
X88953576Y-78635220D02*
X89888619Y-78841323D01*
X106121248Y-113721281D02*
X106311682Y-114052633D01*
X106466102Y-114392913D01*
X106587784Y-114740844D01*
X106680000Y-115095152D01*
X106746024Y-115454560D01*
X106789131Y-115817795D01*
X106812594Y-116183580D01*
X106819688Y-116550640D01*
X106813685Y-116917700D01*
X106797861Y-117283485D01*
X106775489Y-117646719D01*
X106749844Y-118006127D01*
X106724198Y-118360435D01*
X106701826Y-118708366D01*
X106686002Y-119048646D01*
X106680000Y-119380000D01*
X98840342Y-61145542D02*
X98810334Y-61340955D01*
X88982851Y-117522597D02*
X88906546Y-117356934D01*
X102340146Y-116943619D02*
X102537060Y-116855964D01*
X102731673Y-116759329D01*
X102914422Y-116650435D01*
X103075743Y-116526002D01*
X103224109Y-116356816D01*
X103240976Y-116330253D01*
X93828706Y-59310527D02*
X93564121Y-59334660D01*
X93328636Y-59448503D01*
X93238762Y-59630828D01*
X93240431Y-59853862D01*
X93279576Y-60089832D01*
X93302130Y-60310963D01*
X93212942Y-60534718D01*
X92986519Y-60613215D01*
X92729565Y-60607585D01*
X92369117Y-60545984D01*
X92145076Y-60491622D01*
X91889155Y-60420182D01*
X91599350Y-60330635D01*
X91273659Y-60221952D01*
X99174086Y-86956647D02*
X98837562Y-87018585D01*
X98535983Y-87141251D01*
X98267044Y-87317620D01*
X98028441Y-87540666D01*
X97817871Y-87803363D01*
X97633031Y-88098687D01*
X97471615Y-88419611D01*
X97331322Y-88759111D01*
X97209846Y-89110161D01*
X97104884Y-89465735D01*
X97014132Y-89818809D01*
X96935287Y-90162356D01*
X96866045Y-90489351D01*
X96804102Y-90792769D01*
X96747154Y-91065584D01*
X96692899Y-91300772D01*
X100146358Y-60593501D02*
X99967793Y-60596669D01*
X102244904Y-65149306D02*
X101526553Y-65022859D01*
X108274620Y-61173116D02*
X108708104Y-61332462D01*
X108007540Y-60593269D02*
X108092014Y-61037185D01*
X110492513Y-78364679D02*
X110530678Y-78447539D01*
X88585495Y-86825880D02*
X88653669Y-86713326D01*
X87370190Y-83145085D02*
X87757365Y-82943375D01*
X87123684Y-38852083D02*
X86989813Y-38657901D01*
X86932572Y-38458166D01*
X87149024Y-38517481D01*
X87251709Y-38700632D01*
X87123684Y-38852083D01*
X97865266Y-81567067D02*
X98192399Y-81756126D01*
X90268946Y-86963035D02*
X90656121Y-86761325D01*
X109449233Y-160000224D02*
X108979205Y-158588877D01*
X95504962Y-69757392D02*
X95270329Y-69828806D01*
X95063918Y-69785288D01*
X94834486Y-69687253D01*
X94584798Y-69560524D01*
X94317614Y-69430927D01*
X94131136Y-69355687D01*
X93938928Y-69298301D01*
X93641665Y-69262434D01*
X93438715Y-69283157D01*
X93232901Y-69348514D01*
X93025040Y-69466156D01*
X92815951Y-69643735D01*
X92711203Y-69757392D01*
X103679390Y-121543433D02*
X103777463Y-121353114D01*
X103871959Y-121170756D01*
X103963194Y-120989127D01*
X104019984Y-120866657D01*
X105557968Y-61137786D02*
X105242996Y-61366062D01*
X102899122Y-65527406D02*
X102244904Y-65149306D01*
X99416226Y-74980824D02*
X99607118Y-74915028D01*
X99806496Y-74959173D01*
X99952368Y-75101910D01*
X99758699Y-75201377D01*
X99574951Y-75096230D01*
X99416226Y-74980824D01*
X93828706Y-97615698D02*
X93635532Y-97396320D01*
X93411026Y-97216849D01*
X93162653Y-97070460D01*
X92897873Y-96950326D01*
X92624149Y-96849622D01*
X92348945Y-96761521D01*
X92079721Y-96679198D01*
X91823941Y-96595827D01*
X91589068Y-96504580D01*
X91382563Y-96398634D01*
X91211889Y-96271161D01*
X91084509Y-96115336D01*
X91007885Y-95924333D01*
X90989479Y-95691326D01*
X91036755Y-95409488D01*
X91157174Y-95071995D01*
X88266790Y-137839360D02*
X88373460Y-137568288D01*
X88492971Y-137310678D01*
X88624465Y-137065632D01*
X88767087Y-136832252D01*
X88919981Y-136609641D01*
X89082291Y-136396902D01*
X89253161Y-136193136D01*
X89431735Y-135997448D01*
X89617157Y-135808938D01*
X89808570Y-135626711D01*
X90005120Y-135449868D01*
X90205949Y-135277512D01*
X90410202Y-135108746D01*
X90617024Y-134942672D01*
X90825557Y-134778392D01*
X91034947Y-134615011D01*
X93785161Y-74012162D02*
X93711779Y-74225296D01*
X93785161Y-74012162D01*
X109716946Y-60395932D02*
X108671511Y-60080443D01*
X109860792Y-160633181D02*
X109449233Y-160000224D01*
X102768737Y-112850709D02*
X102990546Y-112783970D01*
X103233636Y-112745288D01*
X103493095Y-112732110D01*
X103764013Y-112741887D01*
X104041479Y-112772068D01*
X104320583Y-112820102D01*
X104596412Y-112883440D01*
X104864056Y-112959530D01*
X105118605Y-113045822D01*
X105355146Y-113139766D01*
X105568771Y-113238810D01*
X105754567Y-113340405D01*
X105970340Y-113492001D01*
X106114802Y-113679250D01*
X106121248Y-113721281D01*
X103240976Y-116330253D02*
X102961413Y-116157726D01*
X102718419Y-115967286D01*
X102511300Y-115761487D01*
X102339366Y-115542883D01*
X102201925Y-115314029D01*
X102098284Y-115077479D01*
X102027753Y-114835787D01*
X101989638Y-114591510D01*
X101983250Y-114347199D01*
X102007895Y-114105412D01*
X102062882Y-113868701D01*
X102147519Y-113639622D01*
X102261115Y-113420728D01*
X102402978Y-113214575D01*
X102572416Y-113023717D01*
X102768737Y-112850709D01*
X91122274Y-113698798D02*
X91764320Y-113659583D01*
X98870388Y-60950166D02*
X98840342Y-61145542D01*
X99849651Y-66333098D02*
X99560694Y-66226879D01*
X96622466Y-108933135D02*
X96608193Y-109155746D01*
X96548103Y-109388585D01*
X96416207Y-109591165D01*
X96233157Y-109714040D01*
X96011740Y-109777139D01*
X95764745Y-109800386D01*
X95557327Y-109803680D01*
X95504962Y-109803707D01*
X88882583Y-87210314D02*
X88589537Y-86964979D01*
X88179372Y-130369396D02*
X87830362Y-130653966D01*
X91034947Y-74110252D02*
X91311267Y-74048224D01*
X91584845Y-74046574D01*
X91855305Y-74088185D01*
X92122273Y-74155941D01*
X92385375Y-74232726D01*
X92644235Y-74301424D01*
X92898480Y-74344918D01*
X93147733Y-74346093D01*
X93391621Y-74287831D01*
X93629769Y-74153018D01*
X93785161Y-74012162D01*
X103059901Y-66136984D02*
X103196248Y-65911878D01*
X91034947Y-134615011D02*
X91268487Y-134491736D01*
X91470141Y-134449772D01*
X91688370Y-134448696D01*
X91917648Y-134486356D01*
X92152451Y-134560600D01*
X92387253Y-134669275D01*
X92616531Y-134810230D01*
X92834760Y-134981313D01*
X93036414Y-135180372D01*
X93215969Y-135405255D01*
X93269955Y-135485583D01*
X96630471Y-72926076D02*
X96563678Y-72704941D01*
X96450011Y-72505736D01*
X96312764Y-72332857D01*
X96223303Y-72144508D01*
X96272177Y-71924031D01*
X96398965Y-71714438D01*
X108607991Y-56685424D02*
X108152630Y-56999707D01*
X88371872Y-84407831D02*
X87892140Y-83887428D01*
X92009486Y-114713022D02*
X91941312Y-114825575D01*
X94946210Y-132003295D02*
X94944078Y-131799254D01*
X94929158Y-131595213D01*
X94888660Y-131391173D01*
X94809795Y-131187132D01*
X94679776Y-130983092D01*
X94530334Y-130819860D01*
X94387458Y-130697436D01*
X112156867Y-86407868D02*
X111941881Y-86369812D01*
X111731964Y-86320741D01*
X111526741Y-86261486D01*
X111325837Y-86192877D01*
X111128880Y-86115744D01*
X110935495Y-86030918D01*
X110745307Y-85939230D01*
X110557943Y-85841510D01*
X110373029Y-85738588D01*
X110190191Y-85631295D01*
X110009055Y-85520461D01*
X109829246Y-85406918D01*
X109650391Y-85291494D01*
X109472116Y-85175021D01*
X109294046Y-85058330D01*
X109115808Y-84942250D01*
X108937028Y-84827612D01*
X108757331Y-84715247D01*
X108576343Y-84605985D01*
X108393691Y-84500656D01*
X108209001Y-84400092D01*
X108021898Y-84305122D01*
X107832008Y-84216577D01*
X107638957Y-84135287D01*
X107442372Y-84062084D01*
X107241878Y-83997797D01*
X107037101Y-83943256D01*
X106827668Y-83899294D01*
X106613204Y-83866738D01*
X106393334Y-83846422D01*
X106167686Y-83839173D01*
X105935886Y-83845825D01*
X106220225Y-158331591D02*
X105598510Y-159066393D01*
X103327489Y-127650434D02*
X103019602Y-127895282D01*
X102723993Y-128140130D01*
X102439842Y-128384979D01*
X102166332Y-128629827D01*
X101902644Y-128874675D01*
X101647959Y-129119524D01*
X101401458Y-129364372D01*
X101162325Y-129609221D01*
X100929739Y-129854069D01*
X100702882Y-130098917D01*
X100480937Y-130343766D01*
X100263083Y-130588614D01*
X100048504Y-130833462D01*
X99836380Y-131078311D01*
X99625894Y-131323159D01*
X99416226Y-131568008D01*
X97849298Y-61469308D02*
X98296539Y-60876790D01*
X91218891Y-88894480D02*
X90801719Y-89291584D01*
X92039328Y-88852384D02*
X91537708Y-88805628D01*
X87271959Y-83453033D02*
X87370190Y-83145085D01*
X100443447Y-60977936D02*
X100363051Y-60673156D01*
X89877272Y-116337562D02*
X89331861Y-117238027D01*
X107232255Y-58519234D02*
X106959550Y-58969467D01*
X87609420Y-79104458D02*
X87073676Y-79113942D01*
X103271614Y-67898720D02*
X103529640Y-67791940D01*
X103743479Y-67644900D01*
X103924678Y-67468019D01*
X104084788Y-67271719D01*
X104235357Y-67066419D01*
X104387935Y-66862541D01*
X104554069Y-66670503D01*
X104745309Y-66500727D01*
X104973204Y-66363633D01*
X105249303Y-66269641D01*
X105465853Y-66236072D01*
X84329924Y-37981511D02*
X84123665Y-38145593D01*
X83937051Y-38314776D01*
X83789724Y-38494162D01*
X83701328Y-38688850D01*
X83691506Y-38903943D01*
X83779902Y-39144540D01*
X83922472Y-39344795D01*
X84139626Y-39564417D01*
X84329924Y-39722655D01*
X97398667Y-83941490D02*
X97065958Y-84782529D01*
X101427901Y-67767434D02*
X101673399Y-67695515D01*
X101889753Y-67694647D01*
X102089386Y-67741923D01*
X102284724Y-67814435D01*
X102488191Y-67889278D01*
X102712212Y-67943544D01*
X102969211Y-67954327D01*
X103191077Y-67920098D01*
X103271614Y-67898720D01*
X90407799Y-88046224D02*
X89647231Y-87697837D01*
X105935886Y-83845825D02*
X106176004Y-84016685D01*
X106334850Y-84154360D01*
X106441323Y-84340941D01*
X106262427Y-84435523D01*
X106037597Y-84434503D01*
X105758266Y-84401276D01*
X105555350Y-84365725D01*
X105348587Y-84322599D01*
X105146126Y-84274594D01*
X104868330Y-84199336D01*
X104646059Y-84128264D01*
X104589062Y-84107076D01*
X105610726Y-159483736D02*
X105835594Y-159841634D01*
X97739970Y-74545538D02*
X97852801Y-74784089D01*
X97981286Y-75010367D01*
X98124708Y-75224848D01*
X98282352Y-75428012D01*
X98453500Y-75620336D01*
X98637438Y-75802298D01*
X98833447Y-75974378D01*
X99040814Y-76137052D01*
X99258821Y-76290800D01*
X99486751Y-76436099D01*
X99723890Y-76573427D01*
X99969521Y-76703264D01*
X100222927Y-76826087D01*
X100483392Y-76942374D01*
X100750201Y-77052603D01*
X101022637Y-77157254D01*
X101299984Y-77256803D01*
X101581525Y-77351729D01*
X101866545Y-77442511D01*
X102154328Y-77529627D01*
X102444157Y-77613555D01*
X102735315Y-77694772D01*
X103027088Y-77773758D01*
X103318758Y-77850991D01*
X103609610Y-77926948D01*
X103898927Y-78002108D01*
X104185993Y-78076949D01*
X104470093Y-78151950D01*
X104750509Y-78227588D01*
X105026526Y-78304343D01*
X105297427Y-78382691D01*
X105562497Y-78463112D01*
X87073676Y-79113942D02*
X87035548Y-79031120D01*
X103196248Y-65911878D02*
X103119954Y-65746196D01*
X94516656Y-77033417D02*
X94682028Y-77210315D01*
X94881075Y-77349226D01*
X95108244Y-77454969D01*
X95357982Y-77532366D01*
X95624733Y-77586239D01*
X95902946Y-77621408D01*
X96187066Y-77642695D01*
X96471540Y-77654921D01*
X96750814Y-77662906D01*
X97019335Y-77671473D01*
X97189633Y-77679889D01*
X88904448Y-86736705D02*
X89516509Y-86892864D01*
X90890253Y-115540166D02*
X90294455Y-115940439D01*
X98192399Y-81756126D02*
X98379096Y-82031175D01*
X90082847Y-123885624D02*
X89911454Y-123762966D01*
X89715373Y-123641433D01*
X89500301Y-123523415D01*
X89271935Y-123411300D01*
X89035972Y-123307477D01*
X88798111Y-123214335D01*
X88564047Y-123134263D01*
X88339479Y-123069649D01*
X88130104Y-123022883D01*
X87884418Y-122992421D01*
X87830383Y-122991091D01*
X86309570Y-47354626D02*
X86178962Y-47542587D01*
X86053863Y-47741509D01*
X85934727Y-47950793D01*
X85822011Y-48169838D01*
X85716171Y-48398043D01*
X85617662Y-48634808D01*
X85526940Y-48879532D01*
X85444463Y-49131616D01*
X85370685Y-49390458D01*
X85306062Y-49655458D01*
X85251051Y-49926016D01*
X85206108Y-50201532D01*
X85171688Y-50481404D01*
X85148248Y-50765033D01*
X85136244Y-51051818D01*
X85136131Y-51341159D01*
X85148366Y-51632455D01*
X85173405Y-51925106D01*
X85211703Y-52218511D01*
X85263716Y-52512070D01*
X85329902Y-52805183D01*
X85410715Y-53097249D01*
X85506611Y-53387668D01*
X85618047Y-53675839D01*
X85745479Y-53961161D01*
X85889363Y-54243036D01*
X86050154Y-54520861D01*
X86228308Y-54794037D01*
X86424283Y-55061963D01*
X86638533Y-55324039D01*
X86871514Y-55579664D01*
X87123684Y-55828239D01*
X109643759Y-57891893D02*
X109806084Y-57332256D01*
X82637078Y-137511026D02*
X82921475Y-137447106D01*
X83195105Y-137360656D01*
X83456444Y-137253376D01*
X83703970Y-137126966D01*
X83936158Y-136983126D01*
X84151486Y-136823557D01*
X84348432Y-136649958D01*
X84525471Y-136464029D01*
X84681082Y-136267470D01*
X84813740Y-136061982D01*
X84888676Y-135920869D01*
X99119633Y-62142742D02*
X99370461Y-62166138D01*
X100904838Y-65757661D02*
X101282310Y-66446894D01*
X87975030Y-85500522D02*
X88005026Y-85305129D01*
X91593699Y-74980824D02*
X91589962Y-74775126D01*
X91545496Y-74578881D01*
X91435058Y-74374059D01*
X91284130Y-74229623D01*
X91075659Y-74123557D01*
X91034947Y-74110252D01*
X90801719Y-89291584D02*
X90554969Y-89407324D01*
X87604718Y-82612012D02*
X87728903Y-81969572D01*
X101651233Y-88474691D02*
X101869022Y-88511650D01*
X102200704Y-88621930D01*
X102405719Y-88775529D01*
X102498304Y-88966254D01*
X102492695Y-89187912D01*
X102403128Y-89434308D01*
X102243839Y-89699249D01*
X102029064Y-89976541D01*
X101773039Y-90259991D01*
X101490001Y-90543406D01*
X101342800Y-90683164D01*
X101194185Y-90820591D01*
X101045934Y-90954912D01*
X100757645Y-91211139D01*
X100492168Y-91445654D01*
X100263741Y-91652260D01*
X100086598Y-91824767D01*
X99974977Y-91956979D01*
X99416226Y-131568008D02*
X99200282Y-131716362D01*
X98972061Y-131836661D01*
X98732382Y-131931455D01*
X98482062Y-132003294D01*
X98221920Y-132054729D01*
X97952775Y-132088311D01*
X97675446Y-132106590D01*
X97390750Y-132112116D01*
X97099505Y-132107440D01*
X96802532Y-132095113D01*
X96500648Y-132077684D01*
X96194671Y-132057705D01*
X95885420Y-132037726D01*
X95573714Y-132020298D01*
X95260371Y-132007970D01*
X94946210Y-132003295D01*
X97635507Y-68822055D02*
X97643627Y-69100291D01*
X112418661Y-78247015D02*
X112270141Y-78054807D01*
X98589561Y-76073061D02*
X98375715Y-75926913D01*
X98147851Y-75795543D01*
X97907739Y-75677101D01*
X97657150Y-75569740D01*
X97397855Y-75471612D01*
X97131626Y-75380870D01*
X96860234Y-75295664D01*
X96585448Y-75214148D01*
X96309041Y-75134474D01*
X96032784Y-75054794D01*
X95758447Y-74973259D01*
X95487802Y-74888023D01*
X95222619Y-74797237D01*
X94964669Y-74699053D01*
X94715725Y-74591624D01*
X94477556Y-74473102D01*
X90147304Y-88913809D02*
X90666759Y-88347836D01*
X94907428Y-80617398D02*
X96275955Y-80982847D01*
X91711516Y-60462388D02*
X91531298Y-60365404D01*
X91346614Y-60266773D01*
X91273659Y-60221952D01*
X89571359Y-129092037D02*
X89031574Y-128962422D01*
D11*
X106407827Y-52823727D02*
X106470352Y-52941557D01*
X103449025Y-52950533D01*
X105012963Y-49019554D01*
X106407827Y-52823727D01*
G36*
X106407827Y-52823727D02*
G01*
X106470352Y-52941557D01*
X103449025Y-52950533D01*
X105012963Y-49019554D01*
X106407827Y-52823727D01*
G37*
D10*
X90575738Y-86456526D02*
X90210476Y-86184645D01*
X90476195Y-97615698D02*
X90704552Y-97850981D01*
X90967285Y-98069687D01*
X91259484Y-98275640D01*
X91576237Y-98472667D01*
X91912634Y-98664592D01*
X92263764Y-98855242D01*
X92443319Y-98951285D01*
X92624716Y-99048443D01*
X92807340Y-99147195D01*
X92990578Y-99248020D01*
X93173816Y-99351395D01*
X93356440Y-99457799D01*
X93537837Y-99567710D01*
X93717392Y-99681606D01*
X93894491Y-99799965D01*
X94068522Y-99923266D01*
X94238869Y-100051987D01*
X94404919Y-100186605D01*
X94566058Y-100327600D01*
X94721672Y-100475450D01*
X94871148Y-100630632D01*
X95013871Y-100793625D01*
X95149228Y-100964908D01*
X95276604Y-101144957D01*
X95395387Y-101334252D01*
X95504962Y-101533272D01*
X101092481Y-116768283D02*
X101050124Y-117012055D01*
X100930421Y-117249371D01*
X100744420Y-117473776D01*
X100589045Y-117613017D01*
X100412389Y-117741738D01*
X100217726Y-117858025D01*
X100008330Y-117959966D01*
X99787476Y-118045647D01*
X99558437Y-118113155D01*
X99324487Y-118160579D01*
X99088900Y-118186004D01*
X98854950Y-118187518D01*
X98625911Y-118163209D01*
X98405056Y-118111163D01*
X98298722Y-118074141D01*
X89885318Y-142281121D02*
X90065997Y-142173013D01*
X90231001Y-142044804D01*
X90365441Y-141885366D01*
X90490164Y-141694413D01*
X90508517Y-141665585D01*
X91941312Y-114825575D02*
X91839041Y-114994424D01*
X98820418Y-66574043D02*
X98752233Y-66686615D01*
X99151213Y-60778169D02*
X98870388Y-60950166D01*
X98314145Y-70034859D02*
X99050282Y-69548561D01*
X98752233Y-66686615D02*
X98598100Y-67524467D01*
X84888676Y-135920869D02*
X85136180Y-136006910D01*
X85386060Y-136094143D01*
X85637002Y-136183356D01*
X85887694Y-136275336D01*
X86136824Y-136370869D01*
X86383080Y-136470742D01*
X86625150Y-136575744D01*
X86861722Y-136686660D01*
X87091483Y-136804279D01*
X87313121Y-136929386D01*
X87525325Y-137062770D01*
X87726781Y-137205217D01*
X87916178Y-137357514D01*
X88092203Y-137520449D01*
X88253545Y-137694809D01*
X88398891Y-137881380D01*
X98296539Y-60876790D02*
X98212053Y-60432893D01*
X90294455Y-115940439D02*
X89877272Y-116337562D01*
X90508517Y-141665585D02*
X90327859Y-141781372D01*
X90162559Y-141922497D01*
X90025633Y-142078974D01*
X89900866Y-142257036D01*
X89885318Y-142281122D01*
X109018014Y-58487577D02*
X109643759Y-57891893D01*
X106959550Y-58969467D02*
X106648716Y-59336877D01*
X102817192Y-66391823D02*
X103059901Y-66136984D01*
X89647231Y-87697837D02*
X88882583Y-87210314D01*
X99774269Y-68644910D02*
X99872487Y-68336981D01*
X88525093Y-81092485D02*
X88627353Y-80923655D01*
D11*
X91954351Y-49060608D02*
X91891826Y-49178438D01*
X90496962Y-52982611D01*
X88933024Y-49051632D01*
X91954351Y-49060608D01*
G36*
X91954351Y-49060608D02*
G01*
X91891826Y-49178438D01*
X90496962Y-52982611D01*
X88933024Y-49051632D01*
X91954351Y-49060608D01*
G37*
D10*
X102470629Y-69515803D02*
X102246088Y-69552771D01*
X102025375Y-69628514D01*
X101834780Y-69700811D01*
X101634362Y-69779909D01*
X101434612Y-69859980D01*
X101246023Y-69935194D01*
X101030065Y-70017852D01*
X100852137Y-70073415D01*
X105562497Y-78463112D02*
X105732997Y-78585894D01*
X105924675Y-78710829D01*
X106129245Y-78840068D01*
X106338419Y-78975763D01*
X106543910Y-79120066D01*
X106737430Y-79275128D01*
X106910693Y-79443103D01*
X107055411Y-79626141D01*
X107163297Y-79826396D01*
X107226065Y-80046018D01*
X107238752Y-80204256D01*
X88544812Y-85434744D02*
X88157636Y-85636454D01*
X102649221Y-119312374D02*
X102748614Y-119119068D01*
X102649221Y-119312374D01*
X88282434Y-81347342D02*
X88525093Y-81092485D01*
X92711203Y-69757392D02*
X92568325Y-70012808D01*
X92452147Y-70285724D01*
X92359902Y-70570684D01*
X92310336Y-70764655D01*
X92251833Y-71057568D01*
X92209886Y-71347978D01*
X92181730Y-71630430D01*
X92164598Y-71899470D01*
X92155725Y-72149643D01*
X92152344Y-72375493D01*
X92151689Y-72571566D01*
X102649221Y-119312374D02*
X102861955Y-119194887D01*
X103021917Y-119066446D01*
X103173145Y-118856470D01*
X103231950Y-118630139D01*
X103214122Y-118392428D01*
X103135450Y-118148314D01*
X103011724Y-117902771D01*
X102858734Y-117660775D01*
X102692270Y-117427301D01*
X102528120Y-117207325D01*
X102382075Y-117005821D01*
X102340146Y-116943619D01*
X93785161Y-74012162D02*
X93793098Y-74269281D01*
X93801716Y-74514682D01*
X93812715Y-74749144D01*
X93827796Y-74973449D01*
X93848659Y-75188378D01*
X93877005Y-75394712D01*
X93914535Y-75593234D01*
X93991771Y-75878076D01*
X94099237Y-76149733D01*
X94242674Y-76410842D01*
X94361117Y-76580357D01*
X94499799Y-76747138D01*
X94660420Y-76911966D01*
X94844682Y-77075621D01*
X94946210Y-77157254D01*
X96786028Y-61766547D02*
X97109072Y-61816489D01*
X95504962Y-109803707D02*
X95271421Y-109803707D01*
X95069767Y-109803707D01*
X94851538Y-109803707D01*
X94622260Y-109803707D01*
X94387458Y-109803707D01*
X94152655Y-109803707D01*
X93923377Y-109803707D01*
X93705149Y-109803707D01*
X93503495Y-109803707D01*
X93269955Y-109803707D01*
X88013158Y-85583345D02*
X87975030Y-85500522D01*
X99967793Y-60596669D02*
X99151213Y-60778169D01*
X95716112Y-60616356D02*
X95545679Y-60897739D01*
X87682435Y-37981511D02*
X87630870Y-38186188D01*
X87480713Y-38354867D01*
X87300476Y-38500113D01*
X87160345Y-38676603D01*
X87123684Y-38852083D01*
X106648716Y-59336877D02*
X106584584Y-59588529D01*
X107147278Y-61722007D02*
X107100970Y-61360950D01*
X98810334Y-61340955D02*
X98890729Y-61645734D01*
X83212420Y-43204944D02*
X83056652Y-43449792D01*
X82909171Y-43694640D01*
X82778265Y-43939489D01*
X82672220Y-44184337D01*
X82599324Y-44429185D01*
X82567863Y-44674034D01*
X82586125Y-44918882D01*
X82662398Y-45163731D01*
X82804968Y-45408579D01*
X82940938Y-45571811D01*
X83112513Y-45735043D01*
X83212420Y-45816660D01*
X100988861Y-73052217D02*
X100855226Y-72897493D01*
X100684748Y-72766139D01*
X100483026Y-72657106D01*
X100295097Y-72582537D01*
X100092600Y-72522133D01*
X99922292Y-72483599D01*
X99370461Y-62166138D02*
X99970300Y-61904964D01*
X98387216Y-82309410D02*
X97909991Y-83097302D01*
X89888619Y-78841323D02*
X91690630Y-79366117D01*
X83212420Y-45816660D02*
X83421399Y-45874005D01*
X83627060Y-45887744D01*
X83826085Y-45865281D01*
X84104922Y-45779904D01*
X84350166Y-45654721D01*
X84550617Y-45514720D01*
X84728854Y-45348191D01*
X84489058Y-45467048D01*
X84299885Y-45647729D01*
X99970300Y-61904964D02*
X100387483Y-61507841D01*
X106520490Y-59840219D02*
X106596795Y-60005881D01*
X111981135Y-77948570D02*
X111658092Y-77898628D01*
X89602327Y-131374136D02*
X89700546Y-131066207D01*
X108488856Y-59944493D02*
X108412551Y-59778831D01*
X107642278Y-60321388D02*
X107897148Y-60483883D01*
X93828706Y-116332997D02*
X94050924Y-116466579D01*
X94296879Y-116544688D01*
X94564114Y-116573063D01*
X94850174Y-116557441D01*
X95152604Y-116503561D01*
X95468948Y-116417163D01*
X95796751Y-116303985D01*
X96133558Y-116169764D01*
X96476912Y-116020241D01*
X96824358Y-115861153D01*
X97173442Y-115698240D01*
X97521707Y-115537239D01*
X97866698Y-115383890D01*
X98205960Y-115243931D01*
X98537037Y-115123101D01*
X98857474Y-115027139D01*
X87757365Y-82943375D02*
X87604718Y-82612012D01*
X98379096Y-82031175D02*
X98387216Y-82309410D01*
X89171132Y-116628466D02*
X90287907Y-114493044D01*
X112294524Y-78889474D02*
X112430871Y-78664367D01*
X100862583Y-65535684D02*
X100904838Y-65757661D01*
X88615351Y-131837057D02*
X89427841Y-131516440D01*
X88357767Y-79035512D02*
X88953576Y-78635220D01*
X99416226Y-73239680D02*
X99183776Y-73260084D01*
X98986879Y-73302167D01*
X98779854Y-73367205D01*
X98570987Y-73455197D01*
X98368566Y-73566144D01*
X98180877Y-73700045D01*
X98016208Y-73856901D01*
X97882846Y-74036712D01*
X97789079Y-74239477D01*
X97743192Y-74465197D01*
X97739970Y-74545538D01*
X106807923Y-61115615D02*
X106195923Y-60959454D01*
X98212053Y-60432893D02*
X97919067Y-60187557D01*
X106056371Y-160060416D02*
X106527983Y-160302584D01*
X95591976Y-61258814D02*
X95812759Y-61477586D01*
X89996241Y-87413267D02*
X90136629Y-87327260D01*
X95587897Y-61119678D02*
X95591976Y-61258814D01*
X98912234Y-86723875D02*
X99068837Y-86859354D01*
X99174086Y-86956647D01*
X106121248Y-77157254D02*
X105911716Y-77231311D01*
X105702184Y-77290624D01*
X105492652Y-77335749D01*
X105283120Y-77367245D01*
X105073588Y-77385670D01*
X104864056Y-77391581D01*
X104654524Y-77385537D01*
X104444992Y-77368095D01*
X104235460Y-77339814D01*
X104025928Y-77301251D01*
X103816396Y-77252964D01*
X103606864Y-77195511D01*
X103397332Y-77129450D01*
X103187800Y-77055340D01*
X102978268Y-76973737D01*
X102768737Y-76885200D01*
X102559205Y-76790286D01*
X102349673Y-76689555D01*
X102140141Y-76583563D01*
X101930609Y-76472868D01*
X101721077Y-76358029D01*
X101511545Y-76239603D01*
X101302013Y-76118149D01*
X101092481Y-75994224D01*
X100882949Y-75868386D01*
X100673417Y-75741192D01*
X100463885Y-75613202D01*
X100254353Y-75484973D01*
X100044821Y-75357063D01*
X99835289Y-75230029D01*
X99625757Y-75104430D01*
X99416226Y-74980824D01*
X96337892Y-85547044D02*
X96141492Y-86162940D01*
X107752038Y-160614914D02*
X109295094Y-160838086D01*
X106584584Y-59588529D02*
X106520490Y-59840219D01*
X90287907Y-114493044D02*
X90701000Y-113956804D01*
X96063714Y-111980137D02*
X96277900Y-111935609D01*
X96497188Y-111858774D01*
X96715053Y-111763302D01*
X96924970Y-111662864D01*
X97120414Y-111571131D01*
X97181218Y-111544851D01*
X107849290Y-157829483D02*
X107381769Y-157726431D01*
X111762859Y-79038094D02*
X112047774Y-79005213D01*
X88746696Y-128995340D02*
X88538085Y-129193883D01*
X88627353Y-80923655D02*
X88258013Y-80512638D01*
X88188305Y-81794388D02*
X88282434Y-81347342D01*
X98888592Y-66461489D02*
X98820418Y-66574043D01*
X88094935Y-129925518D02*
X88179372Y-130369396D01*
X106195923Y-60959454D02*
X105557968Y-61137786D01*
X93634892Y-34162504D02*
X93429834Y-34155035D01*
X93175448Y-34098829D01*
X92940707Y-33999596D01*
X92723324Y-33868054D01*
X92521010Y-33714925D01*
X92331477Y-33550928D01*
X92152438Y-33386784D01*
X91981606Y-33233213D01*
X91939912Y-33197729D01*
X106594299Y-73636061D02*
X106615386Y-73897215D01*
X106644413Y-74173456D01*
X106678230Y-74460376D01*
X106713688Y-74753569D01*
X106747641Y-75048628D01*
X106776938Y-75341148D01*
X106798432Y-75626722D01*
X106808975Y-75900943D01*
X106805417Y-76159405D01*
X106784611Y-76397702D01*
X106743409Y-76611427D01*
X106636473Y-76876304D01*
X106465935Y-77061109D01*
X106221168Y-77150969D01*
X106121248Y-77157254D01*
X91688979Y-73599810D02*
X91536393Y-73734289D01*
X91290713Y-73778330D01*
X91077981Y-73791601D01*
X90834524Y-73798824D01*
X90567568Y-73805848D01*
X90284341Y-73818521D01*
X89992070Y-73842691D01*
X89697980Y-73884209D01*
X89409300Y-73948921D01*
X89133255Y-74042678D01*
X88877072Y-74171328D01*
X88647979Y-74340719D01*
X88453201Y-74556700D01*
X88299967Y-74825121D01*
X88241187Y-74980824D01*
X109865514Y-60588158D02*
X109716946Y-60395932D01*
X93269955Y-106321419D02*
X93098891Y-106642463D01*
X93001492Y-106951393D01*
X92972845Y-107246295D01*
X93008039Y-107525256D01*
X93102165Y-107786364D01*
X93250311Y-108027706D01*
X93447565Y-108247368D01*
X93689018Y-108443438D01*
X93969758Y-108614003D01*
X94284874Y-108757150D01*
X94629456Y-108870966D01*
X94998593Y-108953539D01*
X95387373Y-109002955D01*
X95587594Y-109014631D01*
X95790885Y-109017301D01*
X95996632Y-109010726D01*
X96204220Y-108994665D01*
X96413036Y-108968881D01*
X96622466Y-108933135D01*
X89427841Y-131516440D02*
X89602327Y-131374136D01*
X89031574Y-128962422D02*
X88746696Y-128995340D01*
X90255623Y-129274762D02*
X90000753Y-129112266D01*
X96063714Y-65404531D02*
X96293372Y-65283796D01*
X96498606Y-65145818D01*
X96682565Y-64993061D01*
X96848398Y-64827988D01*
X96999253Y-64653062D01*
X97138280Y-64470747D01*
X97268629Y-64283505D01*
X97393446Y-64093800D01*
X97515883Y-63904095D01*
X97639088Y-63716854D01*
X97723207Y-63594612D01*
X96141492Y-86162940D02*
X96157743Y-86719391D01*
X89331861Y-117238027D02*
X88982851Y-117522597D01*
X101526553Y-65022859D02*
X101028975Y-65115202D01*
X89516509Y-86892864D02*
X89699153Y-87028833D01*
X94477556Y-74473102D02*
X94676908Y-74415222D01*
X94879502Y-74357856D01*
X95082791Y-74299785D01*
X95284229Y-74239789D01*
X95481270Y-74176651D01*
X95671370Y-74109150D01*
X95937933Y-73997054D01*
X96174557Y-73868287D01*
X96372648Y-73718735D01*
X96523616Y-73544285D01*
X96618867Y-73340823D01*
X96649811Y-73104235D01*
X96630471Y-72926076D01*
X106680000Y-80639542D02*
X106600879Y-80955910D01*
X106570868Y-81252513D01*
X106586692Y-81529987D01*
X106645078Y-81788969D01*
X106742750Y-82030098D01*
X106876436Y-82254011D01*
X107042861Y-82461346D01*
X107238752Y-82652740D01*
X107460834Y-82828831D01*
X107705833Y-82990257D01*
X107970477Y-83137655D01*
X108251490Y-83271663D01*
X108545598Y-83392918D01*
X108849529Y-83502058D01*
X109160007Y-83599721D01*
X109473760Y-83686545D01*
X87035548Y-79031120D02*
X87069635Y-78974843D01*
X89812472Y-130006396D02*
X90225615Y-129470174D01*
X93273092Y-88273760D02*
X93650564Y-88962993D01*
X86599153Y-132540904D02*
X86815846Y-132620559D01*
X91273659Y-60221952D02*
X91384040Y-60434475D01*
X91532532Y-60609498D01*
X91715193Y-60753274D01*
X91928080Y-60872057D01*
X92167250Y-60972101D01*
X92428762Y-61059661D01*
X92708672Y-61140990D01*
X92903554Y-61194836D01*
X93103692Y-61250546D01*
X93307918Y-61309972D01*
X93515065Y-61374967D01*
X93723964Y-61447385D01*
X93828706Y-61486957D01*
X99169466Y-66289510D02*
X98888592Y-66461489D01*
X96157743Y-86719391D02*
X96059562Y-87027357D01*
X109809551Y-61118063D02*
X109979996Y-60836661D01*
X108754337Y-158230979D02*
X108427204Y-158041920D01*
X87123684Y-37546225D02*
X87682435Y-37981511D01*
X93650564Y-88962993D02*
X93654643Y-89102129D01*
X101651662Y-66857892D02*
X101902442Y-66881271D01*
X109806084Y-57332256D02*
X109789821Y-56775824D01*
X109979996Y-60836661D02*
X109865514Y-60588158D01*
X112047774Y-79005213D02*
X112294524Y-78889474D01*
X101902442Y-66881271D02*
X102817192Y-66391823D01*
X86815846Y-132620559D02*
X87134848Y-132531402D01*
X97065958Y-84782529D02*
X96337892Y-85547044D01*
X90656121Y-86761325D02*
X90724306Y-86648752D01*
X87123684Y-38852083D02*
X86952262Y-38619070D01*
X86754138Y-38411164D01*
X86532073Y-38230517D01*
X86288829Y-38079280D01*
X86027170Y-37959605D01*
X85749857Y-37873645D01*
X85459654Y-37823552D01*
X85159321Y-37811477D01*
X84954836Y-37825611D01*
X84747896Y-37858236D01*
X84539319Y-37909990D01*
X84329924Y-37981511D01*
X107381769Y-157726431D02*
X106952375Y-157706202D01*
X99974977Y-91956979D02*
X99766983Y-91660047D01*
X99620533Y-91348025D01*
X99526483Y-91023283D01*
X99475691Y-90688196D01*
X99459013Y-90345136D01*
X99467306Y-89996475D01*
X99491429Y-89644587D01*
X99522237Y-89291845D01*
X99550587Y-88940621D01*
X99567338Y-88593287D01*
X99563345Y-88252218D01*
X99529466Y-87919785D01*
X99456559Y-87598361D01*
X99335479Y-87290319D01*
X99157085Y-86998033D01*
X98912234Y-86723875D01*
X96805398Y-59984623D02*
X96273744Y-60133224D01*
X97428036Y-61727295D02*
X97849298Y-61469308D01*
X91839041Y-114994424D02*
X90890253Y-115540166D01*
X91537708Y-88805628D02*
X91218891Y-88894480D01*
X93269002Y-88134643D02*
X93273092Y-88273760D01*
X88005026Y-85305129D02*
X88319950Y-85076836D01*
X86689203Y-131954722D02*
X86659157Y-132150097D01*
X106883533Y-67670264D02*
X106824734Y-67904811D01*
X106713655Y-68144707D01*
X106558860Y-68389215D01*
X106368915Y-68637594D01*
X106152385Y-68889106D01*
X105917838Y-69143013D01*
X105673838Y-69398575D01*
X105428952Y-69655055D01*
X105191745Y-69911713D01*
X104970783Y-70167811D01*
X104774633Y-70422609D01*
X104611859Y-70675370D01*
X104491027Y-70925355D01*
X104420704Y-71171825D01*
X104409456Y-71414040D01*
X104465848Y-71651264D01*
X110560686Y-78252126D02*
X110492513Y-78364679D01*
X87280910Y-131415332D02*
X86689203Y-131954722D01*
X87069635Y-78974843D02*
X88357767Y-79035512D01*
X107100970Y-61360950D02*
X106807923Y-61115615D01*
X92152451Y-113285995D02*
X92335034Y-113203919D01*
X92526725Y-113103862D01*
X92726369Y-112988935D01*
X92932813Y-112862246D01*
X93144902Y-112726908D01*
X93361483Y-112586030D01*
X93581401Y-112442724D01*
X93803502Y-112300099D01*
X94026633Y-112161266D01*
X94249639Y-112029337D01*
X94471367Y-111907420D01*
X94690662Y-111798628D01*
X94906371Y-111706069D01*
X95117339Y-111632856D01*
X95322412Y-111582098D01*
X95520438Y-111556907D01*
X112270141Y-78054807D02*
X111981135Y-77948570D01*
X108671511Y-60080443D02*
X108488856Y-59944493D01*
X93269955Y-135485583D02*
X93363414Y-135729164D01*
X93434871Y-135970243D01*
X93485240Y-136208870D01*
X93515437Y-136445092D01*
X93526375Y-136678959D01*
X93518971Y-136910519D01*
X93494138Y-137139821D01*
X93452793Y-137366914D01*
X93395849Y-137591846D01*
X93324221Y-137814666D01*
X93238826Y-138035424D01*
X93140576Y-138254167D01*
X93030389Y-138470945D01*
X92909177Y-138685806D01*
X92777857Y-138898799D01*
X92637343Y-139109973D01*
X92488549Y-139319376D01*
X92332392Y-139527058D01*
X92169786Y-139733067D01*
X92001645Y-139937451D01*
X91828885Y-140140260D01*
X91652421Y-140341542D01*
X91473167Y-140541347D01*
X91292039Y-140739722D01*
X91109951Y-140936716D01*
X90927818Y-141132379D01*
X90746556Y-141326759D01*
X90567078Y-141519905D01*
X90390301Y-141711865D01*
X90217138Y-141902689D01*
X90048506Y-142092424D01*
X89885318Y-142281121D01*
X108787527Y-59159749D02*
X109018014Y-58487577D01*
X100387483Y-61507841D02*
X100443447Y-60977936D01*
X88191424Y-79456012D02*
X88008768Y-79320063D01*
X108427204Y-158041920D02*
X107849290Y-157829483D01*
X96897963Y-77660301D02*
X97171837Y-77676968D01*
X97447127Y-77676428D01*
X97718725Y-77659058D01*
X97981522Y-77625235D01*
X98230411Y-77575335D01*
X98460286Y-77509734D01*
X98666038Y-77428809D01*
X98842561Y-77332938D01*
X99041365Y-77161928D01*
X99145673Y-76959406D01*
X99138245Y-76726642D01*
X99001845Y-76464908D01*
X98830748Y-76274951D01*
X98589561Y-76073061D01*
X87830383Y-122991091D02*
X87628409Y-123360464D01*
X87440779Y-123733747D01*
X87266335Y-124110505D01*
X87103917Y-124490301D01*
X86952367Y-124872699D01*
X86810526Y-125257264D01*
X86677236Y-125643559D01*
X86551337Y-126031149D01*
X86431670Y-126419597D01*
X86317078Y-126808467D01*
X86206401Y-127197324D01*
X86098480Y-127585731D01*
X85992157Y-127973253D01*
X85886274Y-128359454D01*
X85779670Y-128743897D01*
X85671188Y-129126146D01*
X85559669Y-129505766D01*
X85443953Y-129882321D01*
X85322883Y-130255374D01*
X85195300Y-130624490D01*
X85060044Y-130989232D01*
X84915957Y-131349165D01*
X84761880Y-131703852D01*
X84596655Y-132052859D01*
X84419123Y-132395748D01*
X84228124Y-132732083D01*
X84022501Y-133061430D01*
X83801094Y-133383351D01*
X83562745Y-133697411D01*
X83306295Y-134003173D01*
X83030585Y-134300202D01*
X82734457Y-134588063D01*
X98857474Y-115027139D02*
X99066732Y-115037128D01*
X99274355Y-115066246D01*
X99478703Y-115113218D01*
X99678140Y-115176768D01*
X99871029Y-115255621D01*
X100055734Y-115348502D01*
X100230617Y-115454135D01*
X100394041Y-115571246D01*
X100614111Y-115765642D01*
X100799190Y-115978689D01*
X100943755Y-116206082D01*
X101042280Y-116443518D01*
X101089241Y-116686693D01*
X101092481Y-116768283D01*
X109314180Y-56394537D02*
X109135566Y-56397687D01*
X89985187Y-89473103D02*
X89696182Y-89366866D01*
X107897148Y-60483883D02*
X108007540Y-60593269D01*
X88157636Y-85636454D02*
X88013158Y-85583345D01*
X100154908Y-66995786D02*
X100108599Y-66634729D01*
X88241187Y-74980824D02*
X88444487Y-74914391D01*
X88649285Y-74864452D01*
X88855438Y-74829371D01*
X89062802Y-74807510D01*
X89271234Y-74797234D01*
X89480593Y-74796906D01*
X89690735Y-74804891D01*
X89901517Y-74819552D01*
X90112797Y-74839252D01*
X90324432Y-74862356D01*
X90536279Y-74887227D01*
X90748196Y-74912229D01*
X90960039Y-74935726D01*
X91171665Y-74956082D01*
X91382933Y-74971660D01*
X91593699Y-74980824D01*
X90210476Y-86184645D02*
X89343557Y-85865971D01*
X107577223Y-58095565D02*
X107232255Y-58519234D01*
X87728903Y-81969572D02*
X88188305Y-81794388D01*
X103119954Y-65746196D02*
X102899122Y-65527406D01*
X105465853Y-66236072D02*
X105753644Y-66231432D01*
X106007510Y-66268948D01*
X106228100Y-66343991D01*
X106416067Y-66451927D01*
X106572061Y-66588128D01*
X106696733Y-66747962D01*
X106790735Y-66926797D01*
X106854718Y-67120004D01*
X106889334Y-67322951D01*
X106895232Y-67531007D01*
X106883533Y-67670264D01*
X89779499Y-87333594D02*
X89996241Y-87413267D01*
X88319950Y-85076836D02*
X88371872Y-84407831D01*
X95545679Y-60897739D02*
X95587897Y-61119678D01*
X109789821Y-56775824D02*
X109530873Y-56474192D01*
X105598510Y-159066393D02*
X105640728Y-159288333D01*
X89885318Y-142281122D02*
X89574643Y-142228376D01*
X89221375Y-142489310D01*
X89035446Y-142727587D01*
X88846881Y-143032500D01*
X88658352Y-143400123D01*
X88472528Y-143826528D01*
X88292083Y-144307786D01*
X88119685Y-144839971D01*
X87958006Y-145419154D01*
X87809718Y-146041408D01*
X87677490Y-146702806D01*
X87563995Y-147399419D01*
X87471902Y-148127320D01*
X87403884Y-148882582D01*
X87362610Y-149661276D01*
X87350752Y-150459476D01*
X87370980Y-151273254D01*
X87425967Y-152098681D01*
X87518382Y-152931830D01*
X87650896Y-153768774D01*
X87826181Y-154605586D01*
X88046908Y-155438336D01*
X88315747Y-156263099D01*
X88635369Y-157075945D01*
X89008446Y-157872948D01*
X89437648Y-158650180D01*
X89925646Y-159403714D01*
X90475112Y-160129620D01*
X91088715Y-160823973D01*
X91769128Y-161482845D01*
X96747068Y-112608255D02*
X96405243Y-112747427D01*
X96058791Y-112909327D01*
X95713257Y-113091760D01*
X95374188Y-113292531D01*
X95047131Y-113509444D01*
X94737633Y-113740303D01*
X94451241Y-113982914D01*
X94193501Y-114235081D01*
X93969961Y-114494609D01*
X93786168Y-114759302D01*
X93647667Y-115026966D01*
X93560007Y-115295404D01*
X93528734Y-115562421D01*
X93559395Y-115825823D01*
X93657536Y-116083413D01*
X93828706Y-116332997D01*
X109792618Y-160745734D02*
X109860792Y-160633181D01*
X92152451Y-113285995D02*
X92373657Y-113172051D01*
X92543013Y-113013875D01*
X92588547Y-112811044D01*
X92387025Y-112741552D01*
X92243945Y-112910515D01*
X92179128Y-113108078D01*
X92152451Y-113285995D01*
X89699153Y-87028833D02*
X89779499Y-87333594D01*
X90701000Y-113956804D02*
X91122274Y-113698798D01*
X90000753Y-129112266D02*
X89571359Y-129092037D01*
X97189633Y-77679889D02*
X96988875Y-77666931D01*
X96897963Y-77660301D01*
M02*
