%TF.GenerationSoftware,KiCad,Pcbnew,7.0.2-0*%
%TF.CreationDate,2023-06-28T16:36:39-04:00*%
%TF.ProjectId,Escanaba Euclidean Panel,45736361-6e61-4626-9120-4575636c6964,rev?*%
%TF.SameCoordinates,Original*%
%TF.FileFunction,Legend,Bot*%
%TF.FilePolarity,Positive*%
%FSLAX46Y46*%
G04 Gerber Fmt 4.6, Leading zero omitted, Abs format (unit mm)*
G04 Created by KiCad (PCBNEW 7.0.2-0) date 2023-06-28 16:36:39*
%MOMM*%
%LPD*%
G01*
G04 APERTURE LIST*
%ADD10C,0.127000*%
%ADD11C,0.200000*%
G04 APERTURE END LIST*
D10*
X99104737Y-154979559D02*
X99108379Y-154979970D01*
X99111851Y-154980614D01*
X99115102Y-154981495D01*
X99116629Y-154982025D01*
X99118082Y-154982615D01*
X99119455Y-154983267D01*
X99120740Y-154983980D01*
X99301980Y-155083531D01*
X99483219Y-155185068D01*
X99614518Y-155257825D01*
X99680788Y-155294452D01*
X99747802Y-155330583D01*
X100160552Y-155558122D01*
X100446302Y-155716875D01*
X100859052Y-155941774D01*
X101187135Y-156116395D01*
X101191561Y-156118969D01*
X101195874Y-156121729D01*
X101200024Y-156124675D01*
X101203961Y-156127806D01*
X101207635Y-156131124D01*
X101209357Y-156132853D01*
X101210994Y-156134628D01*
X101212540Y-156136450D01*
X101213989Y-156138318D01*
X101215335Y-156140233D01*
X101216570Y-156142194D01*
X101217689Y-156144202D01*
X101218686Y-156146256D01*
X101219553Y-156148357D01*
X101220286Y-156150504D01*
X101220877Y-156152698D01*
X101221320Y-156154938D01*
X101221609Y-156157225D01*
X101221738Y-156159558D01*
X101221700Y-156161937D01*
X101221489Y-156164363D01*
X101221099Y-156166836D01*
X101220523Y-156169355D01*
X101219756Y-156171920D01*
X101218790Y-156174532D01*
X101217620Y-156177190D01*
X101216239Y-156179895D01*
X101213198Y-156184726D01*
X101210018Y-156189274D01*
X101206682Y-156193505D01*
X101204951Y-156195490D01*
X101203176Y-156197383D01*
X101201354Y-156199178D01*
X101199483Y-156200873D01*
X101197563Y-156202462D01*
X101195590Y-156203941D01*
X101193562Y-156205305D01*
X101191479Y-156206551D01*
X101189337Y-156207674D01*
X101187135Y-156208669D01*
X101184872Y-156209533D01*
X101182544Y-156210260D01*
X101180150Y-156210847D01*
X101177689Y-156211289D01*
X101175158Y-156211582D01*
X101172555Y-156211721D01*
X101169878Y-156211702D01*
X101167126Y-156211521D01*
X101164297Y-156211174D01*
X101161388Y-156210655D01*
X101158397Y-156209961D01*
X101155323Y-156209087D01*
X101152164Y-156208029D01*
X101148918Y-156206782D01*
X101145583Y-156205343D01*
X101142156Y-156203706D01*
X101134655Y-156200413D01*
X101127041Y-156197458D01*
X101119326Y-156194805D01*
X101111522Y-156192419D01*
X101103641Y-156190266D01*
X101095694Y-156188311D01*
X101079648Y-156184854D01*
X101047278Y-156178777D01*
X101031139Y-156175598D01*
X101015156Y-156171953D01*
X100981463Y-156163976D01*
X100948018Y-156155752D01*
X100931466Y-156151469D01*
X100915069Y-156147030D01*
X100898858Y-156142404D01*
X100882864Y-156137559D01*
X100841193Y-156125694D01*
X100799521Y-156114078D01*
X100757849Y-156102957D01*
X100716177Y-156092577D01*
X100670537Y-156081125D01*
X100624896Y-156070419D01*
X100533615Y-156050241D01*
X100442334Y-156026099D01*
X100396693Y-156013408D01*
X100351052Y-155999971D01*
X100176426Y-155957635D01*
X100085145Y-155933493D01*
X100039505Y-155920802D01*
X99993865Y-155907365D01*
X99873479Y-155874623D01*
X99813039Y-155858623D01*
X99782973Y-155851043D01*
X99753094Y-155843866D01*
X99750118Y-155843430D01*
X99747141Y-155843106D01*
X99744164Y-155842883D01*
X99741188Y-155842749D01*
X99738211Y-155842693D01*
X99735235Y-155842702D01*
X99729281Y-155842873D01*
X99717375Y-155843494D01*
X99711422Y-155843757D01*
X99705469Y-155843866D01*
X99716383Y-155863049D01*
X99717765Y-155865249D01*
X99719189Y-155867380D01*
X99720668Y-155869433D01*
X99722212Y-155871401D01*
X99723834Y-155873277D01*
X99725546Y-155875051D01*
X99727358Y-155876717D01*
X99729282Y-155878267D01*
X99935656Y-156058183D01*
X99938276Y-156060716D01*
X99940680Y-156063348D01*
X99942869Y-156066069D01*
X99944844Y-156068870D01*
X99946606Y-156071740D01*
X99948155Y-156074670D01*
X99949494Y-156077651D01*
X99950622Y-156080672D01*
X99951540Y-156083725D01*
X99952251Y-156086798D01*
X99952754Y-156089884D01*
X99953050Y-156092971D01*
X99953142Y-156096050D01*
X99953029Y-156099112D01*
X99952712Y-156102147D01*
X99952193Y-156105145D01*
X99951472Y-156108096D01*
X99950551Y-156110992D01*
X99949430Y-156113821D01*
X99948110Y-156116575D01*
X99946593Y-156119244D01*
X99944879Y-156121817D01*
X99942970Y-156124286D01*
X99940865Y-156126641D01*
X99938567Y-156128871D01*
X99936076Y-156130968D01*
X99933393Y-156132922D01*
X99930520Y-156134722D01*
X99927456Y-156136360D01*
X99924204Y-156137825D01*
X99920763Y-156139108D01*
X99917136Y-156140199D01*
X99869511Y-156151651D01*
X99821886Y-156162357D01*
X99726635Y-156182535D01*
X99575822Y-156211633D01*
X99536135Y-156221514D01*
X99496448Y-156231147D01*
X99456760Y-156240286D01*
X99436916Y-156244592D01*
X99417073Y-156248682D01*
X99282136Y-156277780D01*
X99242035Y-156286172D01*
X99201438Y-156295309D01*
X99160841Y-156304943D01*
X99120740Y-156314828D01*
X98977865Y-156346574D01*
X98940121Y-156354924D01*
X98902128Y-156363771D01*
X98863639Y-156372617D01*
X98844131Y-156376886D01*
X98824406Y-156380968D01*
X98786744Y-156388495D01*
X98749330Y-156395524D01*
X98712412Y-156402551D01*
X98694217Y-156406219D01*
X98676239Y-156410074D01*
X98477802Y-156460344D01*
X98458831Y-156464199D01*
X98439644Y-156467868D01*
X98400742Y-156474896D01*
X98361344Y-156481923D01*
X98321698Y-156489442D01*
X98174854Y-156521523D01*
X98101432Y-156538185D01*
X98028010Y-156555589D01*
X98027514Y-156555604D01*
X98027018Y-156555649D01*
X98026522Y-156555722D01*
X98026025Y-156555822D01*
X98025529Y-156555946D01*
X98025033Y-156556095D01*
X98024041Y-156556457D01*
X98023049Y-156556896D01*
X98022056Y-156557402D01*
X98021064Y-156557961D01*
X98020072Y-156558564D01*
X98018088Y-156559850D01*
X98016103Y-156561167D01*
X98015111Y-156561808D01*
X98014119Y-156562423D01*
X98013126Y-156562998D01*
X98012134Y-156563524D01*
X98012630Y-156563787D01*
X98013126Y-156564079D01*
X98014119Y-156564739D01*
X98015111Y-156565484D01*
X98016103Y-156566295D01*
X98018088Y-156568038D01*
X98020072Y-156569811D01*
X98021064Y-156570661D01*
X98022056Y-156571461D01*
X98023049Y-156572191D01*
X98024041Y-156572831D01*
X98024537Y-156573112D01*
X98025033Y-156573363D01*
X98025529Y-156573582D01*
X98026025Y-156573767D01*
X98026522Y-156573915D01*
X98027018Y-156574024D01*
X98027514Y-156574091D01*
X98028010Y-156574113D01*
X98095065Y-156581596D01*
X98161624Y-156588336D01*
X98295238Y-156600572D01*
X98538655Y-156627031D01*
X98813821Y-156653490D01*
X99067821Y-156679948D01*
X99145625Y-156687434D01*
X99223925Y-156694174D01*
X99380029Y-156706415D01*
X99396783Y-156707531D01*
X99413350Y-156708895D01*
X99429794Y-156710507D01*
X99446175Y-156712367D01*
X99462557Y-156714474D01*
X99479000Y-156716829D01*
X99495568Y-156719432D01*
X99512321Y-156722284D01*
X99513576Y-156722330D01*
X99514859Y-156722465D01*
X99516166Y-156722687D01*
X99517494Y-156722992D01*
X99518839Y-156723376D01*
X99520198Y-156723836D01*
X99522946Y-156724971D01*
X99525708Y-156726370D01*
X99528460Y-156728005D01*
X99531172Y-156729849D01*
X99533818Y-156731876D01*
X99536372Y-156734057D01*
X99538805Y-156736367D01*
X99541091Y-156738777D01*
X99543203Y-156741261D01*
X99545113Y-156743791D01*
X99546794Y-156746341D01*
X99548220Y-156748883D01*
X99549363Y-156751390D01*
X99564783Y-156791077D01*
X99579459Y-156830762D01*
X99593639Y-156870448D01*
X99607571Y-156910135D01*
X99626960Y-156965700D01*
X99645605Y-157021264D01*
X99681654Y-157132387D01*
X99717373Y-157235905D01*
X99753092Y-157341409D01*
X99827175Y-157555719D01*
X99898613Y-157764741D01*
X99967404Y-157973772D01*
X100018667Y-158115321D01*
X100043678Y-158185850D01*
X100067946Y-158256876D01*
X100168487Y-158545267D01*
X100171774Y-158554419D01*
X100175432Y-158563912D01*
X100179091Y-158573593D01*
X100180804Y-158578454D01*
X100182378Y-158583304D01*
X100183765Y-158588123D01*
X100184920Y-158592891D01*
X100185796Y-158597590D01*
X100186346Y-158602199D01*
X100186525Y-158606700D01*
X100186460Y-158608903D01*
X100186284Y-158611072D01*
X100185993Y-158613205D01*
X100185579Y-158615298D01*
X100185037Y-158617349D01*
X100184362Y-158619356D01*
X100174967Y-158648129D01*
X100164766Y-158676901D01*
X100153945Y-158705673D01*
X100142690Y-158734445D01*
X100119622Y-158791989D01*
X100097049Y-158849535D01*
X100050747Y-158970912D01*
X100027844Y-159030734D01*
X100004446Y-159090311D01*
X99938300Y-159249063D01*
X99907335Y-159330795D01*
X99877115Y-159412773D01*
X99846398Y-159494256D01*
X99830466Y-159534580D01*
X99813945Y-159574502D01*
X99804664Y-159596205D01*
X99794763Y-159617661D01*
X99784365Y-159638869D01*
X99773596Y-159659829D01*
X99751437Y-159701005D01*
X99729278Y-159741189D01*
X99727511Y-159744081D01*
X99725684Y-159746802D01*
X99723799Y-159749353D01*
X99721858Y-159751733D01*
X99719862Y-159753942D01*
X99717814Y-159755981D01*
X99715716Y-159757849D01*
X99713569Y-159759547D01*
X99711375Y-159761075D01*
X99709138Y-159762431D01*
X99706857Y-159763617D01*
X99704536Y-159764633D01*
X99702176Y-159765478D01*
X99699779Y-159766153D01*
X99697347Y-159766657D01*
X99694883Y-159766990D01*
X99692387Y-159767153D01*
X99689862Y-159767145D01*
X99687310Y-159766967D01*
X99684733Y-159766619D01*
X99682133Y-159766099D01*
X99679511Y-159765410D01*
X99676871Y-159764549D01*
X99674212Y-159763518D01*
X99671538Y-159762317D01*
X99668851Y-159760945D01*
X99666152Y-159759402D01*
X99663443Y-159757689D01*
X99660726Y-159755806D01*
X99658004Y-159753752D01*
X99655277Y-159751527D01*
X99652549Y-159749132D01*
X99570528Y-159677690D01*
X99439890Y-159574506D01*
X99375191Y-159522916D01*
X99311236Y-159471323D01*
X99123382Y-159312570D01*
X99105440Y-159296737D01*
X99096314Y-159288897D01*
X99087002Y-159281150D01*
X99077442Y-159273527D01*
X99067572Y-159266058D01*
X99062501Y-159262392D01*
X99057330Y-159258776D01*
X99052050Y-159255214D01*
X99046653Y-159251710D01*
X99038788Y-159246712D01*
X99031109Y-159241613D01*
X99023678Y-159236374D01*
X99016557Y-159230958D01*
X99009808Y-159225324D01*
X99003493Y-159219435D01*
X98997674Y-159213251D01*
X98994970Y-159210036D01*
X98992414Y-159206733D01*
X98990012Y-159203337D01*
X98987773Y-159199844D01*
X98985705Y-159196247D01*
X98983815Y-159192543D01*
X98982111Y-159188727D01*
X98980600Y-159184793D01*
X98979292Y-159180738D01*
X98978192Y-159176555D01*
X98977310Y-159172240D01*
X98976652Y-159167789D01*
X98976227Y-159163197D01*
X98976043Y-159158457D01*
X98976106Y-159153567D01*
X98976425Y-159148521D01*
X98977008Y-159143314D01*
X98977862Y-159137941D01*
X98991090Y-159082384D01*
X99017549Y-158764879D01*
X99018660Y-158748124D01*
X99019987Y-158731556D01*
X99023170Y-158698732D01*
X99026850Y-158665907D01*
X99030777Y-158632585D01*
X99057235Y-158315080D01*
X99061163Y-158281759D01*
X99064842Y-158248937D01*
X99068026Y-158216115D01*
X99069354Y-158199548D01*
X99070465Y-158182794D01*
X99073762Y-158143106D01*
X99077493Y-158103418D01*
X99085017Y-158024042D01*
X99088190Y-157984354D01*
X99090556Y-157944665D01*
X99091807Y-157904977D01*
X99091631Y-157865289D01*
X99091517Y-157861816D01*
X99091179Y-157858343D01*
X99090629Y-157854872D01*
X99089874Y-157851402D01*
X99088926Y-157847934D01*
X99087794Y-157844468D01*
X99086488Y-157841006D01*
X99085017Y-157837547D01*
X99081619Y-157830641D01*
X99077679Y-157823754D01*
X99073273Y-157816891D01*
X99068480Y-157810055D01*
X99063377Y-157803250D01*
X99058041Y-157796480D01*
X99046983Y-157783060D01*
X99035924Y-157769825D01*
X99025486Y-157756807D01*
X99004417Y-157731237D01*
X98982946Y-157706038D01*
X98939166Y-157656263D01*
X98894889Y-157606487D01*
X98872798Y-157581289D01*
X98850861Y-157555719D01*
X98795257Y-157492634D01*
X98739405Y-157430043D01*
X98625966Y-157304361D01*
X98406361Y-157058305D01*
X98405586Y-157057576D01*
X98404753Y-157056879D01*
X98403863Y-157056213D01*
X98402919Y-157055580D01*
X98400885Y-157054414D01*
X98398672Y-157053383D01*
X98396304Y-157052492D01*
X98393804Y-157051744D01*
X98391196Y-157051144D01*
X98388502Y-157050695D01*
X98385746Y-157050401D01*
X98382952Y-157050267D01*
X98380142Y-157050295D01*
X98377340Y-157050490D01*
X98374568Y-157050856D01*
X98371851Y-157051397D01*
X98369212Y-157052116D01*
X98366673Y-157053018D01*
X98306770Y-157079268D01*
X98246618Y-157106263D01*
X98186963Y-157133754D01*
X98128547Y-157161493D01*
X98059549Y-157195684D01*
X97991295Y-157230617D01*
X97856027Y-157301721D01*
X97855035Y-157302256D01*
X97854045Y-157302864D01*
X97853059Y-157303541D01*
X97852079Y-157304285D01*
X97851106Y-157305091D01*
X97850144Y-157305955D01*
X97848255Y-157307841D01*
X97846428Y-157309913D01*
X97844679Y-157312140D01*
X97843022Y-157314492D01*
X97841475Y-157316936D01*
X97840051Y-157319442D01*
X97838767Y-157321980D01*
X97837638Y-157324517D01*
X97836679Y-157327024D01*
X97835907Y-157329469D01*
X97835336Y-157331821D01*
X97835131Y-157332952D01*
X97834982Y-157334049D01*
X97834891Y-157335107D01*
X97834860Y-157336122D01*
X97837299Y-157409542D01*
X97840482Y-157482962D01*
X97848089Y-157629808D01*
X97855696Y-157918203D01*
X97861318Y-158206598D01*
X97861318Y-158476465D01*
X97861196Y-158479914D01*
X97860836Y-158483308D01*
X97860250Y-158486642D01*
X97859447Y-158489908D01*
X97858440Y-158493098D01*
X97857237Y-158496204D01*
X97855850Y-158499221D01*
X97854290Y-158502141D01*
X97852567Y-158504955D01*
X97850692Y-158507658D01*
X97848676Y-158510241D01*
X97846528Y-158512698D01*
X97844261Y-158515021D01*
X97841884Y-158517204D01*
X97839408Y-158519237D01*
X97836844Y-158521116D01*
X97834203Y-158522831D01*
X97831494Y-158524377D01*
X97828730Y-158525745D01*
X97825920Y-158526928D01*
X97823075Y-158527920D01*
X97820206Y-158528713D01*
X97817323Y-158529299D01*
X97814437Y-158529671D01*
X97811559Y-158529823D01*
X97808700Y-158529746D01*
X97805870Y-158529434D01*
X97803079Y-158528879D01*
X97800339Y-158528074D01*
X97797659Y-158527012D01*
X97795052Y-158525686D01*
X97792527Y-158524087D01*
X97739610Y-158492007D01*
X97726225Y-158483754D01*
X97712903Y-158475345D01*
X97699705Y-158466751D01*
X97686693Y-158457941D01*
X97485610Y-158323340D01*
X97385316Y-158256656D01*
X97284526Y-158190713D01*
X97282364Y-158189436D01*
X97279875Y-158187686D01*
X97274108Y-158183356D01*
X97270922Y-158181070D01*
X97267597Y-158178900D01*
X97265896Y-158177905D01*
X97264178Y-158176994D01*
X97262449Y-158176186D01*
X97260714Y-158175498D01*
X97258978Y-158174951D01*
X97257249Y-158174561D01*
X97255531Y-158174348D01*
X97253830Y-158174329D01*
X97252153Y-158174524D01*
X97250505Y-158174950D01*
X97248892Y-158175626D01*
X97247319Y-158176571D01*
X97245793Y-158177802D01*
X97244319Y-158179339D01*
X97242904Y-158181199D01*
X97241552Y-158183402D01*
X97240270Y-158185965D01*
X97239064Y-158188906D01*
X97237939Y-158192246D01*
X97236901Y-158196001D01*
X97226318Y-158267435D01*
X97206805Y-158361363D01*
X97197668Y-158408078D01*
X97189276Y-158455286D01*
X97181793Y-158505309D01*
X97175055Y-158555830D01*
X97162818Y-158656374D01*
X97161737Y-158663290D01*
X97160493Y-158670147D01*
X97157609Y-158683702D01*
X97154354Y-158697071D01*
X97150912Y-158710284D01*
X97147470Y-158723373D01*
X97144214Y-158736369D01*
X97141331Y-158749304D01*
X97140087Y-158755758D01*
X97139005Y-158762208D01*
X97132846Y-158789948D01*
X97129937Y-158803740D01*
X97127430Y-158817439D01*
X97126396Y-158824243D01*
X97125544Y-158831013D01*
X97124901Y-158837745D01*
X97124495Y-158844433D01*
X97124352Y-158851075D01*
X97124500Y-158857667D01*
X97124966Y-158864204D01*
X97125777Y-158870683D01*
X97126980Y-158877570D01*
X97128578Y-158884343D01*
X97130532Y-158891016D01*
X97132805Y-158897600D01*
X97135356Y-158904105D01*
X97138148Y-158910545D01*
X97141142Y-158916931D01*
X97144298Y-158923274D01*
X97150943Y-158935878D01*
X97157774Y-158948451D01*
X97164482Y-158961087D01*
X97167692Y-158967457D01*
X97170755Y-158973878D01*
X97271297Y-159193475D01*
X97307471Y-159270456D01*
X97344388Y-159346937D01*
X97419465Y-159500398D01*
X97420860Y-159503374D01*
X97422073Y-159506345D01*
X97423105Y-159509309D01*
X97423960Y-159512262D01*
X97424641Y-159515198D01*
X97425150Y-159518116D01*
X97425491Y-159521010D01*
X97425666Y-159523877D01*
X97425678Y-159526713D01*
X97425530Y-159529514D01*
X97425225Y-159532277D01*
X97424767Y-159534997D01*
X97424157Y-159537670D01*
X97423398Y-159540293D01*
X97422495Y-159542862D01*
X97421449Y-159545372D01*
X97420263Y-159547821D01*
X97418941Y-159550204D01*
X97417486Y-159552517D01*
X97415899Y-159554757D01*
X97414184Y-159556919D01*
X97412345Y-159558999D01*
X97410383Y-159560995D01*
X97408303Y-159562901D01*
X97406106Y-159564715D01*
X97403795Y-159566431D01*
X97401374Y-159568047D01*
X97398846Y-159569558D01*
X97396213Y-159570961D01*
X97393478Y-159572251D01*
X97390644Y-159573425D01*
X97387715Y-159574480D01*
X97322230Y-159598745D01*
X97256745Y-159623757D01*
X97125777Y-159675020D01*
X97019943Y-159718345D01*
X96967275Y-159739391D01*
X96914110Y-159759691D01*
X96848212Y-159785446D01*
X96781818Y-159810954D01*
X96715425Y-159835965D01*
X96649527Y-159860231D01*
X96622572Y-159871022D01*
X96608599Y-159876371D01*
X96601597Y-159878830D01*
X96594626Y-159881069D01*
X96587716Y-159883028D01*
X96580900Y-159884650D01*
X96574208Y-159885877D01*
X96567671Y-159886650D01*
X96561320Y-159886911D01*
X96555186Y-159886602D01*
X96552210Y-159886216D01*
X96549300Y-159885665D01*
X96546460Y-159884943D01*
X96543693Y-159884042D01*
X96532840Y-159879863D01*
X96522103Y-159875289D01*
X96511474Y-159870358D01*
X96500946Y-159865109D01*
X96490512Y-159859582D01*
X96480162Y-159853813D01*
X96459688Y-159841711D01*
X96379652Y-159791437D01*
X96252982Y-159716032D01*
X96190268Y-159678329D01*
X96128297Y-159640626D01*
X95956317Y-159540079D01*
X95678505Y-159376039D01*
X95572671Y-159309892D01*
X95524591Y-159282112D01*
X95475767Y-159254330D01*
X95376879Y-159198762D01*
X95318919Y-159163087D01*
X95260463Y-159127658D01*
X95202006Y-159092725D01*
X95144046Y-159058534D01*
X94953546Y-158947412D01*
X94726004Y-158809831D01*
X94668002Y-158774568D01*
X94609257Y-158740048D01*
X94550015Y-158706024D01*
X94490525Y-158672250D01*
X94486595Y-158669677D01*
X94482778Y-158666917D01*
X94479124Y-158663971D01*
X94475683Y-158660839D01*
X94474058Y-158659204D01*
X94472506Y-158657521D01*
X94471031Y-158655793D01*
X94469642Y-158654017D01*
X94468344Y-158652196D01*
X94467143Y-158650327D01*
X94466046Y-158648413D01*
X94465058Y-158646451D01*
X94464187Y-158644444D01*
X94463439Y-158642390D01*
X94462819Y-158640289D01*
X94462335Y-158638142D01*
X94461992Y-158635948D01*
X94461797Y-158633708D01*
X94461756Y-158631421D01*
X94461875Y-158629088D01*
X94462161Y-158626709D01*
X94462620Y-158624283D01*
X94463258Y-158621810D01*
X94464082Y-158619291D01*
X94465097Y-158616726D01*
X94466311Y-158614114D01*
X94467729Y-158611456D01*
X94469358Y-158608751D01*
X94472012Y-158603464D01*
X94473772Y-158600797D01*
X94475577Y-158598254D01*
X94477428Y-158595833D01*
X94479324Y-158593536D01*
X94481265Y-158591360D01*
X94483250Y-158589306D01*
X94485278Y-158587373D01*
X94487350Y-158585561D01*
X94489464Y-158583869D01*
X94491620Y-158582297D01*
X94493818Y-158580843D01*
X94496057Y-158579509D01*
X94498337Y-158578293D01*
X94500657Y-158577194D01*
X94503017Y-158576213D01*
X94505416Y-158575348D01*
X94507854Y-158574600D01*
X94510330Y-158573968D01*
X94512844Y-158573451D01*
X94515395Y-158573049D01*
X94517983Y-158572761D01*
X94520607Y-158572587D01*
X94523267Y-158572526D01*
X94525963Y-158572579D01*
X94528693Y-158572743D01*
X94531458Y-158573020D01*
X94534256Y-158573408D01*
X94537089Y-158573908D01*
X94539954Y-158574517D01*
X94542851Y-158575237D01*
X94545781Y-158576067D01*
X94548742Y-158577005D01*
X94550726Y-158577530D01*
X94552710Y-158578106D01*
X94556679Y-158579362D01*
X94564617Y-158581965D01*
X94568585Y-158583127D01*
X94570570Y-158583632D01*
X94572554Y-158584072D01*
X94574539Y-158584434D01*
X94576523Y-158584707D01*
X94578507Y-158584879D01*
X94580492Y-158584939D01*
X94755116Y-158614038D01*
X95019700Y-158664308D01*
X95039998Y-158668279D01*
X95061040Y-158672249D01*
X95104366Y-158680185D01*
X95146079Y-158690066D01*
X95188040Y-158699699D01*
X95230498Y-158708837D01*
X95251990Y-158713144D01*
X95273699Y-158717233D01*
X95445679Y-158746332D01*
X95468381Y-158750527D01*
X95490865Y-158755096D01*
X95535307Y-158764853D01*
X95579252Y-158774612D01*
X95601116Y-158779182D01*
X95622949Y-158783380D01*
X95664579Y-158790903D01*
X95705962Y-158797929D01*
X95746848Y-158804956D01*
X95767028Y-158808624D01*
X95786991Y-158812479D01*
X95961615Y-158849519D01*
X96138886Y-158878625D01*
X96206727Y-158890984D01*
X96274815Y-158904089D01*
X96342408Y-158917691D01*
X96408761Y-158931543D01*
X96488136Y-158947420D01*
X96660116Y-158984460D01*
X96842678Y-159021509D01*
X96866490Y-159021509D01*
X96865493Y-159018538D01*
X96864464Y-159015598D01*
X96863374Y-159012720D01*
X96862796Y-159011313D01*
X96862190Y-159009934D01*
X96861554Y-159008586D01*
X96860883Y-159007273D01*
X96860173Y-159005998D01*
X96859420Y-159004766D01*
X96858621Y-159003581D01*
X96857772Y-159002447D01*
X96856868Y-159001367D01*
X96855906Y-159000345D01*
X96744782Y-158862764D01*
X96477553Y-158555849D01*
X96460567Y-158536121D01*
X96443364Y-158516611D01*
X96425975Y-158497288D01*
X96408431Y-158478121D01*
X96373002Y-158440131D01*
X96337325Y-158402391D01*
X96336327Y-158400300D01*
X96335299Y-158398053D01*
X96334209Y-158395744D01*
X96333630Y-158394595D01*
X96333025Y-158393466D01*
X96332389Y-158392367D01*
X96331718Y-158391310D01*
X96331008Y-158390308D01*
X96330255Y-158389372D01*
X96329456Y-158388512D01*
X96328606Y-158387742D01*
X96328162Y-158387394D01*
X96327703Y-158387072D01*
X96327229Y-158386778D01*
X96326741Y-158386514D01*
X96313072Y-158370533D01*
X96299745Y-158354396D01*
X96273493Y-158322028D01*
X96260259Y-158305982D01*
X96246746Y-158290153D01*
X96232798Y-158274633D01*
X96225613Y-158267018D01*
X96218261Y-158259515D01*
X96213180Y-158255142D01*
X96207869Y-158250942D01*
X96202350Y-158246906D01*
X96196640Y-158243021D01*
X96190760Y-158239275D01*
X96184729Y-158235657D01*
X96178566Y-158232155D01*
X96172290Y-158228758D01*
X96159480Y-158222232D01*
X96146452Y-158215985D01*
X96120367Y-158203958D01*
X95802866Y-158039911D01*
X95769023Y-158021490D01*
X95755619Y-158013734D01*
X95744451Y-158006633D01*
X95739680Y-158003255D01*
X95735438Y-157999951D01*
X95731714Y-157996693D01*
X95728499Y-157993451D01*
X95725781Y-157990195D01*
X95723551Y-157986897D01*
X95721799Y-157983525D01*
X95720515Y-157980052D01*
X95719687Y-157976446D01*
X95719307Y-157972679D01*
X95719364Y-157968722D01*
X95719848Y-157964544D01*
X95720748Y-157960116D01*
X95722055Y-157955408D01*
X95723758Y-157950392D01*
X95725847Y-157945037D01*
X95731144Y-157933193D01*
X95737862Y-157919639D01*
X95755241Y-157886461D01*
X95774733Y-157848751D01*
X95793605Y-157811010D01*
X95829986Y-157735314D01*
X95900761Y-157582193D01*
X95900994Y-157581681D01*
X95901197Y-157581141D01*
X95901372Y-157580573D01*
X95901521Y-157579980D01*
X95901744Y-157578727D01*
X95901877Y-157577396D01*
X95901933Y-157576003D01*
X95901924Y-157574564D01*
X95901860Y-157573094D01*
X95901753Y-157571608D01*
X95901459Y-157568653D01*
X95901133Y-157565822D01*
X95900870Y-157563239D01*
X95900790Y-157562080D01*
X95900761Y-157561029D01*
X95882241Y-157561029D01*
X95805511Y-157592775D01*
X95662967Y-157651976D01*
X95592315Y-157680956D01*
X95522407Y-157709192D01*
X95521385Y-157709657D01*
X95520304Y-157710061D01*
X95519169Y-157710407D01*
X95517984Y-157710694D01*
X95515477Y-157711103D01*
X95512816Y-157711298D01*
X95510031Y-157711292D01*
X95507152Y-157711097D01*
X95504212Y-157710723D01*
X95501241Y-157710183D01*
X95498269Y-157709487D01*
X95495329Y-157708649D01*
X95492451Y-157707678D01*
X95489665Y-157706588D01*
X95487004Y-157705389D01*
X95484498Y-157704093D01*
X95482178Y-157702712D01*
X95480074Y-157701257D01*
X95478034Y-157699152D01*
X95475904Y-157696827D01*
X95473720Y-157694307D01*
X95471516Y-157691622D01*
X95469329Y-157688796D01*
X95467191Y-157685859D01*
X95465139Y-157682836D01*
X95463207Y-157679756D01*
X95461430Y-157676644D01*
X95459843Y-157673529D01*
X95458480Y-157670437D01*
X95457378Y-157667395D01*
X95456934Y-157665901D01*
X95456569Y-157664431D01*
X95456287Y-157662986D01*
X95456091Y-157661571D01*
X95455986Y-157660189D01*
X95455976Y-157658843D01*
X95456067Y-157657537D01*
X95456261Y-157656274D01*
X95457374Y-157649329D01*
X95458711Y-157642387D01*
X95460249Y-157635453D01*
X95461967Y-157628532D01*
X95465842Y-157614739D01*
X95470152Y-157601040D01*
X95479330Y-157574045D01*
X95483826Y-157560811D01*
X95488011Y-157547792D01*
X95511493Y-157480652D01*
X95522613Y-157447704D01*
X95532990Y-157415498D01*
X95591198Y-157211778D01*
X95605585Y-157162168D01*
X95620964Y-157112558D01*
X95637336Y-157062948D01*
X95654699Y-157013338D01*
X95657949Y-157003684D01*
X95660853Y-156993654D01*
X95666233Y-156972948D01*
X95669010Y-156962512D01*
X95672047Y-156952180D01*
X95675494Y-156942073D01*
X95679504Y-156932311D01*
X95684226Y-156923013D01*
X95686902Y-156918577D01*
X95689813Y-156914301D01*
X95692978Y-156910202D01*
X95696416Y-156906294D01*
X95700145Y-156902593D01*
X95704185Y-156899113D01*
X95708554Y-156895869D01*
X95713271Y-156892877D01*
X95718356Y-156890151D01*
X95723827Y-156887707D01*
X95729703Y-156885559D01*
X95736002Y-156883722D01*
X95742745Y-156882212D01*
X95749949Y-156881044D01*
X95755897Y-156880920D01*
X95761814Y-156880548D01*
X95764751Y-156880269D01*
X95767669Y-156879927D01*
X95770564Y-156879524D01*
X95773431Y-156879059D01*
X95776267Y-156878532D01*
X95779069Y-156877943D01*
X95781831Y-156877292D01*
X95784551Y-156876580D01*
X95787225Y-156875805D01*
X95789848Y-156874968D01*
X95792417Y-156874070D01*
X95794928Y-156873109D01*
X95926227Y-156833752D01*
X95992497Y-156814694D01*
X96059511Y-156796381D01*
X96218260Y-156754045D01*
X96321448Y-156721303D01*
X96373042Y-156705303D01*
X96398839Y-156697722D01*
X96424635Y-156690546D01*
X96451538Y-156682841D01*
X96478627Y-156675539D01*
X96533114Y-156661771D01*
X96587602Y-156648501D01*
X96641593Y-156634988D01*
X96707078Y-156616674D01*
X96772563Y-156597613D01*
X96903532Y-156558252D01*
X96923380Y-156552528D01*
X96943260Y-156547175D01*
X96983238Y-156537087D01*
X97023711Y-156526998D01*
X97044211Y-156521643D01*
X97064928Y-156515916D01*
X97090724Y-156508528D01*
X97116521Y-156500457D01*
X97168115Y-156483508D01*
X97193912Y-156475250D01*
X97219709Y-156467550D01*
X97245505Y-156460718D01*
X97258404Y-156457724D01*
X97271302Y-156455064D01*
X97285099Y-156451961D01*
X97298706Y-156448594D01*
X97312119Y-156444948D01*
X97325335Y-156441007D01*
X97338349Y-156436757D01*
X97351157Y-156432181D01*
X97363757Y-156427264D01*
X97376143Y-156421990D01*
X97388312Y-156416344D01*
X97400260Y-156410311D01*
X97411984Y-156403875D01*
X97423479Y-156397020D01*
X97434741Y-156389731D01*
X97445767Y-156381993D01*
X97456553Y-156373790D01*
X97467094Y-156365106D01*
X97649657Y-156206354D01*
X97834865Y-156047601D01*
X97880547Y-156007956D01*
X97926477Y-155968559D01*
X97972903Y-155929657D01*
X97996380Y-155910469D01*
X98020073Y-155891496D01*
X98205282Y-155732744D01*
X98387844Y-155573999D01*
X98681531Y-155320001D01*
X98864094Y-155163896D01*
X98915274Y-155119866D01*
X98965958Y-155075589D01*
X99016642Y-155031808D01*
X99042140Y-155010336D01*
X99067823Y-154989267D01*
X99068868Y-154988298D01*
X99070016Y-154987376D01*
X99071260Y-154986502D01*
X99072593Y-154985676D01*
X99075503Y-154984170D01*
X99078696Y-154982861D01*
X99082122Y-154981753D01*
X99085729Y-154980852D01*
X99089469Y-154980159D01*
X99093290Y-154979680D01*
X99097141Y-154979417D01*
X99100974Y-154979376D01*
X99104737Y-154979559D01*
D11*
G36*
X91791762Y-63006498D02*
G01*
X91807885Y-63007389D01*
X91828708Y-63009392D01*
X91848764Y-63012328D01*
X91868050Y-63016197D01*
X91886568Y-63020998D01*
X91904317Y-63026732D01*
X91921297Y-63033398D01*
X91937509Y-63040997D01*
X91949387Y-63047493D01*
X91964540Y-63056607D01*
X91978912Y-63066238D01*
X91992502Y-63076385D01*
X92005312Y-63087049D01*
X92017340Y-63098229D01*
X92028586Y-63109927D01*
X92041546Y-63125275D01*
X92053133Y-63138947D01*
X92063699Y-63153552D01*
X92073245Y-63169090D01*
X92081770Y-63185560D01*
X92089274Y-63202962D01*
X92095757Y-63221297D01*
X92101220Y-63240565D01*
X92105662Y-63260765D01*
X92107859Y-63272303D01*
X92110890Y-63291861D01*
X92113601Y-63314119D01*
X92115231Y-63330459D01*
X92116720Y-63347998D01*
X92118067Y-63366738D01*
X92119272Y-63386678D01*
X92120335Y-63407819D01*
X92121256Y-63430159D01*
X92122036Y-63453700D01*
X92122674Y-63478442D01*
X92123170Y-63504383D01*
X92123525Y-63531525D01*
X92123737Y-63559867D01*
X92123808Y-63589410D01*
X92123790Y-63604329D01*
X92123649Y-63633252D01*
X92123365Y-63660956D01*
X92122940Y-63687441D01*
X92122373Y-63712707D01*
X92121664Y-63736754D01*
X92120813Y-63759581D01*
X92119821Y-63781189D01*
X92118687Y-63801578D01*
X92117411Y-63820748D01*
X92115993Y-63838699D01*
X92114434Y-63855430D01*
X92111829Y-63878242D01*
X92108905Y-63898310D01*
X92105662Y-63915635D01*
X92101220Y-63936402D01*
X92095757Y-63956161D01*
X92089274Y-63974912D01*
X92081770Y-63992655D01*
X92073245Y-64009389D01*
X92063699Y-64025116D01*
X92053133Y-64039834D01*
X92041546Y-64053545D01*
X92033917Y-64062829D01*
X92020225Y-64077563D01*
X92008392Y-64088684D01*
X91995778Y-64099212D01*
X91982383Y-64109148D01*
X91968206Y-64118492D01*
X91953248Y-64127244D01*
X91937509Y-64135403D01*
X91933528Y-64137686D01*
X91917124Y-64146091D01*
X91899952Y-64153337D01*
X91882010Y-64159423D01*
X91863300Y-64164350D01*
X91843822Y-64168118D01*
X91823575Y-64170727D01*
X91802559Y-64172176D01*
X91786292Y-64172502D01*
X91780745Y-64172466D01*
X91764378Y-64171922D01*
X91743195Y-64170183D01*
X91722743Y-64167285D01*
X91703022Y-64163227D01*
X91684032Y-64158010D01*
X91665772Y-64151634D01*
X91648244Y-64144098D01*
X91631446Y-64135403D01*
X91627614Y-64133419D01*
X91612757Y-64125112D01*
X91598656Y-64116212D01*
X91585311Y-64106720D01*
X91572722Y-64096636D01*
X91558049Y-64083197D01*
X91544558Y-64068834D01*
X91532248Y-64053545D01*
X91529253Y-64050236D01*
X91517864Y-64036356D01*
X91507421Y-64021442D01*
X91497923Y-64005495D01*
X91489370Y-63988514D01*
X91481761Y-63970501D01*
X91475098Y-63951454D01*
X91469381Y-63931373D01*
X91465712Y-63915635D01*
X91463661Y-63904390D01*
X91460833Y-63885236D01*
X91458303Y-63863339D01*
X91456781Y-63847217D01*
X91455392Y-63829876D01*
X91454135Y-63811316D01*
X91453010Y-63791536D01*
X91452018Y-63770538D01*
X91451158Y-63748320D01*
X91450430Y-63724883D01*
X91449835Y-63700226D01*
X91449371Y-63674351D01*
X91449041Y-63647256D01*
X91448842Y-63618943D01*
X91448776Y-63589410D01*
X91448793Y-63574488D01*
X91448925Y-63545546D01*
X91449190Y-63517804D01*
X91449587Y-63491262D01*
X91450116Y-63465921D01*
X91450777Y-63441780D01*
X91451571Y-63418839D01*
X91452497Y-63397098D01*
X91453556Y-63376558D01*
X91454747Y-63357218D01*
X91456070Y-63339078D01*
X91457525Y-63322139D01*
X91459957Y-63298980D01*
X91462686Y-63278522D01*
X91465712Y-63260765D01*
X91470721Y-63240477D01*
X91476676Y-63221146D01*
X91483575Y-63202773D01*
X91491419Y-63185358D01*
X91500209Y-63168901D01*
X91509943Y-63153401D01*
X91520623Y-63138859D01*
X91532248Y-63125275D01*
X91537030Y-63119039D01*
X91549813Y-63104013D01*
X91563776Y-63089796D01*
X91575798Y-63079002D01*
X91588576Y-63068726D01*
X91602110Y-63058966D01*
X91616400Y-63049723D01*
X91631446Y-63040997D01*
X91639754Y-63037081D01*
X91656917Y-63029948D01*
X91674811Y-63023748D01*
X91693436Y-63018481D01*
X91712791Y-63014146D01*
X91732878Y-63010744D01*
X91753695Y-63008274D01*
X91769788Y-63007033D01*
X91786292Y-63006318D01*
X91791762Y-63006498D01*
G37*
G36*
X92910080Y-64964016D02*
G01*
X87937778Y-64964016D01*
X87937778Y-62750660D01*
X88473635Y-62750660D01*
X88473635Y-62980510D01*
X88923656Y-62980510D01*
X88923656Y-64402352D01*
X89174475Y-64402352D01*
X89174475Y-62980510D01*
X89624496Y-62980510D01*
X89624496Y-62750660D01*
X89769261Y-62750660D01*
X89769261Y-63850712D01*
X89770438Y-63883103D01*
X89772859Y-63914646D01*
X89776524Y-63945341D01*
X89781434Y-63975189D01*
X89787588Y-64004190D01*
X89794987Y-64032343D01*
X89803630Y-64059648D01*
X89813517Y-64086107D01*
X89824649Y-64111717D01*
X89837025Y-64136481D01*
X89850646Y-64160397D01*
X89865510Y-64183465D01*
X89881620Y-64205686D01*
X89898973Y-64227060D01*
X89917572Y-64247586D01*
X89937414Y-64267264D01*
X89958369Y-64286464D01*
X89980000Y-64304445D01*
X90002310Y-64321206D01*
X90025296Y-64336749D01*
X90048960Y-64351072D01*
X90073301Y-64364176D01*
X90098320Y-64376060D01*
X90124016Y-64386726D01*
X90150389Y-64396172D01*
X90177439Y-64404399D01*
X90205167Y-64411407D01*
X90233572Y-64417196D01*
X90262655Y-64421766D01*
X90292415Y-64425116D01*
X90322852Y-64427247D01*
X90353966Y-64428159D01*
X90384548Y-64427246D01*
X90414497Y-64425110D01*
X90443813Y-64421751D01*
X90472495Y-64417171D01*
X90500544Y-64411368D01*
X90527960Y-64404343D01*
X90554743Y-64396095D01*
X90580892Y-64386625D01*
X90606408Y-64375933D01*
X90631291Y-64364018D01*
X90655541Y-64350881D01*
X90679158Y-64336522D01*
X90702141Y-64320940D01*
X90724491Y-64304136D01*
X90746208Y-64286110D01*
X90767292Y-64266861D01*
X90787762Y-64247082D01*
X90806930Y-64226455D01*
X90824797Y-64204980D01*
X90841363Y-64182659D01*
X90856628Y-64159489D01*
X90870592Y-64135473D01*
X90883255Y-64110609D01*
X90894617Y-64084897D01*
X90904677Y-64058338D01*
X90913437Y-64030931D01*
X90920895Y-64002677D01*
X90927053Y-63973576D01*
X90931909Y-63943627D01*
X90935464Y-63912831D01*
X90937718Y-63881187D01*
X90938357Y-63865048D01*
X90938671Y-63848696D01*
X90938671Y-63589410D01*
X91199167Y-63589410D01*
X91199182Y-63606923D01*
X91199224Y-63624078D01*
X91199295Y-63640874D01*
X91199394Y-63657312D01*
X91199678Y-63689114D01*
X91200075Y-63719481D01*
X91200585Y-63748416D01*
X91201209Y-63775917D01*
X91201946Y-63801984D01*
X91202797Y-63826619D01*
X91203761Y-63849819D01*
X91204838Y-63871587D01*
X91206029Y-63891921D01*
X91207333Y-63910821D01*
X91208751Y-63928288D01*
X91211090Y-63951801D01*
X91213684Y-63972089D01*
X91214717Y-63978276D01*
X91218114Y-63996372D01*
X91221957Y-64013774D01*
X91226246Y-64030481D01*
X91230982Y-64046493D01*
X91236165Y-64061811D01*
X91243770Y-64081154D01*
X91252169Y-64099263D01*
X91261362Y-64116136D01*
X91271348Y-64131774D01*
X91275023Y-64138880D01*
X91286892Y-64159882D01*
X91295510Y-64173619D01*
X91304692Y-64187145D01*
X91314437Y-64200460D01*
X91324747Y-64213564D01*
X91335620Y-64226456D01*
X91347058Y-64239138D01*
X91359059Y-64251609D01*
X91371624Y-64263868D01*
X91384753Y-64275917D01*
X91398446Y-64287754D01*
X91412703Y-64299381D01*
X91427524Y-64310796D01*
X91442909Y-64322000D01*
X91458857Y-64332993D01*
X91475494Y-64343998D01*
X91492642Y-64354328D01*
X91510299Y-64363983D01*
X91528467Y-64372965D01*
X91547146Y-64381273D01*
X91566335Y-64388906D01*
X91586034Y-64395865D01*
X91606243Y-64402150D01*
X91626963Y-64407761D01*
X91648193Y-64412697D01*
X91669934Y-64416960D01*
X91692185Y-64420548D01*
X91714946Y-64423462D01*
X91738218Y-64425702D01*
X91762000Y-64427268D01*
X91786292Y-64428159D01*
X91810287Y-64427268D01*
X91833780Y-64425702D01*
X91856773Y-64423462D01*
X91879265Y-64420548D01*
X91901256Y-64416960D01*
X91922746Y-64412697D01*
X91943736Y-64407761D01*
X91964224Y-64402150D01*
X91984211Y-64395865D01*
X92003698Y-64388906D01*
X92022683Y-64381273D01*
X92041168Y-64372965D01*
X92059152Y-64363983D01*
X92076635Y-64354328D01*
X92093617Y-64343998D01*
X92110098Y-64332993D01*
X92126300Y-64322000D01*
X92141942Y-64310796D01*
X92157022Y-64299381D01*
X92171542Y-64287754D01*
X92185501Y-64275917D01*
X92198900Y-64263868D01*
X92211738Y-64251609D01*
X92224014Y-64239138D01*
X92235731Y-64226456D01*
X92246886Y-64213564D01*
X92257481Y-64200460D01*
X92267515Y-64187145D01*
X92276988Y-64173619D01*
X92285900Y-64159882D01*
X92294252Y-64145933D01*
X92302042Y-64131774D01*
X92306522Y-64122455D01*
X92314089Y-64106421D01*
X92321308Y-64090733D01*
X92328180Y-64075393D01*
X92334705Y-64060400D01*
X92336400Y-64055944D01*
X92342035Y-64039231D01*
X92346495Y-64023523D01*
X92350616Y-64006539D01*
X92354396Y-63988280D01*
X92357287Y-63972089D01*
X92358329Y-63965685D01*
X92361256Y-63944322D01*
X92363043Y-63928288D01*
X92364697Y-63910821D01*
X92366218Y-63891921D01*
X92367607Y-63871587D01*
X92368864Y-63849819D01*
X92369989Y-63826619D01*
X92370982Y-63801984D01*
X92371842Y-63775917D01*
X92372569Y-63748416D01*
X92373165Y-63719481D01*
X92373628Y-63689114D01*
X92373959Y-63657312D01*
X92374074Y-63640874D01*
X92374157Y-63624078D01*
X92374207Y-63606923D01*
X92374223Y-63589410D01*
X92374207Y-63571800D01*
X92374157Y-63554559D01*
X92374074Y-63537685D01*
X92373959Y-63521179D01*
X92373628Y-63489271D01*
X92373165Y-63458834D01*
X92372569Y-63429868D01*
X92371842Y-63402373D01*
X92370982Y-63376350D01*
X92369989Y-63351798D01*
X92368864Y-63328717D01*
X92367607Y-63307107D01*
X92366218Y-63286968D01*
X92364697Y-63268301D01*
X92363043Y-63251105D01*
X92360314Y-63228069D01*
X92357287Y-63208343D01*
X92353718Y-63190527D01*
X92349816Y-63173370D01*
X92345581Y-63156872D01*
X92341012Y-63141033D01*
X92334403Y-63120940D01*
X92327201Y-63102019D01*
X92319407Y-63084270D01*
X92311021Y-63067693D01*
X92302042Y-63052287D01*
X92294252Y-63037868D01*
X92285900Y-63023644D01*
X92276988Y-63009616D01*
X92267515Y-62995783D01*
X92257481Y-62982145D01*
X92246886Y-62968702D01*
X92235731Y-62955455D01*
X92224014Y-62942403D01*
X92211738Y-62929547D01*
X92198900Y-62916885D01*
X92185501Y-62904419D01*
X92171542Y-62892149D01*
X92157022Y-62880073D01*
X92141942Y-62868194D01*
X92126300Y-62856509D01*
X92110098Y-62845020D01*
X92093617Y-62833877D01*
X92076635Y-62823433D01*
X92059152Y-62813689D01*
X92041168Y-62804645D01*
X92022683Y-62796299D01*
X92003698Y-62788653D01*
X91984211Y-62781707D01*
X91964224Y-62775460D01*
X91943736Y-62769912D01*
X91922746Y-62765064D01*
X91901256Y-62760915D01*
X91879265Y-62757465D01*
X91856773Y-62754715D01*
X91833780Y-62752664D01*
X91810287Y-62751312D01*
X91786292Y-62750660D01*
X91761952Y-62751306D01*
X91738130Y-62752639D01*
X91714823Y-62754658D01*
X91692034Y-62757364D01*
X91669761Y-62760757D01*
X91648004Y-62764837D01*
X91626765Y-62769603D01*
X91606042Y-62775057D01*
X91585835Y-62781197D01*
X91566146Y-62788023D01*
X91546973Y-62795537D01*
X91528316Y-62803737D01*
X91510176Y-62812624D01*
X91492553Y-62822198D01*
X91475447Y-62832459D01*
X91458857Y-62843407D01*
X91450812Y-62849026D01*
X91435146Y-62860408D01*
X91420043Y-62871982D01*
X91405504Y-62883749D01*
X91391529Y-62895708D01*
X91378118Y-62907858D01*
X91365271Y-62920201D01*
X91352988Y-62932737D01*
X91341268Y-62945464D01*
X91330113Y-62958384D01*
X91319522Y-62971496D01*
X91309494Y-62984799D01*
X91300030Y-62998296D01*
X91291131Y-63011984D01*
X91282795Y-63025864D01*
X91271348Y-63047045D01*
X91268777Y-63050837D01*
X91258989Y-63066737D01*
X91249995Y-63083809D01*
X91241794Y-63102052D01*
X91234388Y-63121468D01*
X91229354Y-63136799D01*
X91224767Y-63152789D01*
X91220626Y-63169438D01*
X91216932Y-63186746D01*
X91213684Y-63204714D01*
X91211926Y-63217605D01*
X91209502Y-63239730D01*
X91208028Y-63256339D01*
X91206667Y-63274434D01*
X91205419Y-63294017D01*
X91204285Y-63315087D01*
X91203264Y-63337643D01*
X91202357Y-63361687D01*
X91201563Y-63387217D01*
X91200883Y-63414234D01*
X91200316Y-63442739D01*
X91199862Y-63472730D01*
X91199522Y-63504208D01*
X91199394Y-63520505D01*
X91199295Y-63537174D01*
X91199224Y-63554214D01*
X91199182Y-63571626D01*
X91199167Y-63589410D01*
X90938671Y-63589410D01*
X90938671Y-62750660D01*
X90689063Y-62750660D01*
X90689063Y-63820872D01*
X90688399Y-63841729D01*
X90687015Y-63861959D01*
X90684909Y-63881562D01*
X90682081Y-63900538D01*
X90678533Y-63918888D01*
X90674262Y-63936610D01*
X90669271Y-63953705D01*
X90663557Y-63970174D01*
X90657123Y-63986015D01*
X90649967Y-64001230D01*
X90642089Y-64015818D01*
X90633490Y-64029778D01*
X90624170Y-64043112D01*
X90614128Y-64055819D01*
X90603365Y-64067899D01*
X90591881Y-64079352D01*
X90586057Y-64085083D01*
X90574098Y-64095999D01*
X90555381Y-64111009D01*
X90535727Y-64124381D01*
X90515138Y-64136115D01*
X90493613Y-64146213D01*
X90471153Y-64154672D01*
X90455659Y-64159403D01*
X90439750Y-64163405D01*
X90423425Y-64166680D01*
X90406684Y-64169227D01*
X90389527Y-64171046D01*
X90371955Y-64172138D01*
X90353966Y-64172502D01*
X90335968Y-64172138D01*
X90318367Y-64171046D01*
X90301163Y-64169227D01*
X90284356Y-64166680D01*
X90267946Y-64163405D01*
X90251932Y-64159403D01*
X90236316Y-64154672D01*
X90213636Y-64146213D01*
X90191849Y-64136115D01*
X90170955Y-64124381D01*
X90150954Y-64111009D01*
X90138117Y-64101184D01*
X90125676Y-64090632D01*
X90113632Y-64079352D01*
X90097108Y-64061938D01*
X90082165Y-64043112D01*
X90073081Y-64029778D01*
X90064699Y-64015818D01*
X90057020Y-64001230D01*
X90050044Y-63986015D01*
X90043770Y-63970174D01*
X90038199Y-63953705D01*
X90033330Y-63936610D01*
X90029163Y-63918888D01*
X90025699Y-63900538D01*
X90022938Y-63881562D01*
X90020879Y-63861959D01*
X90019523Y-63841729D01*
X90018870Y-63820872D01*
X90018870Y-62750660D01*
X89769261Y-62750660D01*
X89624496Y-62750660D01*
X88473635Y-62750660D01*
X87937778Y-62750660D01*
X87937778Y-62214803D01*
X92910080Y-62214803D01*
X92910080Y-64964016D01*
G37*
G36*
X103760647Y-73378471D02*
G01*
X102798070Y-73378471D01*
X102798070Y-73063568D01*
X103760647Y-73063568D01*
X103760647Y-73378471D01*
G37*
G36*
X91837873Y-73170769D02*
G01*
X92522397Y-73170769D01*
X92522397Y-73414205D01*
X91837873Y-73414205D01*
X91837873Y-74096496D01*
X91588295Y-74096496D01*
X91588295Y-73414205D01*
X90903771Y-73414205D01*
X90903771Y-73170769D01*
X91588295Y-73170769D01*
X91588295Y-72488479D01*
X91837873Y-72488479D01*
X91837873Y-73170769D01*
G37*
G36*
X106066118Y-64418691D02*
G01*
X105816509Y-64418691D01*
X105816509Y-62766999D01*
X106066118Y-62766999D01*
X106066118Y-64418691D01*
G37*
G36*
X105470928Y-64418691D02*
G01*
X105221320Y-64418691D01*
X105221320Y-63246861D01*
X105216884Y-63246861D01*
X104473300Y-64418691D01*
X104237402Y-64418691D01*
X104237402Y-62766999D01*
X104486607Y-62766999D01*
X104486607Y-63940845D01*
X104491043Y-63940845D01*
X105236240Y-62766999D01*
X105470928Y-62766999D01*
X105470928Y-64418691D01*
G37*
M02*
