%TF.GenerationSoftware,KiCad,Pcbnew,7.0.2-0*%
%TF.CreationDate,2023-06-28T16:36:39-04:00*%
%TF.ProjectId,Escanaba Euclidean Panel,45736361-6e61-4626-9120-4575636c6964,rev?*%
%TF.SameCoordinates,Original*%
%TF.FileFunction,Profile,NP*%
%FSLAX46Y46*%
G04 Gerber Fmt 4.6, Leading zero omitted, Abs format (unit mm)*
G04 Created by KiCad (PCBNEW 7.0.2-0) date 2023-06-28 16:36:39*
%MOMM*%
%LPD*%
G01*
G04 APERTURE LIST*
%TA.AperFunction,Profile*%
%ADD10C,0.200000*%
%TD*%
%ADD11C,0.200000*%
%TA.AperFunction,Profile*%
%ADD12C,0.400000*%
%TD*%
G04 APERTURE END LIST*
D10*
X89182727Y-36635379D02*
X89182727Y-35760079D01*
D11*
X89182727Y-158260079D02*
X89159003Y-158026587D01*
X89091010Y-157808760D01*
X88983515Y-157611365D01*
X88841286Y-157439169D01*
X88669091Y-157296940D01*
X88471695Y-157189445D01*
X88253868Y-157121452D01*
X88020377Y-157097729D01*
D12*
X112570323Y-33197849D02*
X112570323Y-161697849D01*
D10*
X101358049Y-112504859D02*
G75*
G03*
X101358049Y-112504859I-3750000J0D01*
G01*
D11*
X86620268Y-34597729D02*
X86386776Y-34621452D01*
X86168949Y-34689445D01*
X85971553Y-34796940D01*
X85799358Y-34939169D01*
X85657129Y-35111365D01*
X85549634Y-35308760D01*
X85481641Y-35526587D01*
X85457918Y-35760079D01*
D10*
X85457918Y-158260079D02*
X85457918Y-159135379D01*
D11*
X85457918Y-36635379D02*
X85481641Y-36868870D01*
X85549634Y-37086697D01*
X85657129Y-37284092D01*
X85799358Y-37456288D01*
X85971553Y-37598517D01*
X86168949Y-37706012D01*
X86386776Y-37774005D01*
X86620268Y-37797729D01*
D10*
X108096783Y-57471490D02*
G75*
G03*
X108096783Y-57471490I-3250000J0D01*
G01*
X88020377Y-157097729D02*
X86620268Y-157097729D01*
D12*
X112570323Y-161697849D02*
X82570323Y-161697849D01*
D10*
X93596783Y-57471490D02*
G75*
G03*
X93596783Y-57471490I-3250000J0D01*
G01*
D12*
X82570323Y-161697849D02*
X82570323Y-33197849D01*
D11*
X88020377Y-160297729D02*
X88253868Y-160274005D01*
X88471695Y-160206012D01*
X88669091Y-160098517D01*
X88841286Y-159956288D01*
X88983515Y-159784092D01*
X89091010Y-159586697D01*
X89159003Y-159368870D01*
X89182727Y-159135379D01*
X85457918Y-159135379D02*
X85481641Y-159368870D01*
X85549634Y-159586697D01*
X85657129Y-159784092D01*
X85799358Y-159956288D01*
X85971553Y-160098517D01*
X86168949Y-160206012D01*
X86386776Y-160274005D01*
X86620268Y-160297729D01*
X89182727Y-35760079D02*
X89159003Y-35526587D01*
X89091010Y-35308760D01*
X88983515Y-35111365D01*
X88841286Y-34939169D01*
X88669091Y-34796940D01*
X88471695Y-34689445D01*
X88253868Y-34621452D01*
X88020377Y-34597729D01*
X88020377Y-37797729D02*
X88253868Y-37774005D01*
X88471695Y-37706012D01*
X88669091Y-37598517D01*
X88841286Y-37456288D01*
X88983515Y-37284092D01*
X89091010Y-37086697D01*
X89159003Y-36868870D01*
X89182727Y-36635379D01*
D10*
X85457918Y-35760079D02*
X85457918Y-36635379D01*
X100846803Y-68471490D02*
G75*
G03*
X100846803Y-68471490I-3250000J0D01*
G01*
X101353633Y-138446776D02*
G75*
G03*
X101353633Y-138446776I-3750000J0D01*
G01*
X89182727Y-159135379D02*
X89182727Y-158260079D01*
X86620268Y-160297729D02*
X88020377Y-160297729D01*
D12*
X82570323Y-33197849D02*
X112570323Y-33197849D01*
D10*
X101274644Y-86438474D02*
G75*
G03*
X101274644Y-86438474I-3750000J0D01*
G01*
D11*
X86620268Y-157097729D02*
X86386776Y-157121452D01*
X86168949Y-157189445D01*
X85971553Y-157296940D01*
X85799358Y-157439169D01*
X85657129Y-157611365D01*
X85549634Y-157808760D01*
X85481641Y-158026587D01*
X85457918Y-158260079D01*
D10*
X88020377Y-34597729D02*
X86620268Y-34597729D01*
X86620268Y-37797729D02*
X88020377Y-37797729D01*
M02*
