<?xml version="1.0" encoding="UTF-8"?>
<svg id="Layer_2" data-name="Layer 2" xmlns="http://www.w3.org/2000/svg" viewBox="0 0 85.11 364.32">
  <defs>
    <style>
      .cls-1 {
        isolation: isolate;
      }

      .cls-1, .cls-2, .cls-3, .cls-4 {
        fill: none;
      }

      .cls-5, .cls-6, .cls-3, .cls-4 {
        stroke-miterlimit: 10;
      }

      .cls-5, .cls-7 {
        fill: #231f20;
      }

      .cls-5, .cls-3, .cls-4 {
        stroke-linecap: square;
        stroke-width: .07px;
      }

      .cls-5, .cls-4 {
        stroke: #231f20;
      }

      .cls-6 {
        stroke: #fff;
      }

      .cls-8 {
        fill: #fff;
      }

      .cls-2 {
        stroke: #000;
        stroke-linejoin: round;
        stroke-width: .56px;
      }

      .cls-3 {
        stroke: #ed1c24;
      }
    </style>
  </defs>
  <g id="Layer_1-2" data-name="Layer 1">
    <g id="Layer_1-3" data-name="Layer 1">
      <g id="Panel_Graphics" data-name="Panel Graphics">
        <g id="LOGO">
          <path class="cls-2" d="m53.19,349.17c-.07-.11-.17-.14-.29-.1-.04.01-.08.03-.11.03-.22.04-.44.07-.66.11-.33.06-.67.13-1,.19-.11.02-.21.04-.32.06-.21.04-.42.1-.64.14s-.43.07-.65.11c-.23.04-.45.1-.67.14-.21.04-.42.07-.62.11-.22.04-.44.1-.66.14s-.45.07-.67.11c-.34.06-.69.13-1.02.2-.1.02-.2.04-.3.06-.22.05-.43.09-.65.14-.23.05-.46.09-.69.14h-.09s.02-.06.04-.08c.14-.17.28-.35.42-.52.34-.39.67-.77,1.01-1.16.17-.2.35-.39.53-.58,0-.02.02-.04.04-.06.14-.16.26-.33.41-.48.1-.09.24-.15.36-.21.4-.21.8-.41,1.2-.62.39-.21.38-.2.18-.58-.2-.38-.37-.76-.55-1.15,0-.02,0-.06,0-.08h.07c.1.04.2.08.29.12.36.15.71.3,1.07.44.04.02.12,0,.16-.03.04-.04.1-.12.09-.17-.02-.14-.08-.28-.12-.41-.05-.17-.12-.34-.17-.5-.08-.26-.14-.51-.22-.77-.07-.25-.15-.5-.24-.75-.07-.2-.06-.46-.36-.5-.06,0-.11-.01-.17-.03-.33-.1-.66-.2-1-.29-.2-.06-.4-.1-.6-.16-.26-.07-.52-.17-.78-.24-.27-.08-.55-.14-.82-.21-.33-.09-.66-.19-1-.29-.2-.06-.4-.1-.61-.16-.26-.07-.52-.18-.79-.23-.28-.06-.53-.16-.74-.34-.23-.2-.46-.4-.69-.6s-.47-.4-.7-.6-.46-.4-.7-.59c-.24-.2-.47-.4-.7-.6s-.46-.4-.69-.6c-.37-.32-.74-.64-1.11-.96-.23-.2-.46-.39-.69-.59-.26-.22-.5-.45-.77-.66-.04-.04-.15-.05-.2-.02-.46.24-.91.5-1.37.76-.33.18-.66.37-1,.55-.52.29-1.04.57-1.56.86-.36.2-.72.4-1.08.6-.52.29-1.04.57-1.56.85-.41.22-.83.44-1.24.66-.09.05-.17.13-.11.24.06.1.14.16.28.09.15-.07.32-.08.48-.12.17-.04.34-.08.5-.13.21-.06.42-.12.63-.17.23-.06.46-.11.69-.16.23-.06.46-.13.69-.19.22-.06.44-.1.66-.16.23-.06.46-.13.69-.19.3-.08.61-.17.91-.24.06-.01.12,0,.18,0-.03.04-.05.1-.09.13-.26.23-.52.45-.78.69-.11.1-.08.27.07.31.24.06.48.11.72.16.19.04.38.07.57.11.2.04.4.1.6.14.17.04.34.07.51.11.2.04.41.09.61.14.18.04.36.08.54.12.19.04.38.09.58.13.19.04.37.07.56.11.25.06.5.13.75.19.19.04.39.07.59.11.37.08.74.16,1.11.25.02,0,.04.02.06.03-.02.01-.04.04-.06.04-.34.04-.67.07-1.01.1-.31.03-.61.07-.92.1-.34.03-.69.07-1.04.1-.32.03-.64.07-.96.1-.39.04-.79.07-1.19.1-.17.01-.33.03-.5.06-.05,0-.11.06-.14.11-.08.2-.15.4-.22.6-.1.28-.19.56-.28.83-.09.26-.18.53-.27.79-.09.27-.19.54-.28.81-.09.26-.18.53-.27.79s-.17.53-.26.79c-.13.36-.26.71-.38,1.07-.13.36-.25.73-.38,1.09-.03.09-.09.2-.06.28.09.29.22.58.33.87.12.31.23.61.35.91.08.2.17.4.25.6.16.41.3.83.46,1.23.09.22.21.43.32.63.07.12.18.13.29.03.1-.09.21-.18.31-.27.33-.26.66-.52.98-.78.24-.2.47-.4.71-.6.09-.08.19-.16.29-.23.16-.1.3-.21.26-.43,0-.07-.04-.14-.05-.21-.04-.4-.06-.8-.1-1.2,0-.17-.03-.33-.05-.5-.04-.4-.07-.8-.1-1.2-.02-.17-.04-.33-.05-.5-.03-.4-.09-.8-.09-1.2,0-.14.15-.28.25-.41.21-.26.44-.5.66-.76.28-.32.56-.63.85-.95.28-.31.55-.62.84-.93.03-.03.1-.04.15-.02.3.13.61.27.9.41.34.17.69.35,1.03.53.04.02.08.09.08.13,0,.37-.03.74-.04,1.11-.02.73-.04,1.45-.05,2.18v1.02c0,.14.16.25.26.18.14-.08.27-.16.4-.25.51-.34,1.01-.68,1.52-1.01.04-.03.14-.14.18.02.02.09.02.18.04.27.05.24.1.47.14.71.04.25.07.51.1.76.02.14.07.27.09.4.02.14.07.28.04.41-.02.14-.11.26-.17.39-.13.28-.25.55-.38.83-.18.39-.37.77-.56,1.16-.06.13,0,.24.13.29.34.12.66.25.99.38.27.1.53.21.8.32.33.13.67.26,1,.38.13.04.29.13.4.09.22-.08.41-.23.62-.35.32-.19.64-.38.95-.57.22-.13.43-.25.65-.38.35-.21.7-.41,1.05-.62l.4-.25c.24-.14.49-.28.74-.42.29-.18.59-.36.88-.53.24-.14.48-.28.72-.42.29-.17.57-.35.86-.52.3-.17.59-.34.89-.52.08-.05.15-.13.08-.24l.02-.03Z"/>
        </g>
        <g id="Labels">
          <rect class="cls-6" x="53.6" y="80.84" width="14.46" height="9.97"/>
          <g class="cls-1">
            <g class="cls-1">
              <path class="cls-8" d="m55.09,85.92c0-.58.02-.97.05-1.16.04-.2.09-.36.16-.48.12-.23.3-.43.56-.61.25-.18.57-.27.95-.28.38,0,.7.1.96.28.25.18.44.38.55.62.08.12.14.28.17.47.03.2.04.58.04,1.16s-.01.96-.04,1.16c-.03.2-.09.36-.17.48-.11.23-.3.43-.55.61-.26.18-.58.28-.96.29-.38,0-.7-.1-.95-.29-.26-.18-.45-.38-.56-.61-.04-.08-.07-.15-.1-.22-.03-.07-.05-.16-.07-.27-.03-.2-.05-.59-.05-1.16Zm.73,0c0,.49.02.82.05,1,.03.17.09.31.19.42.08.1.18.19.31.25.12.08.27.11.44.11s.33-.04.45-.11c.12-.06.22-.15.29-.25.09-.11.16-.25.2-.42.03-.17.05-.51.05-1s-.02-.83-.05-1c-.04-.17-.1-.31-.2-.42-.07-.1-.17-.19-.29-.26-.13-.07-.28-.1-.45-.11-.17,0-.32.04-.44.11-.13.07-.23.15-.31.26-.09.11-.16.25-.19.42-.04.18-.05.51-.05,1Z"/>
              <path class="cls-8" d="m59.44,83.43h.73v3.22c0,.34.1.6.29.78.18.19.41.28.7.28s.52-.09.71-.28c.18-.18.27-.44.28-.78v-3.22h.73v3.29c0,.52-.17.94-.49,1.25-.32.32-.73.48-1.22.48-.48,0-.89-.17-1.21-.48-.33-.31-.5-.72-.5-1.25v-3.3Z"/>
              <path class="cls-8" d="m64.75,84.1h-1.32v-.67h3.38v.67h-1.32v4.31h-.73v-4.31Z"/>
            </g>
          </g>
          <g id="CLK_IN" data-name="CLK IN">
            <g id="CLK_IN-2" data-name="CLK IN-2" class="cls-1">
              <g class="cls-1">
                <path class="cls-7" d="m17.3,83.46h.73v4.98h-.73v-4.98Z"/>
                <path class="cls-7" d="m19.11,83.46h.69l2.19,3.54h.01v-3.54h.73v4.98h-.69l-2.18-3.54h-.01v3.54h-.73v-4.98Z"/>
              </g>
            </g>
          </g>
          <g id="ATTENUVERTER">
            <g id="CLK_IN-3" data-name="CLK IN-3" class="cls-1">
              <g class="cls-1">
                <path class="cls-7" d="m24.24,112.62h2.91v1.02h-2.91v-1.02Z"/>
                <path class="cls-7" d="m54.3,110.84h.75v2.14h2.07v.78h-2.07v2.14h-.75v-2.14h-2.08v-.78h2.08v-2.14Z"/>
              </g>
            </g>
          </g>
          <g id="LENGTH">
            <g id="CLK_IN-4" data-name="CLK IN-4" class="cls-1">
              <g class="cls-1">
                <path class="cls-7" d="m25.22,170.14h.94v5.49h3.02v.91h-3.96v-6.41Z"/>
                <path class="cls-7" d="m30.23,170.14h3.96v.91h-3.02v1.83h2.58v.86h-2.58v1.89h3.02v.91h-3.96v-6.41Z"/>
                <path class="cls-7" d="m35.23,170.14h.89l2.81,4.55h.02v-4.55h.94v6.41h-.89l-2.81-4.55h-.02v4.55h-.94v-6.41Z"/>
                <path class="cls-7" d="m43.4,173.02h2.21v1.3c-.01.64-.22,1.18-.64,1.61-.42.43-.94.65-1.57.66-.49-.01-.89-.13-1.22-.37-.33-.23-.57-.49-.72-.78-.05-.1-.09-.19-.12-.28-.03-.09-.06-.21-.09-.34-.04-.26-.06-.75-.06-1.48s.02-1.24.06-1.49c.05-.25.12-.46.21-.61.15-.3.39-.56.72-.79.33-.23.73-.35,1.22-.36.6,0,1.09.19,1.46.55.38.36.62.81.71,1.35h-1c-.08-.26-.22-.48-.42-.66-.21-.17-.47-.26-.77-.27-.22,0-.41.05-.57.14-.16.09-.29.2-.39.33-.12.14-.2.32-.24.53-.05.23-.07.66-.07,1.29s.02,1.06.07,1.28c.04.22.12.4.24.54.1.13.23.24.39.32.16.1.35.14.57.14.37,0,.67-.13.91-.39.24-.25.36-.57.37-.97v-.33h-1.27v-.91Z"/>
                <path class="cls-7" d="m47.93,171h-1.7v-.86h4.34v.86h-1.7v5.55h-.94v-5.55Z"/>
                <path class="cls-7" d="m54.78,173.75h-2.46v2.8h-.94v-6.41h.94v2.75h2.46v-2.75h.94v6.41h-.94v-2.8Z"/>
              </g>
            </g>
          </g>
          <g id="BEATS">
            <g id="CLK_IN-5" data-name="CLK IN-5" class="cls-1">
              <g class="cls-1">
                <path class="cls-7" d="m28.82,243.89h2.41c.61,0,1.07.16,1.38.47.31.31.46.73.46,1.24,0,.26-.06.52-.18.76-.06.12-.16.22-.28.33-.12.11-.27.21-.45.29v.02c.34.09.59.27.77.55.16.28.24.59.24.93,0,.55-.17.99-.5,1.31-.33.34-.73.51-1.22.51h-2.62v-6.41Zm.94.86v1.84h1.36c.34,0,.6-.09.76-.28.16-.17.25-.39.25-.64s-.08-.48-.25-.66c-.16-.17-.41-.25-.76-.26h-1.36Zm0,2.7v1.93h1.45c.35,0,.61-.1.77-.29.16-.19.24-.41.24-.67s-.08-.49-.24-.68c-.16-.18-.42-.28-.77-.29h-1.45Z"/>
                <path class="cls-7" d="m34.31,243.89h3.96v.91h-3.02v1.83h2.58v.86h-2.58v1.89h3.02v.91h-3.96v-6.41Z"/>
              </g>
              <g class="cls-1">
                <path class="cls-7" d="m42.49,248.86h-2.35l-.48,1.43h-1l2.26-6.41h.79l2.26,6.41h-.99l-.48-1.43Zm-.27-.86l-.9-2.8h-.02l-.9,2.8h1.81Z"/>
              </g>
              <g class="cls-1">
                <path class="cls-7" d="m45.19,244.75h-1.7v-.86h4.34v.86h-1.7v5.55h-.94v-5.55Z"/>
                <path class="cls-7" d="m48.71,248.74c.49.42,1.08.63,1.76.64.81-.01,1.22-.31,1.23-.89,0-.48-.26-.76-.81-.86-.25-.04-.52-.07-.82-.12-.53-.09-.94-.29-1.22-.61-.29-.33-.43-.72-.43-1.19,0-.56.18-1.01.54-1.36.35-.34.84-.51,1.48-.52.77.02,1.44.24,2.01.66l-.52.8c-.47-.32-.98-.48-1.54-.49-.29,0-.53.07-.72.22-.2.16-.3.39-.31.7,0,.18.07.35.21.5.14.15.36.26.67.32.17.03.4.06.7.1.58.08,1.01.3,1.29.65.28.34.41.74.41,1.2-.03,1.23-.76,1.85-2.18,1.87-.92,0-1.71-.29-2.37-.88l.62-.73Z"/>
              </g>
            </g>
          </g>
          <g id="ROTATION">
            <g id="CLK_IN-6" data-name="CLK IN-6" class="cls-1">
              <g class="cls-1">
                <path class="cls-7" d="m25.22,325.16h2.42c.52,0,.94.14,1.27.42.39.32.6.78.62,1.37-.01.87-.41,1.46-1.2,1.78l1.44,2.84h-1.12l-1.28-2.74h-1.2v2.74h-.94v-6.41Zm.94,2.81h1.43c.35,0,.62-.11.79-.32.17-.19.26-.43.26-.71,0-.33-.11-.58-.31-.73-.16-.13-.39-.2-.69-.2h-1.48v1.95Z"/>
              </g>
              <g class="cls-1">
                <path class="cls-7" d="m30.5,328.36c0-.75.02-1.25.06-1.5.05-.25.12-.46.21-.61.15-.29.39-.56.72-.79.33-.23.73-.35,1.22-.36.49,0,.9.13,1.23.36.33.23.56.5.71.79.1.16.18.36.22.61.04.25.06.75.06,1.49s-.02,1.23-.06,1.48c-.04.26-.11.46-.22.62-.15.3-.38.56-.71.78-.33.23-.74.36-1.23.37-.49-.01-.89-.13-1.22-.37-.33-.23-.57-.49-.72-.78-.05-.1-.09-.19-.12-.28-.03-.09-.06-.21-.09-.34-.04-.26-.06-.75-.06-1.48Zm.94,0c0,.63.02,1.06.07,1.28.04.22.12.4.24.54.1.13.23.24.39.32.16.1.35.14.57.14s.42-.05.58-.14c.16-.08.28-.19.38-.32.12-.14.21-.32.25-.54.04-.22.06-.65.06-1.28s-.02-1.06-.06-1.29c-.05-.22-.13-.39-.25-.53-.09-.13-.22-.24-.38-.33-.16-.08-.36-.13-.58-.14-.22,0-.41.05-.57.14-.16.09-.29.2-.39.33-.12.14-.2.32-.24.53-.05.23-.07.66-.07,1.29Z"/>
              </g>
              <g class="cls-1">
                <path class="cls-7" d="m37.08,326.02h-1.7v-.86h4.34v.86h-1.7v5.55h-.94v-5.55Z"/>
                <path class="cls-7" d="m42.41,330.13h-2.35l-.48,1.43h-1l2.26-6.41h.79l2.26,6.41h-.99l-.48-1.43Zm-.27-.86l-.9-2.8h-.02l-.9,2.8h1.81Z"/>
              </g>
              <g class="cls-1">
                <path class="cls-7" d="m45.74,326.02h-1.7v-.86h4.34v.86h-1.7v5.55h-.94v-5.55Z"/>
                <path class="cls-7" d="m49.19,325.16h.94v6.41h-.94v-6.41Z"/>
                <path class="cls-7" d="m51.3,328.36c0-.75.02-1.25.06-1.5.04-.25.12-.46.21-.61.15-.29.39-.56.72-.79.33-.23.73-.35,1.22-.36.49,0,.91.13,1.23.36.33.23.56.5.71.79.1.16.18.36.22.61.04.25.05.75.05,1.49s-.02,1.23-.05,1.48c-.04.26-.11.46-.22.62-.15.3-.38.56-.71.78-.33.23-.74.36-1.23.37-.49-.01-.89-.13-1.22-.37-.33-.23-.57-.49-.72-.78-.05-.1-.09-.19-.12-.28-.04-.09-.06-.21-.09-.34-.04-.26-.06-.75-.06-1.48Zm.94,0c0,.63.02,1.06.07,1.28.04.22.12.4.24.54.1.13.23.24.39.32.16.1.35.14.57.14s.42-.05.58-.14c.16-.08.28-.19.38-.32.12-.14.21-.32.25-.54.04-.22.06-.65.06-1.28s-.02-1.06-.06-1.29c-.04-.22-.13-.39-.25-.53-.09-.13-.22-.24-.38-.33-.16-.08-.36-.13-.58-.14-.22,0-.41.05-.57.14-.16.09-.29.2-.39.33-.12.14-.2.32-.24.53-.05.23-.07.66-.07,1.29Z"/>
                <path class="cls-7" d="m57,325.16h.88l2.81,4.55h.02v-4.55h.94v6.41h-.89l-2.81-4.55h-.02v4.55h-.94v-6.41Z"/>
              </g>
            </g>
          </g>
          <g id="ROTATION-2">
            <g id="CLK_IN-7" data-name="CLK IN-7" class="cls-1">
              <g class="cls-1">
                <path class="cls-7" d="m26.27,318.38h-1.7v-.86h4.34v.86h-1.7v5.55h-.94v-5.55Z"/>
                <path class="cls-7" d="m29.72,317.52h3.96v.91h-3.02v1.83h2.58v.86h-2.58v1.89h3.02v.91h-3.96v-6.41Z"/>
                <path class="cls-7" d="m34.73,317.52h.89l1.78,4.18,1.75-4.18h.89v6.41h-.94v-4h-.02l-1.3,3.08h-.78l-1.3-3.08h-.02v4h-.94v-6.41Z"/>
                <path class="cls-7" d="m41.55,317.52h2.25c.24,0,.48.02.71.07.23.06.46.19.69.38.2.14.35.35.48.62.13.26.19.56.19.91,0,.47-.16.91-.49,1.3-.33.41-.82.62-1.46.63h-1.43v2.5h-.94v-6.41Zm.94,2.99h1.4c.35,0,.61-.12.79-.34.17-.21.25-.45.25-.71,0-.21-.03-.4-.1-.54-.07-.13-.17-.24-.3-.31-.19-.13-.42-.19-.67-.18h-1.36v2.08Z"/>
                <path class="cls-7" d="m46.67,320.72c0-.75.02-1.25.06-1.5.05-.25.12-.46.21-.61.15-.29.39-.56.72-.79.33-.23.73-.35,1.22-.36.49,0,.91.13,1.23.36.33.23.56.5.71.79.1.16.18.36.22.61.04.25.05.75.05,1.49s-.02,1.23-.05,1.48c-.04.26-.11.46-.22.62-.15.3-.38.56-.71.78-.33.23-.74.36-1.23.37-.49-.01-.89-.13-1.22-.37-.33-.23-.57-.49-.72-.78-.05-.1-.09-.19-.12-.28-.03-.09-.06-.21-.09-.34-.04-.26-.06-.75-.06-1.48Zm.94,0c0,.63.02,1.06.07,1.28.04.22.12.4.24.54.1.13.23.24.39.32.16.1.35.14.57.14s.42-.05.58-.14c.16-.08.28-.19.38-.32.12-.14.21-.32.25-.54.04-.22.06-.65.06-1.28s-.02-1.06-.06-1.29c-.05-.22-.13-.39-.25-.53-.09-.13-.22-.24-.38-.33-.17-.08-.36-.13-.58-.14-.22,0-.41.05-.57.14-.16.09-.29.2-.39.33-.12.14-.2.32-.24.53-.04.23-.07.66-.07,1.29Z"/>
              </g>
            </g>
          </g>
        </g>
        <g id="Module_Name" data-name="Module Name">
          <g class="cls-1">
            <g class="cls-1">
              <path class="cls-7" d="m6.46,19.61h3.96v.91h-3.02v1.83h2.58v.86h-2.58v1.89h3.02v.91h-3.96v-6.41Z"/>
              <path class="cls-7" d="m11.54,24.46c.49.42,1.08.63,1.76.64.81-.01,1.22-.31,1.23-.89,0-.48-.26-.76-.81-.86-.25-.04-.52-.07-.82-.12-.53-.09-.94-.29-1.22-.61-.29-.33-.43-.72-.43-1.19,0-.56.18-1.01.54-1.36.35-.34.84-.51,1.48-.52.77.02,1.44.24,2.01.66l-.52.8c-.47-.32-.98-.48-1.54-.49-.29,0-.53.07-.72.22-.2.16-.31.39-.31.7,0,.18.07.35.21.5.14.15.36.26.67.32.17.03.4.06.7.1.58.08,1.01.3,1.29.65.28.34.41.74.41,1.2-.03,1.23-.76,1.85-2.18,1.87-.92,0-1.71-.29-2.37-.88l.62-.73Z"/>
              <path class="cls-7" d="m20.82,24.23c-.14.59-.4,1.05-.78,1.37-.39.32-.86.47-1.4.47-.49-.01-.9-.13-1.22-.37-.33-.23-.57-.49-.72-.78-.05-.1-.09-.19-.12-.28-.03-.09-.06-.21-.09-.34-.04-.26-.06-.75-.06-1.48s.02-1.24.06-1.49c.05-.25.11-.46.21-.61.15-.3.39-.56.72-.79.33-.23.73-.35,1.22-.36.6,0,1.09.19,1.46.55.38.36.62.81.72,1.35h-1c-.08-.26-.22-.48-.42-.66-.21-.17-.47-.26-.77-.27-.22,0-.41.05-.57.14-.16.09-.29.2-.39.33-.12.14-.2.32-.24.53-.05.23-.07.66-.07,1.29s.02,1.06.07,1.28c.04.22.12.4.24.54.1.13.23.24.39.32.16.1.35.14.57.14.53,0,.92-.29,1.19-.88h1Z"/>
              <path class="cls-7" d="m24.81,24.58h-2.35l-.48,1.43h-1l2.26-6.41h.79l2.26,6.41h-.99l-.48-1.43Zm-.27-.86l-.9-2.8h-.02l-.9,2.8h1.81Z"/>
              <path class="cls-7" d="m27.12,19.61h.89l2.81,4.55h.02v-4.55h.94v6.41h-.89l-2.81-4.55h-.02v4.55h-.94v-6.41Z"/>
              <path class="cls-7" d="m36.46,24.58h-2.35l-.48,1.43h-1l2.26-6.41h.79l2.26,6.41h-.99l-.48-1.43Zm-.27-.86l-.9-2.8h-.02l-.9,2.8h1.81Z"/>
              <path class="cls-7" d="m38.77,19.61h2.41c.61,0,1.07.16,1.38.47.31.31.46.73.46,1.24,0,.26-.06.52-.18.76-.06.12-.16.22-.28.33-.12.11-.27.21-.45.29v.02c.34.09.59.27.77.55.16.28.24.59.24.93,0,.55-.17.99-.5,1.31-.33.34-.73.51-1.22.51h-2.62v-6.41Zm.94.86v1.84h1.36c.34,0,.6-.09.76-.28.16-.17.25-.39.25-.64s-.08-.48-.25-.66c-.16-.17-.41-.25-.76-.26h-1.36Zm0,2.7v1.93h1.45c.35,0,.61-.1.77-.29.16-.19.24-.41.24-.67s-.08-.49-.24-.68c-.16-.18-.42-.28-.77-.29h-1.45Z"/>
              <path class="cls-7" d="m47.44,24.58h-2.35l-.48,1.43h-1l2.26-6.41h.79l2.26,6.41h-.99l-.48-1.43Zm-.27-.86l-.9-2.8h-.02l-.9,2.8h1.81Z"/>
            </g>
          </g>
          <g class="cls-1">
            <g class="cls-1">
              <path class="cls-7" d="m6.4,26.22h6.17v1.42h-4.71v2.85h4.02v1.34h-4.02v2.93h4.71v1.42h-6.17v-9.97Z"/>
              <path class="cls-7" d="m14.01,26.22h1.46v6.43c0,.68.2,1.2.57,1.55.36.37.83.56,1.4.56s1.04-.19,1.41-.56c.36-.36.55-.87.56-1.55v-6.43h1.46v6.59c-.02,1.05-.35,1.88-.99,2.5-.64.63-1.46.96-2.44.96-.97,0-1.78-.33-2.42-.96-.66-.61-1-1.45-1.01-2.49v-6.59Z"/>
              <path class="cls-7" d="m29.52,33.4c-.21.92-.62,1.63-1.21,2.13-.61.49-1.34.74-2.18.74-.76-.02-1.39-.21-1.9-.57-.52-.35-.89-.76-1.12-1.22-.07-.15-.13-.29-.19-.43-.05-.14-.1-.32-.13-.53-.07-.4-.1-1.17-.1-2.31s.03-1.93.1-2.32c.07-.39.18-.71.32-.95.23-.46.61-.87,1.13-1.23.51-.36,1.14-.55,1.9-.56.93,0,1.69.29,2.28.85.59.56.96,1.26,1.11,2.09h-1.55c-.12-.4-.34-.74-.65-1.03-.33-.27-.73-.41-1.19-.42-.35,0-.64.08-.89.21-.25.14-.46.31-.61.51-.19.21-.32.49-.38.83-.07.36-.11,1.03-.11,2.01s.04,1.65.11,1.99c.06.35.19.63.38.84.15.21.36.37.61.5.25.15.54.23.89.23.82,0,1.44-.46,1.84-1.36h1.55Z"/>
              <path class="cls-7" d="m30.79,26.22h1.46v8.55h4.71v1.42h-6.17v-9.97Z"/>
            </g>
            <g class="cls-1">
              <path class="cls-7" d="m38.58,26.22h1.46v9.97h-1.46v-9.97Z"/>
            </g>
            <g class="cls-1">
              <path class="cls-7" d="m41.95,26.22h3.38c1.31,0,2.29.57,2.94,1.68.23.37.38.77.44,1.18.05.41.07,1.12.07,2.13,0,1.07-.04,1.82-.11,2.24-.04.21-.09.41-.16.57-.08.16-.17.33-.27.51-.28.47-.68.86-1.18,1.16-.5.33-1.11.49-1.83.49h-3.28v-9.97Zm1.46,8.55h1.75c.82,0,1.42-.29,1.79-.87.16-.21.27-.49.31-.82.04-.32.06-.93.06-1.82s-.02-1.49-.06-1.86c-.05-.37-.18-.68-.38-.91-.41-.58-.98-.86-1.72-.84h-1.75v7.12Z"/>
              <path class="cls-7" d="m50.49,26.22h6.17v1.42h-4.71v2.85h4.02v1.34h-4.02v2.93h4.71v1.42h-6.17v-9.97Z"/>
            </g>
            <g class="cls-1">
              <path class="cls-7" d="m62.89,33.96h-3.66l-.74,2.23h-1.55l3.51-9.97h1.22l3.51,9.97h-1.54l-.75-2.23Zm-.42-1.34l-1.4-4.36h-.03l-1.4,4.36h2.82Z"/>
              <path class="cls-7" d="m66.48,26.22h1.38l4.37,7.08h.03v-7.08h1.46v9.97h-1.38l-4.37-7.08h-.03v7.08h-1.46v-9.97Z"/>
            </g>
          </g>
        </g>
        <circle class="cls-4" cx="21.69" cy="320.73" r="2.04"/>
        <circle class="cls-5" cx="21.69" cy="328.71" r="2.04"/>
      </g>
    </g>
    <g id="For_Export" data-name="For Export">
      <rect id="Panel_Outline" data-name="Panel Outline" class="cls-3" x=".04" y=".04" width="85.04" height="364.25"/>
    </g>
  </g>
</svg>